<?xml version="1.0" standalone="no"?>
<!DOCTYPE svg PUBLIC "-//W3C//DTD SVG 1.1//EN" "http://www.w3.org/Graphics/SVG/1.1/DTD/svg11.dtd" >
<svg xmlns="http://www.w3.org/2000/svg">
<metadata></metadata>
<defs>
<font id="sf_cartoonist_handbold" horiz-adv-x="925" >
<font-face units-per-em="2048" ascent="1638" descent="-410" />
<missing-glyph horiz-adv-x="486" />
<glyph horiz-adv-x="2048" />
<glyph horiz-adv-x="2048" />
<glyph unicode="&#xd;" horiz-adv-x="1024" />
<glyph unicode=" "  horiz-adv-x="486" />
<glyph unicode="&#x09;" horiz-adv-x="486" />
<glyph unicode="&#xa0;" horiz-adv-x="486" />
<glyph unicode="!" horiz-adv-x="541" d="M140 99q0 43 42 86.5t84 43.5q34 0 66 -47t32 -85q-2 -44 -36 -82.5t-77 -38.5q-41 0 -76 40t-35 83zM159 906v328q15 165 112 165q40 0 65.5 -25.5t25.5 -64.5v-993q-92 -46 -133 -46q-69 0 -69 123v35q2 24 2 36q0 34 -1.5 104t-1.5 338z" />
<glyph unicode="&#x22;" horiz-adv-x="689" d="M140 1323q68 76 116 76q41 0 58 -52q73 44 113 44q58 0 58 -79q0 -32 20.5 -93.5t20.5 -93.5q0 -36 -26.5 -60t-62.5 -24q-41 0 -67 32q-25 -40 -75 -40q-56 0 -83 54q-41 80 -72 236z" />
<glyph unicode="#" horiz-adv-x="1208" d="M104 817q0 57 87 69q65 1 147 1l10 84q-80 2 -171 15q-23 57 -23 98q0 68 87 68q53 0 136 5l31 198q61 26 102 26q67 0 67 -65q0 -41 -14 -142q36 4 82 10q5 84 2 166q73 49 116 49q54 0 70 -76q5 -31 5 -118q65 5 160 5q132 0 132 -96q0 -80 -87 -92q-74 -3 -217 -3 q-5 -63 -10 -103q99 11 129 11q38 0 63 -29t25 -67q0 -72 -94 -95q-29 -7 -154 -7q-15 -104 -26 -132q-27 -68 -92 -68q-41 0 -67.5 29t-26.5 70q0 32 9 84q-24 -2 -72 -4q-10 -114 -17 -136q-24 -82 -92 -82q-37 0 -65.5 28t-28.5 66q0 36 10 123h-169q-44 66 -44 110z M532 896l82 7q4 29 11 87q-28 -4 -84 -9z" />
<glyph unicode="$" horiz-adv-x="992" d="M96 355q0 39 29.5 66.5t69.5 27.5q41 0 78.5 -42t120.5 -120v363q-261 144 -261 333q0 106 80 184q70 70 180 103q-2 24 -2 42q0 38 24.5 62.5t62.5 24.5q90 0 90 -112q220 -27 220 -260q-52 -54 -100 -54q-38 0 -62 55.5t-56 65.5v-314q307 -160 307 -410 q0 -143 -82 -245q-90 -113 -230 -113q-70 -46 -113 -46q-66 0 -66 95q-202 94 -277 246q-13 28 -13 48zM328 980q0 -50 68 -99v111q0 -21 0 78q-68 -34 -68 -90zM570 217q55 0 84 54q24 45 24 103q0 102 -108 179v-336z" />
<glyph unicode="%" horiz-adv-x="1208" d="M85 1067q0 131 92.5 231.5t221.5 100.5q137 0 230 -88.5t93 -225.5q0 -133 -91.5 -220.5t-224.5 -87.5q-131 0 -223 78q-98 84 -98 212zM230 445q0 43 305 318.5t356 275.5q39 0 67 -29t28 -68q0 -31 -27 -61q-19 -21 -106 -89q-97 -75 -249 -217q-181 -165 -246 -220 q-39 9 -78 31q-50 29 -50 59zM278 1072q0 -101 133 -101q50 0 81.5 31t31.5 80q0 53 -44.5 90.5t-97.5 37.5q-36 0 -70 -49.5t-34 -88.5zM483 266q0 138 88 236.5t224 98.5q133 0 229 -95.5t96 -229.5q0 -133 -97.5 -221.5t-232.5 -88.5q-138 0 -222.5 82t-84.5 218z M671 268q0 -109 123 -109q56 0 92.5 31.5t36.5 85.5q0 62 -37.5 99.5t-98.5 37.5q-51 0 -86 -49q-30 -43 -30 -96z" />
<glyph unicode="&#x26;" horiz-adv-x="1073" d="M172 1075q0 133 75 225q81 99 212 99q114 0 187.5 -83.5t73.5 -199.5q0 -164 -179 -449q72 -95 183 -201q18 157 107 157q97 0 97 -109q0 -74 -29 -205q26 -21 101 -77v-29q0 -36 -17 -73q-22 -46 -53 -46q-25 0 -99 51q-121 -169 -358 -169q-138 0 -215 87t-77 227 q0 157 131 382q-140 214 -140 413zM365 1068q0 -99 60 -218q101 167 101 259q0 24 -23 62.5t-44 38.5q-46 0 -72 -49q-22 -41 -22 -93zM375 275q0 -118 106 -118q125 0 197 102q-152 115 -238 238q-65 -130 -65 -222z" />
<glyph unicode="'" horiz-adv-x="478" d="M113 1343q71 56 112 56q40 0 58 -44q5 -12 39.5 -115t34.5 -107q0 -37 -30 -61t-68 -24q-44 0 -70 43q-59 100 -76 252z" />
<glyph unicode="(" horiz-adv-x="695" d="M97 633q0 200 74 408q85 239 225 336q32 22 61 22q40 0 69.5 -27t29.5 -66q0 -28 -44 -86q-34 -41 -67 -80q-162 -217 -162 -514q0 -327 224 -524q-5 -41 -26 -82q-25 -54 -56 -54q-19 0 -38 14q-143 107 -220 291q-70 168 -70 362z" />
<glyph unicode=")" horiz-adv-x="691" d="M135 60q0 32 42 85q35 38 67 77q75 101 120 251q40 140 40 275q0 320 -221 515q5 41 25 82q26 54 57 54q17 0 35 -13q145 -109 222 -289q72 -165 72 -358q0 -201 -75 -411q-86 -241 -225 -340q-31 -22 -62 -22q-39 0 -68 27t-29 67z" />
<glyph unicode="*" horiz-adv-x="908" d="M104 1123q10 48 36 92q32 60 70 60q29 0 128 -89v55q-2 158 99 158q92 0 92 -119q0 -80 -2 -135q40 39 122 116q25 22 51 22q37 0 65.5 -30.5t28.5 -68.5q0 -61 -193 -225q48 -34 140 -109q37 -34 37 -80q0 -40 -26.5 -69t-65.5 -29q-37 0 -171 98v-132q-66 -44 -111 -44 q-71 0 -71 167q-28 -19 -87 -65q-38 9 -79 33q-51 29 -51 58q0 36 174 167q-61 56 -186 169z" />
<glyph unicode="+" horiz-adv-x="783" d="M51 672q0 65 92 94q67 21 149 19v191q0 39 26.5 66.5t65.5 27.5q108 0 108 -194q0 -23 -2 -58.5t-2 -46.5h29h62q44 2 63 2q37 0 62 -28t25 -67q0 -76 -91 -94q-41 -9 -150 -9v-186q0 -39 -25.5 -65.5t-64.5 -26.5q-108 0 -108 201v46q2 31 2 45q-26 2 -29 2 q-19 0 -58 -6t-58 -6q-39 0 -67.5 28t-28.5 65z" />
<glyph unicode="," horiz-adv-x="485" d="M87 -51q0 10 31 66q37 69 41 75q29 69 39 82q29 45 73 45q41 0 71 -29t30 -70q0 -57 -54.5 -143t-104.5 -120q-126 36 -126 94z" />
<glyph unicode="-" d="M172 666q0 95 190 95q15 0 49 -2h48q33 0 95 6t95 6q42 0 69.5 -26t27.5 -69q0 -56 -86 -85q-61 -21 -133 -21q-44 0 -133 3.5t-133 3.5q-37 0 -63 25.5t-26 63.5z" />
<glyph unicode="." horiz-adv-x="551" d="M135 73q0 53 46 102.5t99 49.5q51 0 83.5 -42.5t32.5 -95.5q0 -49 -36.5 -84t-86.5 -35q-55 0 -92 25q-46 29 -46 80z" />
<glyph unicode="/" horiz-adv-x="672" d="M41 56q0 31 92 313q56 174 208 657q19 80 40 162q23 97 59 154t94 57q39 0 68 -27t29 -66q0 -50 -39 -173q-31 -89 -61 -177q-86 -277 -258 -828q-51 -162 -135 -162q-39 0 -68 25.5t-29 64.5z" />
<glyph unicode="0" horiz-adv-x="1258" d="M157 635q0 264 82 476q111 288 331 288q265 0 415 -235q128 -201 128 -481q0 -267 -120 -471q-141 -246 -389 -246q-237 0 -355 229q-92 177 -92 440zM348 652q0 -123 67 -290q80 -198 182 -198q154 0 243 196q71 155 71 329q0 197 -76 340q-98 179 -277 179 q-102 0 -164 -233q-46 -176 -46 -323z" />
<glyph unicode="1" horiz-adv-x="620" d="M38 1213q0 38 38 73t101 71q74 42 111 42q91 0 111 -107q4 -15 4 -188q3 -90 3 -370q16 -231 16 -370q0 -204 -14 -352q-68 -46 -111 -46q-67 0 -67 119q0 24 2 70t2 70v922q-72 -29 -104 -29q-38 0 -65 29t-27 66z" />
<glyph unicode="2" horiz-adv-x="1125" d="M162 1050q0 163 116 259q109 90 277 90q175 0 290 -99q121 -104 121 -276q0 -181 -184 -415q-156 -179 -311 -356q-38 -46 -58 -81h461q41 -1 69 -29.5t28 -69.5q0 -107 -631 -107q-147 0 -147 101q0 128 150 319q138 164 278 329q150 188 150 307q0 89 -68 135 q-60 41 -152 41q-193 0 -193 -169q0 -10 3.5 -32t3.5 -33q0 -41 -30 -70.5t-70 -29.5q-55 0 -82 70q-21 51 -21 116z" />
<glyph unicode="3" horiz-adv-x="1007" d="M67 213q0 41 30.5 70t71.5 29q31 0 132.5 -70.5t183.5 -70.5q165 0 230 153q21 48 21 91q0 143 -195 227q-49 20 -99 41q-53 30 -53 87q0 46 44 83q74 57 147 111q96 79 96 144q0 35 -67 68q-59 29 -100 29q-137 0 -241 -162h-31q-39 0 -75 17q-44 20 -44 54q0 16 8 35 q53 111 159 180.5t227 69.5q137 0 244 -80q120 -87 120 -218q0 -150 -181 -306q245 -143 245 -385q0 -180 -135.5 -312t-316.5 -132q-102 0 -218 53t-178 131q-25 33 -25 63z" />
<glyph unicode="4" horiz-adv-x="1181" d="M106 604q0 41 7 138q12 171 12 378q0 25 -3.5 78t-3.5 79q0 122 77 122q70 0 95 -73q15 -41 15 -131q7 -74 7 -147q0 -190 -5 -273q-8 -140 -8 -155q0 -26 3 -55q101 8 411 27q2 46 2 92q0 108 -25.5 319.5t-25.5 319.5q0 75 84 75q58 0 83 -57q75 -160 75 -740 q53 3 75 3q40 0 67 -26.5t27 -65.5q0 -104 -170 -104v-270q1 -172 -106 -172q-99 0 -99 147v278q-147 -9 -350 -24q-87 -7 -125 -7q-65 0 -97 94q-22 68 -22 150z" />
<glyph unicode="5" horiz-adv-x="1176" d="M137 249q0 39 29 69t68 30q37 0 89 -46q81 -77 95 -89q67 -46 145 -46q113 0 195 87t82 202q0 121 -99 198q-91 70 -215 70q-70 0 -118 -55.5t-87 -55.5q-41 0 -71 29t-30 70q0 95 14.5 285.5t14.5 285.5q0 67 28 91t95 24h224q148 1 221 1q163 0 163 -100 q0 -98 -144 -98h-397q-2 -71 -2 -293q37 14 92 14q203 0 353 -130q157 -135 157 -336q0 -200 -138 -345t-338 -145q-121 0 -235.5 65.5t-175.5 169.5q-15 26 -15 48z" />
<glyph unicode="6" horiz-adv-x="1145" d="M137 471q0 222 110 498q113 284 267 432q39 -7 78 -29q51 -27 51 -60q0 -15 -17 -41q-126 -184 -194 -353q80 26 164 26q199 0 333 -128t134 -328q0 -201 -136 -358q-144 -164 -342 -164q-210 0 -334 150q-114 140 -114 355zM336 483q0 -316 253 -316q114 0 194 103 q77 95 77 211q0 113 -75 187t-188 74q-112 0 -186.5 -73t-74.5 -186z" />
<glyph unicode="7" horiz-adv-x="1007" d="M111 1331q0 68 765 68q88 0 88 -88q0 -38 -136 -316q-92 -184 -185 -369q-102 -216 -155 -382q-15 -73 -61 -215q-29 -63 -86 -63q-41 0 -70.5 28t-29.5 69q0 159 223 626q89 175 263 523h-283q-174 10 -285 10q-48 68 -48 109z" />
<glyph unicode="8" horiz-adv-x="1215" d="M135 375q0 238 201 364q-97 96 -97 246q0 176 110 295t284 119q149 0 256.5 -113.5t107.5 -263.5q0 -169 -118 -278q191 -121 191 -358q0 -193 -155 -311q-144 -109 -342 -109q-189 0 -313.5 111t-124.5 298zM328 379q0 -104 70 -161q63 -52 170 -52q118 0 202 49 q100 61 100 171q0 124 -105 189q-91 56 -222 56q-84 0 -149.5 -82.5t-65.5 -169.5zM433 992q0 -145 163 -145q73 0 134.5 49t61.5 121t-49.5 126.5t-121.5 54.5q-188 0 -188 -206z" />
<glyph unicode="9" horiz-adv-x="1111" d="M58 821q0 220 183.5 399t403.5 179q140 0 226 -84t86 -224q0 -24 -5 -70q-17 -145 -54 -354q-34 -174 -67 -350q-39 -215 -78 -331q-53 -20 -89 -20q-73 0 -73 61q0 53 35 236q24 124 50 249q-118 -67 -232 -67q-156 0 -271 111t-115 265zM259 814q0 -70 58 -114.5 t130 -44.5q96 0 179.5 66t108 160.5t24.5 195.5q0 118 -114 118q-138 0 -262 -121.5t-124 -259.5z" />
<glyph unicode=":" horiz-adv-x="565" d="M138 72q0 53 45.5 102.5t98.5 49.5q51 0 83.5 -43t32.5 -96q22 -49 -26 -84t-97 -35q-53 0 -92 25q-45 29 -45 81zM159 637q0 52 35 102.5t86 50.5q53 0 96.5 -34t43.5 -85q0 -62 -56 -96q-50 -31 -115 -31q-37 0 -63.5 27.5t-26.5 65.5z" />
<glyph unicode=";" horiz-adv-x="519" d="M102 -68q0 12 31 68q38 68 39 73q29 69 40 84q29 43 75 43q41 0 70.5 -29t29.5 -70q17 -57 -46 -143t-112 -120q-127 36 -127 94zM162 640q0 51 37.5 92t88.5 41q45 0 80.5 -33t35.5 -78q0 -46 -45 -88t-91 -42q-44 0 -75 32t-31 76z" />
<glyph unicode="&#x3c;" horiz-adv-x="788" d="M43 749q0 31 24 67q35 54 194 211q167 168 202 168t61.5 -27.5t26.5 -63.5q0 -37 -71 -116q-52 -53 -103 -106q-37 -39 -87 -99q10 -6 114 -83q70 -46 200 -154q31 -32 31 -65q0 -41 -30 -70.5t-71 -29.5q-37 0 -128 66q-60 46 -121 94q-68 39 -198 128q-44 34 -44 80z " />
<glyph unicode="=" horiz-adv-x="956" d="M167 795q0 65 69 92q92 36 423 36q89 0 89 -99q0 -63 -67 -92q-85 -37 -422 -37q-41 0 -66.5 29.5t-25.5 70.5zM198 546q0 82 90 104q98 24 367 24q133 0 133 -107q0 -64 -69 -87q-93 -31 -402 -31q-119 0 -119 97z" />
<glyph unicode="&#x3e;" horiz-adv-x="783" d="M147 1094q0 41 31.5 71t72.5 30q37 0 126 -65q60 -48 120 -94q68 -41 198 -128q44 -34 44 -79q0 -30 -22 -68q-31 -49 -195 -211q-170 -169 -203 -169q-36 0 -61.5 29t-25.5 64q0 38 70 117q51 52 102.5 105t90.5 99q-51 33 -217 152q-131 94 -131 147z" />
<glyph unicode="?" horiz-adv-x="940" d="M85 1152q0 113 185 188q148 59 283 59q119 0 205 -52q102 -64 102 -176q0 -96 -119 -251q-11 -15 -220 -258q-120 -136 -120 -189q0 -4 5 -4q7 0 20.5 2.5t25.5 2.5q101 -5 125 -11q70 -21 70 -89q0 -103 -144 -103q-121 0 -201 43q-99 55 -99 166q0 97 120 252 q13 17 225 256q119 138 121 191q-43 36 -135 36q-61 0 -143 -20q-96 -24 -130 -57v-8q-68 -53 -116 -53q-60 0 -60 75zM335 77q0 44 27 90q31 53 71 53q50 0 91 -32.5t41 -81.5q0 -53 -42.5 -96.5t-95.5 -43.5q-43 0 -69 36q-23 30 -23 75z" />
<glyph unicode="@" horiz-adv-x="1413" d="M138 620q0 104 34 194q81 213 234 341q169 142 384 142q208 0 344.5 -147.5t136.5 -357.5q0 -172 -70 -314q-87 -176 -240 -176q-128 0 -196 99q-64 -32 -139 -32q-107 0 -177 63t-70 169q0 138 115 244t254 106q46 0 99 -14q15 -41 18 -65h11q40 2 70 -25.5t30 -69.5 q0 -82 -36 -163q-18 -42 -18 -63q0 -49 39 -49q63 0 92 124q19 81 19 178q0 114 -81 203.5t-196 89.5q-186 0 -320 -151t-134 -338q0 -145 103 -234q97 -87 244 -87q34 0 103 8.5t103 8.5q40 0 64.5 -30t24.5 -71q0 -63 -66.5 -90.5t-221.5 -27.5q-226 0 -367 120 q-190 159 -190 415zM567 601q0 -40 64 -40q55 0 99 69q16 83 40 145q-9 2 -14 2q-65 0 -127 -55.5t-62 -120.5z" />
<glyph unicode="A" horiz-adv-x="1075" d="M27 26q0 29 63 220q70 213 231 653q39 105 112 313q12 48 48 131q26 38 47.5 47t67.5 9q41 0 68 -40q41 -64 75 -176q27 -94 53 -188q116 -384 193 -681q53 -205 53 -253q0 -39 -29 -67t-69 -28q-59 0 -87 70q-6 19 -25 119q-16 82 -60 249h-7q-77 0 -217 -15 q-150 -15 -216 -17q-48 -128 -139 -386q-52 -20 -88 -20q-74 0 -74 60zM399 573q106 11 318 24q-63 227 -142 463q-34 -96 -176 -487z" />
<glyph unicode="B" horiz-adv-x="1213" d="M56 1292q0 107 209 107q303 0 517 -87q295 -119 295 -377q0 -148 -149 -237q241 -121 241 -326q0 -213 -212 -321q-165 -85 -401 -85q-235 0 -435 83q-7 36 -7 57q0 34 16 63q17 36 49 36q38 0 86 -16q5 156 5 205v405q-29 285 -29 404l-93 -7q-92 40 -92 96zM428 1203 q4 -133 4 -401q29 7 44 7q16 0 46.5 -2.5t45.5 -2.5q104 0 190 27q124 38 124 118q0 128 -172 196q-118 46 -282 58zM447 157q43 -3 82 -3q442 0 442 215q0 92 -140 157q-97 47 -220 66q-55 4 -160 29q5 -152 5 -261q0 -118 -9 -203z" />
<glyph unicode="C" horiz-adv-x="1014" d="M46 579q0 286 140 532q166 288 430 288q212 0 304 -240q3 -9 3 -26q0 -42 -27 -71t-70 -29q-53 0 -102.5 85t-110.5 85q-173 0 -282 -242q-89 -196 -89 -394q0 -174 74 -284q83 -128 249 -128q181 0 237 168q46 17 87 17q77 0 77 -72q0 -26 -27 -85q-99 -217 -376 -217 q-254 0 -392 184q-125 167 -125 429z" />
<glyph unicode="D" horiz-adv-x="1101" d="M56 109q0 39 30 68.5t69 29.5q12 0 29 -4q-3 219 -3 958h-5h-4q-71 0 -71 68q1 8 3 15q38 97 123 132q61 23 184 23q285 0 471 -225q174 -211 174 -502t-192 -496q-198 -210 -489 -210q-83 0 -187 34q-132 44 -132 109zM355 1213q3 -349 3 -1044h19h5q204 0 342 152 q134 147 134 358q0 133 -54 256q-58 132 -161 202q-112 76 -288 76z" />
<glyph unicode="E" horiz-adv-x="968" d="M68 128q0 196 8 586t8 586q0 99 660 99q181 -1 181 -102q0 -37 -24.5 -63t-62.5 -26q-84 0 -249.5 3.5t-247.5 3.5q-76 0 -76 -74q1 -5 1 -9q4 -82 4 -328h179q43 0 126.5 1.5t124.5 1.5q39 0 65.5 -24.5t26.5 -63.5q0 -105 -176 -105h-116q-77 2 -234 2v-466 q253 10 519 10q135 0 135 -97q0 -94 -123 -94q-92 0 -278 -1.5t-280 -1.5q-92 0 -131.5 35t-39.5 127z" />
<glyph unicode="F" d="M72 1254q0 82 42 116q38 29 656 29q150 0 150 -99q0 -39 -26.5 -64.5t-65.5 -25.5h-121q-81 2 -120 2q-41 0 -124.5 -2t-124.5 -2q-46 0 -89 2v-401h396h15q154 0 154 -101q0 -37 -24.5 -62t-60.5 -25q-26 0 -77 2.5t-77 2.5h-164q-135 -6 -162 -6v-608q-66 -46 -111 -46 q-61 0 -61 63q0 205 -2.5 613t-2.5 612z" />
<glyph unicode="G" horiz-adv-x="1077" d="M44 691q0 260 123 466q145 242 388 242q222 0 389 -232q-43 -112 -103 -112q-8 0 -108 75t-170 75q-157 0 -247 -186q-72 -149 -72 -324q0 -203 80 -349q99 -177 287 -177q147 0 206 136v299q-35 0 -103.5 -6t-104.5 -6q-71 0 -148 24q-29 56 -29 99q0 53 54 65 q17 3 98 3q49 0 150 7t150 7q96 0 121 -92q16 -55 16 -166v-133q-2 -89 -2 -133q0 -224 -22 -288q-28 -82 -103 -82q-44 0 -69 29q-22 26 -22 63q0 6 1 12q-89 -41 -196 -41q-273 0 -429 234q-135 203 -135 491z" />
<glyph unicode="H" horiz-adv-x="1114" d="M70 55v1290q78 48 125 48q61 0 61 -65v1v-529q44 -1 90 -1q79 0 255 13q165 12 256 12v111q-4 72 -4 115q0 160 14 303q61 46 109 46q67 0 67 -112q0 -200 -2.5 -597.5t-2.5 -595.5q0 -128 -94 -128q-38 0 -65 25.5t-27 631.5q-352 -17 -475 -17q-70 0 -118 3v-257 q-3 -166 -3 -256q0 -130 -96 -130q-39 0 -64.5 25.5t-25.5 63.5z" />
<glyph unicode="I" horiz-adv-x="563" d="M49 1319q0 70 79 70q7 0 20.5 -1.5t20.5 -1.5q43 0 126.5 6.5t126.5 6.5q88 0 88 -83q0 -99 -162 -99q7 -91 7 -444q3 -206 3 -619q152 -2 152 -101q0 -87 -297 -87q-46 0 -92 5q-46 63 -46 108q0 66 108 66q-6 130 -6 592q-3 65 -3 234q-7 161 -7 236q-36 3 -90 15 q-28 60 -28 97z" />
<glyph unicode="J" horiz-adv-x="944" d="M9 401q0 55 15 121q56 29 101 29q70 0 70 -73q0 -7 -2 -21.5t-2 -21.5q0 -107 50 -184q58 -89 158 -89q284 0 284 586q0 109 -9 216q0 4 -17 171q-10 102 -10 171q0 41 26.5 67t67.5 26q76 0 100 -83q9 -31 9 -145q8 -41 24 -222q12 -135 12 -222q0 -299 -94 -497 q-123 -264 -388 -264q-174 0 -286 133q-109 126 -109 302z" />
<glyph unicode="K" horiz-adv-x="997" d="M70 1271q0 128 96 128q37 0 63.5 -25.5t26.5 -585.5q147 176 430 528q68 83 113 83q39 0 66.5 -29.5t27.5 -69.5q0 -39 -46 -97q-38 -42 -76 -85q-17 -21 -319 -391q82 -89 198 -249q142 -198 190 -258q30 -36 61 -73q36 -50 36 -84q0 -39 -30 -68t-69 -29q-41 0 -84 49 q-12 12 -61 82q-85 120 -179 248q-63 80 -183 242q-34 -37 -70 -73q2 -152 2 -256q0 -166 -4 -248q-63 -44 -111 -44q-68 0 -68 128v56q2 38 2 57q0 177 -6 532t-6 532z" />
<glyph unicode="L" horiz-adv-x="916" d="M68 1277q0 122 98 122q99 0 99 -162q0 -17 -2 -52.5t-2 -52.5q0 -137 5 -411t5 -410v-157h135q62 0 185.5 4t185.5 4q136 0 136 -99q0 -90 -114 -90q-70 0 -212.5 -3.5t-212.5 -3.5q-181 0 -222 19q-67 30 -67 288q0 167 -8.5 501.5t-8.5 502.5z" />
<glyph unicode="M" horiz-adv-x="1285" d="M70 1193q0 198 104 198q33 -1 65 -27q27 -22 27 -48q0 -5 -1 -10q51 -116 237 -589q30 -77 162 -406l254 727l58 174q46 135 65 153q34 34 73 34q99 0 99 -148v-1239q-63 -46 -110 -46q-76 0 -76 165v52q2 34 2 51v551q-68 -176 -189 -531q-53 -164 -57 -172 q-47 -104 -126 -104q-72 0 -133 162q-63 169 -261 674q5 -317 5 -379q0 -208 -14 -425q-61 -44 -107 -44q-65 0 -65 89q0 13 1.5 42t1.5 43q0 176 -7.5 526.5t-7.5 526.5z" />
<glyph unicode="N" horiz-adv-x="1079" d="M70 1229q0 130 39 153q17 11 79 11q25 0 51 -23q90 -80 220 -297q38 -66 183 -334q82 -152 182 -348v420q0 85 -4 257.5t-4 257.5q0 24 41 48.5t66 24.5q45 0 62 -52q22 -69 22 -262v-1029q0 -90 -121 -90q-70 0 -137 147q-15 34 -46 104q-210 437 -442 812v-811 q0 -18 2.5 -54t2.5 -55q0 -143 -97 -143q-90 0 -90 828v26q0 71 -4 191q-5 144 -5 218z" />
<glyph unicode="O" horiz-adv-x="1120" d="M49 592q0 287 117 519q143 288 401 288q249 0 389 -257q114 -212 114 -483q0 -268 -119 -463q-142 -230 -395 -230q-249 0 -387 194q-120 171 -120 432zM236 602q0 -445 346 -445q145 0 227 186q63 145 63 312q0 161 -46 299q-60 174 -176 230q-46 23 -70 23 q-53 0 -119 -35q-123 -63 -181 -250q-44 -142 -44 -320z" />
<glyph unicode="P" horiz-adv-x="1123" d="M53 1311q0 37 130 66q104 22 165 22q295 0 505 -122q255 -147 255 -422q0 -225 -210 -338q-168 -90 -413 -90q-77 0 -147 8l-2 -346v3q0 -126 -92 -126q-37 0 -63 24.5t-26 62.5v212q5 160 5 211q-71 29 -71 97q0 77 71 94q2 354 2 536l-51 -5q-58 65 -58 113zM338 635 q56 -7 130 -7q440 0 440 220q0 195 -196 289q-145 70 -367 70q-7 -287 -7 -572z" />
<glyph unicode="Q" horiz-adv-x="1109" d="M39 592q0 285 116 517q145 290 401 290q250 0 389 -257q115 -212 115 -483q0 -383 -215 -580q71 -158 71 -192q0 -37 -29 -64.5t-68 -27.5q-42 0 -68 36q-10 14 -34 72q-19 46 -36 82q-63 -19 -135 -19q-249 0 -387 194q-120 171 -120 432zM229 601q0 -186 65 -301 q80 -141 278 -141q13 0 24 1q-58 118 -113 215q43 103 102 103q40 0 168 -213q112 150 112 407q0 180 -66 333q-86 200 -241 200q-176 0 -264 -227q-65 -166 -65 -377z" />
<glyph unicode="R" horiz-adv-x="1111" d="M55 1294q0 41 138 76q114 29 177 29q270 0 446 -75q244 -105 244 -338t-360 -385q42 -70 128 -208q54 -84 109 -166q80 -126 80 -166q0 -39 -30 -66t-69 -27q-65 0 -153 138q-57 101 -113 199q-46 76 -137 229q-100 -27 -199 -27v-394q0 -147 -98 -147q-37 0 -62.5 24.5 t-25.5 62.5v193q3 157 3 191q2 249 2 747h5q-85 60 -85 110zM316 701q164 14 329 79q222 89 222 212q0 129 -193 186q-124 35 -300 35q-33 0 -55 -1q-3 -156 -3 -511z" />
<glyph unicode="S" horiz-adv-x="976" d="M44 341q0 41 31 68.5t72 27.5q48 0 75 -43q20 -41 41 -82q36 -63 114.5 -104t154.5 -41q94 0 149 54.5t55 147.5q0 71 -70 129q-33 26 -134 79q-199 106 -291 184q-161 135 -161 285q0 144 113.5 248.5t258.5 104.5q135 0 245 -81.5t148 -211.5q-58 -73 -111 -73 q-27 0 -62 46q-47 64 -71 85q-57 46 -138 46q-65 0 -126 -48.5t-61 -113.5q0 -85 156 -186q118 -63 234 -126q131 -72 192 -147q77 -96 77 -227q0 -171 -116 -283.5t-287 -112.5q-168 0 -299 93t-184 253q-5 16 -5 29z" />
<glyph unicode="T" horiz-adv-x="1085" d="M24 1323q0 78 882 78q159 -2 159 -102q0 -39 -26.5 -65t-65.5 -26h1h-366v-792q6 -187 6 -406q-68 -44 -116 -44q-68 0 -68 104v24q2 17 2 25v239q-9 268 -9 850q-104 -3 -150 -3q-89 0 -203 12q-46 61 -46 106z" />
<glyph unicode="U" horiz-adv-x="1056" d="M60 698q0 126 13 324q21 272 23 323q63 46 112 46q58 0 58 -65q0 -107 -8.5 -320.5t-8.5 -321.5q0 -522 225 -522q326 0 326 789q0 59 -3 177t-3 178q0 41 25.5 67t66.5 26q73 0 99 -83q13 -41 13 -144q4 -68 4 -143q0 -1061 -522 -1061q-420 0 -420 730z" />
<glyph unicode="V" horiz-adv-x="993" d="M31 1312q65 79 116 79q34 0 54 -44q33 -67 60 -181l44 -186q98 -378 195 -645q29 112 91 320q47 161 126 451q24 92 42 184q21 109 98 109q41 0 72.5 -30.5t31.5 -71.5q0 -5 -4 -17q-25 -111 -80 -333q-65 -225 -189 -676q-36 -134 -58 -186q-53 -119 -132 -119 q-51 0 -83 53q-17 24 -43 95q-34 93 -99 280q-107 338 -242 918z" />
<glyph unicode="W" horiz-adv-x="1531" d="M44 1306q62 87 111 87q38 0 67 -64q8 -17 34 -97q128 -403 218 -807q105 422 142 710q5 51 12 101q9 59 26 99q27 64 82 64q105 0 151 -211q72 -328 216 -785q39 194 119 582q20 80 53 240q14 89 24 113q25 61 85 61q39 0 68 -27t29 -66q0 -127 -254 -1202 q-32 -138 -111 -138q-85 0 -131 160q-9 34 -28 101q-68 217 -192 655q-96 -508 -192 -802q-5 -17 -20 -48q-46 -68 -102 -68q-53 0 -82 60q-17 34 -50 220q-66 374 -275 1062z" />
<glyph unicode="X" horiz-adv-x="1070" d="M58 1316q56 83 109 83q43 0 101 -114q111 -217 271 -468q67 111 190 340q29 68 100 195q33 42 72 42q38 0 66 -28t28 -66q0 -61 -343 -653q357 -539 357 -591q0 -37 -29 -63.5t-67 -26.5q-55 0 -107 80q-36 65 -72 128q-15 26 -191 290q-139 -228 -306 -498h-27 q-36 0 -75 17q-46 22 -46 53t346 599q-99 157 -210 348q-63 109 -92 162q-48 92 -75 171z" />
<glyph unicode="Y" horiz-adv-x="1063" d="M26 1290q47 106 102 106q34 0 94 -87q36 -60 290 -447q84 102 239 316q32 54 65 111q44 73 75 95q22 15 48 15q39 0 69 -28t30 -67q0 -60 -188 -326q-29 -39 -246 -333q9 -254 9 -452q0 -94 -11 -183q-56 -44 -105 -44q-77 0 -77 176q0 34 1.5 101.5t1.5 101.5v295 q-201 273 -397 650z" />
<glyph unicode="Z" horiz-adv-x="1060" d="M51 55q0 39 101 182q232 331 326 473q176 268 292 491q-43 -1 -377 -1q-103 0 -243 -9q-53 75 -53 125q0 82 169 82q24 0 73.5 -2t73.5 -2q84 0 251 2.5t251 2.5q39 0 65.5 -25.5t26.5 -64.5q0 -68 -123 -295q-217 -401 -573 -866q378 7 604 7q37 0 63.5 -25.5 t26.5 -62.5q0 -69 -70 -89q-34 -9 -126 -9q-44 0 -134.5 -1.5t-135.5 -1.5q-66 0 -197.5 1.5t-198.5 1.5q-92 0 -92 86z" />
<glyph unicode="[" horiz-adv-x="853" d="M207 1287q3 78 75 99q30 8 136 8q24 0 71 2.5t71 2.5q155 0 155 -104q0 -64 -61 -80q-23 -7 -255 -7v-720v-329q98 7 180 7q143 0 143 -99q0 -103 -184 -103q-176 0 -236 17q-65 19 -84 74q-11 32 -11 1232z" />
<glyph unicode="\" horiz-adv-x="671" d="M38 1311q0 39 29.5 63.5t69.5 24.5q85 0 136 -165q85 -280 258 -838q29 -85 58 -169q39 -116 39 -167q0 -40 -28 -67t-68 -27q-56 0 -92.5 59t-62.5 161q-22 84 -42 169l-94 311q-64 186 -183 558q-20 68 -20 87z" />
<glyph unicode="]" horiz-adv-x="858" d="M128 1300q0 99 305 99q113 0 159 -30q57 -40 57 -149q0 -189 -3 -569.5t-3 -570.5q0 -77 -73 -99q-60 -19 -246 -19t-186 110q0 65 62 80q22 7 256 7q-2 83 -2 80v775q0 109 3 193q-92 -6 -181 -6q-148 0 -148 99z" />
<glyph unicode="^" horiz-adv-x="901" d="M119 1096q0 54 98 162q90 101 150 124q41 17 72 17q73 0 202.5 -113.5t129.5 -182.5q0 -40 -29.5 -70.5t-69.5 -30.5q-30 0 -135 101.5t-102 101.5q2 0 -182 -183q-134 0 -134 74z" />
<glyph unicode="_" horiz-adv-x="1417" d="M212 34h989v-160h-989v160z" />
<glyph unicode="`" horiz-adv-x="536" d="M82 1734q0 39 31.5 65.5t70.5 26.5q55 0 153 -109t98 -161q0 -40 -30.5 -68.5t-71.5 -28.5t-82 43q-36 37 -96 116q-73 94 -73 116z" />
<glyph unicode="a" horiz-adv-x="905" d="M46 393q0 182 139 321t322 139q80 0 153 -29q29 40 76 40q100 0 100 -178q0 -75 -6 -222.5t-6 -222.5q0 -93 14 -185q-65 -76 -114 -76q-33 0 -57 66q-123 -80 -256 -80q-172 0 -273 130q-92 119 -92 297zM249 382q0 -82 38 -141q42 -72 119 -72q120 0 232 109 q4 109 4 326q1 0 -65 31q-41 17 -74 17q-102 0 -178 -83t-76 -187z" />
<glyph unicode="b" horiz-adv-x="872" d="M68 113q0 189 5.5 565.5t5.5 565.5q0 155 100 155q99 0 99 -153v-435q68 39 164 39q181 0 300 -140q115 -133 115 -317q0 -175 -120.5 -301t-292.5 -126q-109 0 -203 61q-55 -42 -101 -42q-72 0 -72 128zM259 305q43 -73 74 -98q48 -41 116 -41q5 0 19 3q191 44 191 230 q0 101 -57 176q-63 82 -160 82q-101 0 -183 -78v-274z" />
<glyph unicode="c" horiz-adv-x="835" d="M44 358q0 145 84.5 270.5t217.5 187.5q82 37 156 37q92 0 159.5 -64.5t84.5 -157.5q-55 -83 -106 -83q-32 0 -68 54.5t-67 54.5q-87 0 -172.5 -93t-85.5 -182q0 -213 157 -213q64 0 163 74t126 74q41 0 71 -30.5t30 -71.5q0 -22 -16 -48q-53 -85 -162 -143t-212 -58 q-157 0 -261 119q-99 113 -99 273z" />
<glyph unicode="d" horiz-adv-x="829" d="M15 393q0 175 115 315q121 147 293 147q67 0 132 -27v186q0 49 -5.5 147.5t-5.5 147.5q0 90 89 90q72 0 94 -78q10 -36 10 -137q4 -288 4 -576q3 -345 25 -577q-66 -53 -114 -53q-34 0 -53 42q-92 -54 -196 -54q-169 0 -280 131q-108 125 -108 296zM215 399 q0 -94 48 -162q53 -77 141 -77q98 0 166 69q-10 129 -10 365q-70 63 -138 63q-86 0 -149 -89q-58 -80 -58 -169z" />
<glyph unicode="e" horiz-adv-x="884" d="M46 396q0 171 120 312q126 147 293 147q126 0 231 -120.5t105 -248.5q0 -66 -82 -92q-90 -27 -338 -27q-58 0 -126 3q14 -85 76 -144t148 -59q58 0 149 53t119 53q39 0 69.5 -27.5t30.5 -66.5q0 -29 -25 -63q-50 -65 -156 -109q-99 -41 -187 -41q-173 0 -300 129 t-127 301zM302 550q58 1 270 20q-48 87 -118 87q-77 0 -152 -107z" />
<glyph unicode="f" horiz-adv-x="799" d="M31 638q0 69 111 69q1 257 58 409q104 283 310 283q121 0 195.5 -87t74.5 -209q0 -115 -99 -115q-61 0 -84 55q-12 51 -22 102q-15 55 -56 55q-101 0 -149 -203q-30 -132 -30 -278q102 5 196 5q116 0 116 -93q0 -100 -184 -100q-21 0 -63.5 2.5t-63.5 2.5 q21 -172 48 -517q-75 -53 -123 -53q-73 0 -73 152q-5 27 -9 82q-17 111 -37 331l-68 -2q-48 67 -48 109z" />
<glyph unicode="g" horiz-adv-x="864" d="M44 418q0 176 111 302q118 133 290 133q94 0 176 -46q46 26 86 26q56 0 71 -74q5 -25 5 -117q0 -63 10.5 -188.5t10.5 -188.5q0 -690 -364 -690q-95 0 -190.5 60.5t-136.5 146.5q-12 25 -12 49q0 39 30.5 66.5t71.5 27.5t107.5 -73.5t126.5 -73.5q116 0 150 217 q-72 -29 -142 -29q-170 0 -288 143q-113 135 -113 309zM242 423q0 -94 58 -172q65 -85 156 -85q39 0 150 63q-2 99 -22 372q-60 59 -133 59q-89 0 -149 -73t-60 -164z" />
<glyph unicode="h" horiz-adv-x="876" d="M65 1307q0 40 25.5 66t64.5 26q81 0 103 -97q7 -34 7 -159v-373q124 102 264 102q195 0 271 -167q55 -116 55 -336q0 -219 -32 -320q-28 -83 -99 -83q-41 0 -67.5 26.5t-26.5 67.5q0 63 13.5 188.5t13.5 188.5q0 242 -138 242q-142 0 -220 -216q-16 -41 -17 -59v-133 q-2 -133 -14 -261q-61 -44 -108 -44q-34 0 -54 49q-17 40 -17 81v158q1 108 1 161v686q-25 198 -25 206z" />
<glyph unicode="i" horiz-adv-x="345" d="M63 55v169q9 119 9 392q0 220 109 220q87 0 87 -90q5 -29 5 -66q0 -52 -10 -120q-5 -137 -7 -185q-3 -179 -5 -191q-4 -109 -19 -191q-60 -27 -95 -27q-74 0 -74 89zM68 1038q0 42 27.5 74.5t70.5 32.5q46 0 80 -30.5t34 -76.5q0 -43 -29 -76.5t-72 -33.5 q-44 0 -77.5 33.5t-33.5 76.5z" />
<glyph unicode="j" horiz-adv-x="672" d="M7 -67q65 47 114 47q41 0 56 -41q9 -40 18 -77q27 -123 81 -123q144 0 144 420q0 90 -7 270t-7 271q0 135 101 135q94 0 94 -120q0 -85 7.5 -253t7.5 -254q-12 -235 -58 -406q-87 -249 -275 -249q-135 0 -211 128q-65 107 -65 252zM389 1046q0 41 29 69t70 28 q48 0 82 -30.5t34 -78.5q0 -41 -32.5 -70.5t-74.5 -29.5q-46 0 -77 33t-31 79z" />
<glyph unicode="k" horiz-adv-x="836" d="M68 58q0 84 5.5 251t5.5 647q0 59 -3 176t-3 177q0 39 26.5 64.5t66.5 25.5q95 0 95 -146q0 -74 2.5 -220.5t2.5 -220.5v-286q50 37 157 112q84 60 263 212q41 -3 82 -24q53 -24 53 -56q0 -81 -300 -292q302 -365 302 -425q0 -38 -30 -62.5t-68 -24.5q-47 0 -100 66 l-72 106q-75 109 -176 239q-34 -24 -118 -85q-3 -171 -22 -297q-60 -29 -95 -29q-74 0 -74 92z" />
<glyph unicode="l" horiz-adv-x="331" d="M60 1287q0 112 92 112q101 0 101 -167q0 -20 -2 -52.5t-2 -44.5q0 -138 10.5 -414t10.5 -414q0 -157 -16 -295q-63 -46 -109 -46q-70 0 -70 128v61q2 43 2 63q0 178 -8.5 534.5t-8.5 534.5z" />
<glyph unicode="m" horiz-adv-x="1174" d="M68 80q0 -3 0 340q5 126 5 380q72 45 118 45q34 0 51 -29q70 42 147 42q133 0 213 -99q91 94 210 94q297 0 297 -437q0 -59 -7.5 -178t-7.5 -178q0 -40 -27.5 -67t-66.5 -27q-99 0 -99 155q0 58 7 176t7 177q0 190 -104 190q-86 0 -133 -109q8 -62 8 -133 q0 -60 -8.5 -178.5t-8.5 -178.5q0 -39 -27.5 -66.5t-66.5 -27.5q-99 0 -99 155q0 58 8 175t8 177q0 191 -105 191q-78 0 -128 -99v-459q-1 -145 -99 -145q-92 0 -92 114z" />
<glyph unicode="n" horiz-adv-x="823" d="M67 80v340q3 126 3 380q72 45 116 45q41 0 56 -41q89 54 190 54q176 0 261 -136q70 -111 70 -299q0 -59 -9.5 -178.5t-9.5 -179.5q0 -39 -27.5 -68t-66.5 -29q-99 0 -99 157q0 51 8 150.5t8 151.5q0 242 -140 242q-110 0 -171 -106v-447q0 -150 -97 -150q-92 0 -92 114z " />
<glyph unicode="o" horiz-adv-x="829" d="M49 377q0 188 93 326q104 159 283 159q167 0 266 -140q87 -123 87 -299q0 -184 -90 -312q-101 -145 -278 -145q-168 0 -268 124q-93 117 -93 287zM239 391q0 -232 177 -232q86 0 132 94q37 75 37 170q0 86 -37 157q-46 89 -125 89q-184 0 -184 -278z" />
<glyph unicode="p" horiz-adv-x="823" d="M65 761q0 39 26.5 65.5t65.5 26.5q55 0 84 -42q66 36 153 36q173 0 295 -147q115 -140 115 -316q0 -167 -101 -288q-107 -130 -271 -130q-74 0 -150 32l1 -103v1q0 -120 -15 -219q-44 -54 -91 -54q-87 0 -87 167q0 24 2 72.5t2 72.5q0 138 -14.5 413t-14.5 413zM268 577 q8 -179 8 -352q84 -63 156 -63q78 0 129 74q47 66 47 148q0 99 -58 181q-64 92 -159 92q-79 0 -123 -80z" />
<glyph unicode="q" horiz-adv-x="802" d="M17 370q0 174 114 326q125 162 294 162q72 0 138 -37q24 44 77 44q94 0 94 -121v-377v-688q-84 -46 -130 -46q-58 0 -58 65v295q-61 -27 -130 -27q-165 0 -282 119.5t-117 284.5zM213 364q0 -88 62.5 -149t149.5 -61q70 0 128 59v369q-53 82 -123 82q-87 0 -155 -109 q-62 -99 -62 -191z" />
<glyph unicode="r" horiz-adv-x="778" d="M68 662q0 188 99 188q79 0 91 -82q102 80 210 80q148 0 228 -123q70 -105 70 -262q0 -41 -25.5 -67.5t-66.5 -26.5q-72 0 -95 75q-12 68 -26 138q-19 75 -79 75q-76 0 -149.5 -72.5t-73.5 -149.5v-425q-68 -44 -116 -44q-63 0 -63 92q0 32 -2 94.5t-2 509.5z" />
<glyph unicode="s" horiz-adv-x="770" d="M43 154q8 37 29 76q29 52 58 52q3 0 104 -66t179 -66q99 0 123 50q-7 68 -128 136q-108 62 -217 121q-116 79 -116 174q0 101 101 166q90 58 196 58q68 0 154 -38q102 -44 102 -102q0 -39 -29 -70t-68 -31q-28 0 -75.5 21.5t-74.5 21.5q-74 0 -103 -26q48 -52 176 -112 q138 -63 186 -108q87 -78 87 -208q0 -111 -102 -179q-89 -58 -207 -58q-227 0 -375 188z" />
<glyph unicode="t" horiz-adv-x="689" d="M14 790q0 79 157 79q13 0 38 -2t35 -2v364q0 37 26.5 63t64.5 26q37 0 64.5 -26t27.5 -63v-359q65 2 157 2q39 0 66.5 -25.5t27.5 -64.5q0 -79 -94 -98q-43 -10 -156 -10v-662q-87 -46 -128 -46q-59 0 -59 65q0 46 1.5 136.5t1.5 508.5q-123 0 -195 12q-35 63 -35 102z " />
<glyph unicode="u" horiz-adv-x="872" d="M56 635q0 225 113 225q43 0 72.5 -27t29.5 -70q0 -39 -6 -119.5t-6 -119.5q0 -364 154 -364q80 0 138 87q50 74 58 163q5 47 5 199q0 125 16 200q58 34 102 34q68 0 68 -119q0 -26 -1 -79v-363q0 -38 1.5 -113t1.5 -113q0 -39 -25.5 -64.5t-64.5 -25.5q-79 0 -94 82 q-94 -82 -207 -82q-355 0 -355 669z" />
<glyph unicode="v" horiz-adv-x="806" d="M31 773q63 77 112 77q34 0 57 -41q5 -10 78 -191q45 -104 133 -313q103 280 150 443q36 122 110 122q37 0 67 -25.5t30 -62.5q0 -17 -2 -26q-87 -401 -266 -730q-32 -60 -89 -60q-82 0 -145 176q-87 208 -235 631z" />
<glyph unicode="w" horiz-adv-x="1096" d="M49 794q64 54 110 54q61 0 111 -193q18 -100 68 -300l99 369q39 145 116 145q46 0 80 -44.5t123 -414.5q24 75 67 225q17 72 34 145q32 89 97 89q38 0 66 -26t28 -63q0 -46 -99 -386.5t-123 -371.5q-34 -46 -82 -46q-60 0 -87 70q-7 17 -27.5 118.5t-73.5 289.5 q-29 -113 -88 -336q-41 -152 -130 -152q-53 0 -87 54q-48 77 -120 374q-63 256 -82 400z" />
<glyph unicode="x" horiz-adv-x="838" d="M58 720q9 41 29 77q27 50 60 50q49 0 259 -284q53 72 150 208q62 87 118 87q39 0 69 -26t30 -66q0 -46 -246 -375q89 -126 173 -222q61 -70 61 -108q0 -37 -27 -66t-65 -29q-72 0 -258 268q-59 -82 -182 -243q-46 -17 -81 -17q-37 0 -62.5 26.5t-25.5 64.5q0 29 25 68 q12 17 207 275q-121 172 -234 312z" />
<glyph unicode="y" horiz-adv-x="874" d="M49 768q57 84 108 84q43 0 84 -84q3 -5 49 -121l159 -360q94 193 152 339q22 65 82 185q30 42 73 42q39 0 70 -26.5t31 -65.5q0 -10 -4 -20q-29 -81 -99 -238t-155 -332q-164 -333 -304 -550h-27q-38 0 -75 17q-48 21 -48 53q0 21 190 370q-70 173 -216 514 q-29 63 -70 193z" />
<glyph unicode="z" horiz-adv-x="848" d="M61 53q0 60 69 145l112 126q86 113 255 338q-301 0 -367 9q-46 63 -46 109q0 51 70 68q27 7 111 9q59 1 273 1q25 0 76 -1h77q38 0 65 -29t27 -67q0 -31 -82 -140q-32 -41 -97 -124q-85 -116 -266 -342q193 7 305 7q135 0 135 -99q0 -97 -148 -97q-22 0 -65.5 1.5 t-66.5 1.5q-51 0 -153.5 -1.5t-153.5 -1.5q-130 0 -130 87z" />
<glyph unicode="{" horiz-adv-x="1033" d="M90 654q0 65 70 94q77 30 231 30q-5 9 -84 86q-112 111 -112 223q0 154 199 242q157 70 335 70q36 0 61.5 -23.5t25.5 -59.5q0 -67 -87 -94q-89 -19 -179 -36q-111 -25 -149 -78q-12 -17 -12 -28q0 -32 120 -136q90 -79 90 -179q0 -28 -3 -45q49 -46 49 -111 q0 -95 -112.5 -210.5t-112.5 -164.5q0 -65 150 -65q39 0 113.5 16t110.5 16q39 0 67 -29.5t28 -70.5q0 -58 -61 -89q-91 -46 -265 -46q-140 0 -235 65q-110 75 -110 208q0 90 67 183q65 76 130 151q-21 -3 -62 -12q-68 -11 -170 -11q-41 0 -67 31.5t-26 72.5z" />
<glyph unicode="|" horiz-adv-x="606" d="M184 1256q0 143 99 143q75 0 98 -75q8 -32 8 -134q0 -134 2.5 -400t2.5 -397v-328q0 -43 -29 -71t-71 -28q-43 0 -72 28t-29 71v966q-4 24 -4 112q-5 70 -5 113z" />
<glyph unicode="}" horiz-adv-x="1031" d="M138 1265q0 56 63 87q99 47 265 47q140 0 235 -64q110 -75 110 -209q0 -92 -67 -184l-130 -154l60 11q70 12 173 12q40 0 65 -31t25 -72q0 -65 -68 -94q-75 -32 -231 -32q7 -10 84 -82q113 -106 113 -220q0 -154 -200 -242q-159 -72 -335 -72q-35 0 -61 24.5t-26 60.5 q0 65 75 91l202 44q148 39 148 101q0 27 -54 75q-79 71 -99 97q-55 68 -55 140q0 26 3 43q-49 44 -49 109q0 96 112.5 212t112.5 167q0 65 -150 65q-39 0 -113.5 -15.5t-109.5 -15.5q-40 0 -69 30t-29 71z" />
<glyph unicode="~" horiz-adv-x="1048" d="M159 1167q0 19 12 46q34 77 102 128.5t150 51.5q80 0 150 -50.5t65 -50.5q26 0 71 53.5t91 53.5q40 0 68 -27t28 -66q0 -81 -94 -151q-87 -64 -171 -64q-71 0 -129 55t-79 55q-32 0 -75.5 -64t-91.5 -64q-39 0 -68 27.5t-29 66.5z" />
<glyph unicode="&#xa1;" horiz-adv-x="544" d="M140 988q0 43 35 84t76 41q43 0 78 -39.5t35 -83.5q0 -43 -28 -84q-29 -46 -70 -46q-42 0 -84 42.5t-42 85.5zM159 440q0 45 1.5 132t1.5 131q0 109 67 109q44 0 109 -44v-674q24 -290 24 -311q2 -39 -24.5 -63.5t-66.5 -24.5q-75 0 -95 85q-7 25 -7 145q-10 208 -10 515 z" />
<glyph unicode="&#xa2;" horiz-adv-x="857" d="M89 787q0 135 71 251q77 124 198 163v38q0 160 98 160q68 0 83 -66q5 -22 5 -120q105 -18 172 -84.5t74 -171.5q-65 -52 -109 -52q-32 0 -63 49q-36 56 -75 68q0 -333 -2 -404q68 19 94 19q37 0 63 -29t26 -69q0 -100 -193 -124q-7 -80 -19 -149q-60 -25 -101 -25 q-70 0 -70 94q0 18 4 47q3 36 3 46q-119 36 -189 135t-70 224zM300 770q0 -87 57 -127q1 55 1 81v261q-51 -40 -51 -87q0 -22 -3.5 -64t-3.5 -64z" />
<glyph unicode="&#xa5;" horiz-adv-x="1237" d="M116 1316q0 36 27.5 59.5t63.5 23.5q49 0 107 -85q39 -63 77 -128q72 -118 222 -351q126 175 148 209q82 120 137 217q75 137 135 137q39 0 69 -28.5t30 -67.5q0 -87 -180 -334q-126 -164 -251 -326l2 -38q58 4 92 4q157 0 157 -103q0 -72 -95 -90q-43 -9 -152 -9 q2 -31 3 -95q74 1 70 1q176 0 176 -105q0 -40 -27.5 -65.5t-66.5 -25.5h-152q-1 -150 -94 -150q-92 0 -92 153q-109 -1 -97 -1q-60 0 -116 19q-75 27 -75 75q0 102 191 102q20 0 53.5 -1.5t40.5 -1.5v97q-86 -2 -89 -2q-210 0 -210 101q0 36 25 61.5t60 25.5q23 0 67 -2h68 q77 0 75 43q-286 396 -389 640q-10 24 -10 41z" />
<glyph unicode="&#xa6;" horiz-adv-x="613" d="M195 1256q0 143 99 143q107 0 107 -155v-370q0 -43 -29 -71t-72 -28q-42 0 -71 28t-29 71q0 63 -2.5 191t-2.5 191zM198 543q0 143 99 143q107 0 107 -155v-466q-3 -43 -30.5 -71t-69.5 -28q-43 0 -72 28t-29 71q0 80 -2.5 239t-2.5 239z" />
<glyph unicode="&#xa8;" horiz-adv-x="915" d="M177 1591q0 49 45.5 97.5t93.5 48.5q99 0 99 -126q0 -55 -41 -86.5t-98 -31.5q-39 0 -69 29t-30 69zM512 1615q0 54 31.5 90t86.5 36q42 0 75.5 -31t33.5 -72q0 -53 -36.5 -93.5t-89.5 -40.5q-40 0 -70.5 35.5t-30.5 75.5z" />
<glyph unicode="&#xa9;" horiz-adv-x="1362" d="M155 408q0 206 128 346q133 147 337 147q215 0 399 -131q205 -144 205 -350q0 -210 -193 -340q-169 -114 -391 -114q-208 0 -343 116q-142 121 -142 326zM340 422q0 -123 87 -193q78 -65 204 -65q-93 10 -160 72.5t-67 154.5q0 107 88 177q81 67 191 67q59 0 114 -33 q65 -39 65 -93q0 -35 -26.5 -59.5t-60.5 -24.5q-16 0 -45 10t-44 10q-24 0 -51 -13q-34 -16 -34 -38q0 -13 23 -24.5t36 -11.5q16 0 47.5 23t58.5 23q40 0 70.5 -28t30.5 -67q0 -101 -148 -138q117 17 201 66q107 67 107 169q0 132 -151 224q-132 78 -274 78 q-119 0 -190.5 -82.5t-71.5 -203.5z" />
<glyph unicode="&#xab;" horiz-adv-x="1406" d="M106 749q0 31 24 67q36 54 194 211q168 168 202 168q35 0 61.5 -27.5t26.5 -63.5q0 -37 -71 -116q-51 -53 -103 -106q-37 -39 -87 -99q11 -6 115 -83q70 -46 199 -154q31 -32 31 -65q0 -41 -30 -70.5t-71 -29.5q-37 0 -128 66q-59 46 -121 94q-68 39 -198 128 q-44 34 -44 80zM637 749q0 31 23 67q38 54 193 211q168 168 202 168q36 0 63 -27.5t27 -63.5q0 -37 -72 -116l-102 -106q-43 -44 -89 -99q24 -15 116 -83q70 -46 198 -154q31 -32 31 -65q0 -41 -30 -70.5t-71 -29.5q-37 0 -126 66q-61 46 -121 94q-68 39 -198 128 q-44 34 -44 80z" />
<glyph unicode="&#xad;" d="M172 666q0 95 190 95q15 0 49 -2h48q33 0 95 6t95 6q42 0 69.5 -26t27.5 -69q0 -56 -86 -85q-61 -21 -133 -21q-44 0 -133 3.5t-133 3.5q-37 0 -63 25.5t-26 63.5z" />
<glyph unicode="&#xae;" horiz-adv-x="1504" d="M157 509q0 245 128 392q137 155 379 155q256 0 471 -160q232 -176 232 -423q0 -231 -217 -377q-193 -130 -433 -130q-237 0 -398.5 153.5t-161.5 389.5zM348 527q0 -165 103.5 -266t270.5 -101q89 0 183 33q-18 5 -156 87v-12q0 -38 -27 -62.5t-65 -24.5q-58 0 -89 56 q-42 77 -42 258q0 61 5 107q-38 0 -63.5 28.5t-25.5 65.5q0 62 97 98q75 29 149 29q109 0 189 -50q96 -58 96 -160q0 -106 -104 -173q158 -80 158 -152q0 -23 -8 -42q152 95 152 234q0 153 -191 276q-173 111 -337 111q-295 0 -295 -340zM708 577q70 10 70 29q0 24 -44 24 q2 0 -21 -2q-1 -17 -5 -51z" />
<glyph unicode="&#xaf;" horiz-adv-x="923" d="M171 1512q0 96 189 96q15 0 50 -2h47q33 0 95 6t95 6q42 0 69.5 -26.5t27.5 -69.5q0 -56 -85 -85q-62 -20 -133 -20q-45 0 -133.5 3t-133.5 3q-37 0 -62.5 26t-25.5 63z" />
<glyph unicode="&#xb0;" horiz-adv-x="876" d="M145 1111q0 118 88 203t206 85q116 0 198 -66q88 -73 88 -186q0 -121 -86 -200.5t-207 -79.5q-111 0 -195 65q-92 72 -92 179zM345 1118q0 -51 94 -51q35 0 61 24.5t26 58.5q0 46 -91 46q-32 0 -61 -23.5t-29 -54.5z" />
<glyph unicode="&#xb1;" horiz-adv-x="877" d="M99 672q0 65 92 94q67 21 149 19v191q0 39 26.5 66.5t65.5 27.5q107 0 107 -194q0 -23 -1.5 -58.5t-1.5 -46.5h29h61q45 2 63 2q38 0 63 -28t25 -67q0 -76 -91 -94q-41 -9 -150 -9v-186q0 -39 -25.5 -65.5t-65.5 -26.5q-107 0 -107 201v46q2 31 2 45q-26 2 -29 2 q-19 0 -58.5 -6t-57.5 -6q-40 0 -68 28t-28 65zM126 61q0 64 75 84q40 12 128 12h69q47 -2 68 -2q32 0 94.5 6t94.5 6q43 0 70.5 -26.5t27.5 -68.5q24 -57 -86 -86q-61 -20 -133 -20q-53 0 -159.5 3.5t-159.5 3.5q-38 0 -63.5 25.5t-25.5 62.5z" />
<glyph unicode="&#xb4;" horiz-adv-x="519" d="M90 1548q0 31 70 125q58 78 97.5 115.5t75.5 37.5q37 0 66 -27t29 -65q0 -50 -97 -162.5t-145 -112.5q-38 0 -67 25.5t-29 63.5z" />
<glyph unicode="&#xb6;" horiz-adv-x="1299" d="M79 739q0 329 325 512q268 148 627 148q145 0 145 -100q0 -92 -111 -92q-239 0 -434 -69q77 -8 77 -83q0 7 0 -413q43 18 99 39q9 181 9 363q0 147 99 147q94 0 94 -119v-324q29 -2 52.5 -32t23.5 -67q0 -76 -99 -110q-15 -169 -39 -505q0 -70 -20 -206q-22 -75 -87 -75 q-36 0 -60 24.5t-24 60.5q0 85 39 630q-59 -21 -111 -36q-5 -278 -8 -330q-12 -250 -43 -302q-24 -39 -68 -39q-41 0 -66.5 27.5t-25.5 68.5q0 58 7 152q10 119 12 150q5 87 5 234q-29 -4 -57 -4q-162 0 -261.5 95t-99.5 255zM276 732q0 -143 157 -143q33 0 69 5q1 39 1 386 q18 85 43 123q-270 -128 -270 -371z" />
<glyph unicode="&#xb7;" horiz-adv-x="553" d="M135 703q0 53 46 102.5t99 49.5q51 0 83.5 -42.5t32.5 -95.5q0 -50 -36.5 -85t-86.5 -35q-55 0 -92 26q-46 29 -46 80z" />
<glyph unicode="&#xbb;" horiz-adv-x="1329" d="M174 1094q0 41 31.5 71t72.5 30q38 0 126 -65q60 -48 120 -94q68 -41 198 -128q44 -34 44 -79q0 -30 -22 -68q-31 -49 -194 -211q-171 -169 -204 -169q-35 0 -61 29t-26 64q0 38 70 117q52 52 103 105t90 99q-51 33 -217 152q-131 94 -131 147zM635 1094q0 41 31.5 71 t72.5 30q38 0 126 -65q60 -48 120 -94q68 -41 198 -128q44 -34 44 -79q0 -30 -22 -68q-31 -49 -195 -211q-170 -169 -203 -169q-36 0 -61.5 29t-25.5 64q0 38 70 117q51 52 102.5 105t90.5 99q-51 33 -217 152q-131 94 -131 147z" />
<glyph unicode="&#xbf;" horiz-adv-x="940" d="M79 -90q0 95 119 250q10 14 220 258q120 137 120 190q0 3 -6 3t-20 -2.5t-26 -2.5q-100 5 -124 12q-70 20 -70 89q0 102 143 102q121 0 202 -43q99 -54 99 -165q0 -98 -120 -253q-14 -17 -225 -256q-121 -138 -121 -191q42 -36 134 -36q62 0 149 24q104 27 131 63l-6 -20 q54 71 116 71q59 0 59 -75q0 -112 -184 -187q-148 -60 -283 -60q-120 0 -205 53q-102 63 -102 176zM374 969q0 53 42.5 96.5t95.5 43.5q43 0 67.5 -33t24.5 -78q0 -44 -27 -90q-31 -53 -72 -53q-49 0 -90 32.5t-41 81.5z" />
<glyph unicode="&#xc0;" horiz-adv-x="1087" d="M41 26q0 29 63 220q70 213 231 653q39 105 112 313q12 48 48 131q26 38 47.5 47t67.5 9q41 0 68 -40q41 -64 75 -176q27 -94 53 -188q116 -384 193 -681q53 -205 53 -253q0 -39 -29 -67t-69 -28q-59 0 -87 70q-6 19 -25 119q-16 82 -60 249h-7q-77 0 -217 -15 q-150 -15 -216 -17q-48 -128 -139 -386q-52 -20 -88 -20q-74 0 -74 60zM198 1734q0 39 31.5 65.5t70.5 26.5q55 0 153 -109t98 -161q0 -40 -30.5 -68.5t-71.5 -28.5t-82 43q-36 37 -96 116q-73 94 -73 116zM413 573q106 11 318 24q-63 227 -142 463q-34 -96 -176 -487z" />
<glyph unicode="&#xc1;" horiz-adv-x="1101" d="M46 26q0 29 63 220q70 213 231 653q39 105 112 313q12 48 48 131q26 38 47.5 47t67.5 9q41 0 68 -40q41 -64 75 -176q27 -94 53 -188q116 -384 193 -681q53 -205 53 -253q0 -39 -29 -67t-69 -28q-59 0 -87 70q-6 19 -25 119q-16 82 -60 249h-7q-77 0 -217 -15 q-150 -15 -216 -17q-48 -128 -139 -386q-52 -20 -88 -20q-74 0 -74 60zM418 573q106 11 318 24q-63 227 -142 463q-34 -96 -176 -487zM467 1548q0 31 70 125q58 78 97.5 115.5t75.5 37.5q37 0 66 -27t29 -65q0 -50 -97 -162.5t-145 -112.5q-38 0 -67 25.5t-29 63.5z" />
<glyph unicode="&#xc2;" horiz-adv-x="1097" d="M41 26q0 29 63 220q70 213 231 653q39 105 112 313q12 48 48 131q26 38 47.5 47t67.5 9q41 0 68 -40q41 -64 75 -176q27 -94 53 -188q116 -384 193 -681q53 -205 53 -253q0 -39 -29 -67t-69 -28q-59 0 -87 70q-6 19 -25 119q-16 82 -60 249h-7q-77 0 -217 -15 q-150 -15 -216 -17q-48 -128 -139 -386q-52 -20 -88 -20q-74 0 -74 60zM235 1546q0 55 98 162q92 99 150 125q41 17 72 17q73 0 202.5 -113.5t129.5 -183.5q0 -39 -29.5 -70t-69.5 -31q-51 0 -126 82q-101 106 -114 116q-38 -24 -92 -83q-84 -91 -87 -94q-134 0 -134 73z M413 573q106 11 318 24q-63 227 -142 463q-34 -96 -176 -487z" />
<glyph unicode="&#xc3;" horiz-adv-x="1097" d="M41 26q0 29 63 220q70 213 231 653q39 105 112 313q12 48 48 131q26 38 47.5 47t67.5 9q41 0 68 -40q41 -64 75 -176q27 -94 53 -188q116 -384 193 -681q53 -205 53 -253q0 -39 -29 -67t-69 -28q-59 0 -87 70q-6 19 -25 119q-16 82 -60 249h-7q-77 0 -217 -15 q-150 -15 -216 -17q-48 -128 -139 -386q-52 -20 -88 -20q-74 0 -74 60zM208 1594q0 19 12 46q35 77 103 128t150 51q80 0 150 -50t65 -50q26 0 71 53.5t91 53.5q39 0 67.5 -27t28.5 -67q0 -80 -94 -150q-87 -65 -171 -65q-72 0 -130 55.5t-78 55.5q-32 0 -76 -64t-91 -64 q-40 0 -69 27.5t-29 66.5zM413 573q106 11 318 24q-63 227 -142 463q-34 -96 -176 -487z" />
<glyph unicode="&#xc4;" horiz-adv-x="1101" d="M46 26q0 29 63 220q70 213 231 653q39 105 112 313q12 48 48 131q26 38 47.5 47t67.5 9q41 0 68 -40q41 -64 75 -176q27 -94 53 -188q116 -384 193 -681q53 -205 53 -253q0 -39 -29 -67t-69 -28q-59 0 -87 70q-6 19 -25 119q-16 82 -60 249h-7q-77 0 -217 -15 q-150 -15 -216 -17q-48 -128 -139 -386q-52 -20 -88 -20q-74 0 -74 60zM332 1591q0 49 45.5 97.5t93.5 48.5q99 0 99 -126q0 -55 -41 -86.5t-98 -31.5q-39 0 -69 29t-30 69zM418 573q106 11 318 24q-63 227 -142 463q-34 -96 -176 -487zM667 1615q0 54 31.5 90t86.5 36 q42 0 75.5 -31t33.5 -72q0 -53 -36.5 -93.5t-89.5 -40.5q-40 0 -70.5 35.5t-30.5 75.5z" />
<glyph unicode="&#xc5;" horiz-adv-x="1101" d="M46 26q0 29 63 220q70 213 231 653q39 105 112 313q12 48 48 131q26 38 47.5 47t67.5 9q41 0 68 -40q41 -64 75 -176q27 -94 53 -188q116 -384 193 -681q53 -205 53 -253q0 -39 -29 -67t-69 -28q-59 0 -87 70q-6 19 -25 119q-16 82 -60 249h-7q-77 0 -217 -15 q-150 -15 -216 -17q-48 -128 -139 -386q-52 -20 -88 -20q-74 0 -74 60zM300 1618q0 97 72.5 168t169.5 71q96 0 166 -58t70 -152q0 -99 -71 -164.5t-171 -65.5q-91 0 -161 54q-75 58 -75 147zM418 573q106 11 318 24q-63 227 -142 463q-34 -96 -176 -487zM474 1625 q0 -34 68 -34q62 0 62 59q0 29 -65 29q-22 0 -43.5 -16t-21.5 -38z" />
<glyph unicode="&#xc6;" horiz-adv-x="1353" d="M31 49q0 47 273 658q131 293 213 573q17 58 33 79q25 34 76 34q41 0 125 3t398 3q136 0 136 -100q0 -77 -85 -96q-28 -5 -147 -5h-154q-119 -2 -153 -2q10 -192 10 -406h160q105 4 163 4q93 0 93 -91q0 -80 -100 -104q-48 -12 -164 -12q26 0 -152 0q-3 -142 -3 -430 q47 3 126 3q55 0 165.5 -1.5t165.5 -1.5q39 0 64.5 -25.5t25.5 -64.5q0 -101 -343 -101q-39 0 -116.5 1.5t-116.5 1.5q-166 0 -166 313q-87 -14 -259 -41q-24 -77 -89 -221q-34 -54 -87 -54q-36 0 -64 24t-28 59zM393 445q107 24 168 29v357q-58 -142 -168 -386z" />
<glyph unicode="&#xc8;" horiz-adv-x="920" d="M104 128q0 196 8 586t8 586q0 99 660 99q181 -1 181 -102q0 -37 -24.5 -63t-62.5 -26q-84 0 -249.5 3.5t-247.5 3.5q-80 0 -75.5 -82.5t4.5 -328.5h179q43 0 126.5 1.5t124.5 1.5q39 0 65.5 -24.5t26.5 -63.5q0 -105 -176 -105h-116q-77 2 -234 2v-466q253 10 519 10 q135 0 135 -97q0 -94 -123 -94q-92 0 -278 -1.5t-280 -1.5q-92 0 -131.5 35t-39.5 127zM271 1734q0 39 31.5 65.5t70.5 26.5q55 0 153 -109t98 -161q0 -40 -30.5 -68.5t-71.5 -28.5t-82 43q-36 37 -96 116q-73 94 -73 116z" />
<glyph unicode="&#xc9;" horiz-adv-x="918" d="M104 128q0 196 8 586t8 586q0 99 660 99q181 -1 181 -102q0 -37 -24.5 -63t-62.5 -26q-84 0 -249.5 3.5t-247.5 3.5q-80 0 -75.5 -82.5t4.5 -328.5h179q43 0 126.5 1.5t124.5 1.5q39 0 65.5 -24.5t26.5 -63.5q0 -105 -176 -105h-116q-77 2 -234 2v-466q253 10 519 10 q135 0 135 -97q0 -94 -123 -94q-92 0 -278 -1.5t-280 -1.5q-92 0 -131.5 35t-39.5 127zM450 1548q0 31 70 125q58 78 97.5 115.5t75.5 37.5q37 0 66 -27t29 -65q0 -50 -97 -162.5t-145 -112.5q-38 0 -67 25.5t-29 63.5z" />
<glyph unicode="&#xca;" d="M109 128q0 196 8 586t8 586q0 99 660 99q181 -1 181 -102q0 -37 -24.5 -63t-62.5 -26q-84 0 -249.5 3.5t-247.5 3.5q-80 0 -75.5 -82.5t4.5 -328.5h179q43 0 126.5 1.5t124.5 1.5q39 0 65.5 -24.5t26.5 -63.5q0 -105 -176 -105h-116q-77 2 -234 2v-466q253 10 519 10 q135 0 135 -97q0 -94 -123 -94q-92 0 -278 -1.5t-280 -1.5q-92 0 -131.5 35t-39.5 127zM262 1546q0 55 98 162q92 99 150 125q41 17 72 17q73 0 202.5 -113.5t129.5 -183.5q0 -39 -29.5 -70t-69.5 -31q-51 0 -126 82q-101 106 -114 116q-38 -24 -92 -83q-84 -91 -87 -94 q-134 0 -134 73z" />
<glyph unicode="&#xcb;" d="M109 128q0 196 8 586t8 586q0 99 660 99q181 -1 181 -102q0 -37 -24.5 -63t-62.5 -26q-84 0 -249.5 3.5t-247.5 3.5q-80 0 -75.5 -82.5t4.5 -328.5h179q43 0 126.5 1.5t124.5 1.5q39 0 65.5 -24.5t26.5 -63.5q0 -105 -176 -105h-116q-77 2 -234 2v-466q253 10 519 10 q135 0 135 -97q0 -94 -123 -94q-92 0 -278 -1.5t-280 -1.5q-92 0 -131.5 35t-39.5 127zM354 1591q0 49 45.5 97.5t93.5 48.5q99 0 99 -126q0 -55 -41 -86.5t-98 -31.5q-39 0 -69 29t-30 69zM689 1615q0 54 31.5 90t86.5 36q42 0 75.5 -31t33.5 -72q0 -53 -36.5 -93.5 t-89.5 -40.5q-40 0 -70.5 35.5t-30.5 75.5z" />
<glyph unicode="&#xcc;" horiz-adv-x="517" d="M-3 1319q0 70 79 70q7 0 20.5 -1.5t20.5 -1.5q43 0 126.5 6.5t126.5 6.5q88 0 88 -83q0 -99 -162 -99q7 -91 7 -444q3 -206 3 -619q152 -2 152 -101q0 -87 -297 -87q-46 0 -92 5q-46 63 -46 108q0 66 108 66q-6 130 -6 592q-3 65 -3 234q-7 161 -7 236q-36 3 -90 15 q-28 60 -28 97zM30 1734q0 39 31.5 65.5t70.5 26.5q55 0 153 -109t98 -161q0 -40 -30.5 -68.5t-71.5 -28.5t-82 43q-36 37 -96 116q-73 94 -73 116z" />
<glyph unicode="&#xcd;" horiz-adv-x="515" d="M-5 1319q0 70 79 70q7 0 20.5 -1.5t20.5 -1.5q43 0 126.5 6.5t126.5 6.5q88 0 88 -83q0 -99 -162 -99q7 -91 7 -444q3 -206 3 -619q152 -2 152 -101q0 -87 -297 -87q-46 0 -92 5q-46 63 -46 108q0 66 108 66q-6 130 -6 592q-3 65 -3 234q-7 161 -7 236q-36 3 -90 15 q-28 60 -28 97zM88 1548q0 31 70 125q58 78 97.5 115.5t75.5 37.5q37 0 66 -27t29 -65q0 -50 -97 -162.5t-145 -112.5q-38 0 -67 25.5t-29 63.5z" />
<glyph unicode="&#xce;" horiz-adv-x="725" d="M158 1546q0 55 98 162q92 99 150 125q41 17 72 17q73 0 202.5 -113.5t129.5 -183.5q0 -39 -29.5 -70t-69.5 -31q-51 0 -126 82q-101 106 -114 116q-38 -24 -92 -83q-84 -91 -87 -94q-134 0 -134 73zM191 1319q0 70 79 70q7 0 20.5 -1.5t20.5 -1.5q43 0 126.5 6.5 t126.5 6.5q88 0 88 -83q0 -99 -162 -99q7 -91 7 -444q3 -206 3 -619q152 -2 152 -101q0 -87 -297 -87q-46 0 -92 5q-46 63 -46 108q0 66 108 66q-6 130 -6 592q-3 65 -3 234q-7 161 -7 236q-36 3 -90 15q-28 60 -28 97z" />
<glyph unicode="&#xcf;" horiz-adv-x="669" d="M146 1319q0 70 79 70q7 0 20.5 -1.5t20.5 -1.5q43 0 126.5 6.5t126.5 6.5q88 0 88 -83q0 -99 -162 -99q7 -91 7 -444q3 -206 3 -619q152 -2 152 -101q0 -87 -297 -87q-46 0 -92 5q-46 63 -46 108q0 66 108 66q-6 130 -6 592q-3 65 -3 234q-7 161 -7 236q-36 3 -90 15 q-28 60 -28 97zM223 1591q0 49 45.5 97.5t93.5 48.5q99 0 99 -126q0 -55 -41 -86.5t-98 -31.5q-39 0 -69 29t-30 69zM558 1615q0 54 31.5 90t86.5 36q42 0 75.5 -31t33.5 -72q0 -53 -36.5 -93.5t-89.5 -40.5q-40 0 -70.5 35.5t-30.5 75.5z" />
<glyph unicode="&#xd1;" horiz-adv-x="1174" d="M70 1229q0 130 39 153q17 11 79 11q25 0 51 -23q90 -80 220 -297q38 -66 183 -334q82 -152 182 -348v420q0 85 -4 257.5t-4 257.5q0 24 41 48.5t66 24.5q45 0 62 -52q22 -69 22 -262v-1029q0 -90 -121 -90q-70 0 -137 147q-15 34 -46 104q-210 437 -442 812v-811 q0 -18 2.5 -54t2.5 -55q0 -143 -97 -143q-90 0 -90 828q1 73 -4 217t-5 218zM262 1594q0 19 12 46q35 77 103 128t150 51q80 0 150 -50t65 -50q26 0 71 53.5t91 53.5q39 0 67.5 -27t28.5 -67q0 -80 -94 -150q-87 -65 -171 -65q-72 0 -130 55.5t-78 55.5q-32 0 -76 -64 t-91 -64q-40 0 -69 27.5t-29 66.5z" />
<glyph unicode="&#xd2;" horiz-adv-x="1138" d="M9 592q0 287 117 519q143 288 401 288q249 0 389 -257q114 -212 114 -483q0 -268 -119 -463q-142 -230 -395 -230q-249 0 -387 194q-120 171 -120 432zM196 602q0 -445 346 -445q145 0 227 186q63 145 63 312q0 161 -46 299q-60 174 -176 230q-46 23 -70 23 q-53 0 -119 -35q-123 -63 -181 -250q-44 -142 -44 -320zM283 1737q0 39 31.5 65.5t70.5 26.5q55 0 153 -109t98 -161q0 -40 -30.5 -68.5t-71.5 -28.5t-82 43q-36 37 -96 116q-73 94 -73 116z" />
<glyph unicode="&#xd3;" horiz-adv-x="1138" d="M9 592q0 287 117 519q143 288 401 288q249 0 389 -257q114 -212 114 -483q0 -268 -119 -463q-142 -230 -395 -230q-249 0 -387 194q-120 171 -120 432zM196 602q0 -445 346 -445q145 0 227 186q63 145 63 312q0 161 -46 299q-60 174 -176 230q-46 23 -70 23 q-53 0 -119 -35q-123 -63 -181 -250q-44 -142 -44 -320zM442 1548q0 31 70 125q58 78 97.5 115.5t75.5 37.5q37 0 66 -27t29 -65q0 -50 -97 -162.5t-145 -112.5q-38 0 -67 25.5t-29 63.5z" />
<glyph unicode="&#xd4;" horiz-adv-x="1135" d="M6 592q0 287 117 519q143 288 401 288q249 0 389 -257q114 -212 114 -483q0 -268 -119 -463q-142 -230 -395 -230q-249 0 -387 194q-120 171 -120 432zM193 602q0 -445 346 -445q145 0 227 186q63 145 63 312q0 161 -46 299q-60 174 -176 230q-46 23 -70 23 q-53 0 -119 -35q-123 -63 -181 -250q-44 -142 -44 -320zM262 1546q0 55 98 162q92 99 150 125q41 17 72 17q73 0 202.5 -113.5t129.5 -183.5q0 -39 -29.5 -70t-69.5 -31q-51 0 -126 82q-101 106 -114 116q-38 -24 -92 -83q-84 -91 -87 -94q-134 0 -134 73z" />
<glyph unicode="&#xd5;" horiz-adv-x="1138" d="M9 592q0 287 117 519q143 288 401 288q249 0 389 -257q114 -212 114 -483q0 -268 -119 -463q-142 -230 -395 -230q-249 0 -387 194q-120 171 -120 432zM196 602q0 -445 346 -445q145 0 227 186q63 145 63 312q0 161 -46 299q-60 174 -176 230q-46 23 -70 23 q-53 0 -119 -35q-123 -63 -181 -250q-44 -142 -44 -320zM256 1594q0 19 12 46q35 77 103 128t150 51q80 0 150 -50t65 -50q26 0 71 53.5t91 53.5q39 0 67.5 -27t28.5 -67q0 -80 -94 -150q-87 -65 -171 -65q-72 0 -130 55.5t-78 55.5q-32 0 -76 -64t-91 -64q-40 0 -69 27.5 t-29 66.5z" />
<glyph unicode="&#xd6;" horiz-adv-x="1143" d="M14 592q0 287 117 519q143 288 401 288q249 0 389 -257q114 -212 114 -483q0 -268 -119 -463q-142 -230 -395 -230q-249 0 -387 194q-120 171 -120 432zM201 602q0 -445 346 -445q145 0 227 186q63 145 63 312q0 161 -46 299q-60 174 -176 230q-46 23 -70 23 q-53 0 -119 -35q-123 -63 -181 -250q-44 -142 -44 -320zM363 1591q0 49 45.5 97.5t93.5 48.5q99 0 99 -126q0 -55 -41 -86.5t-98 -31.5q-39 0 -69 29t-30 69zM698 1615q0 54 31.5 90t86.5 36q42 0 75.5 -31t33.5 -72q0 -53 -36.5 -93.5t-89.5 -40.5q-40 0 -70.5 35.5 t-30.5 75.5z" />
<glyph unicode="&#xd7;" horiz-adv-x="862" d="M130 884q0 39 29 70.5t68 31.5q44 0 176 -119q128 140 186 140q37 0 65.5 -29t28.5 -68q0 -43 -58 -99q-46 -41 -93 -81q125 -139 125 -186q0 -39 -30.5 -69t-71.5 -30q-55 0 -161 134q-87 -108 -133 -108q-36 0 -61.5 26.5t-25.5 62.5q0 37 99 150q-143 126 -143 174z " />
<glyph unicode="&#xd8;" horiz-adv-x="1120" d="M49 592q0 287 117 519q143 288 401 288q75 0 141 -25q22 12 51 12q45 0 73 -32.5t23 -76.5q106 -108 164 -289q51 -159 51 -329q0 -268 -119 -463q-142 -230 -395 -230q-64 0 -123 14q-27 -28 -69 -28q-45 0 -74 31t-22 73q-219 168 -219 536zM236 602q0 -223 93 -337 q81 249 238 747q15 61 47 186q-23 9 -34 9q-51 0 -116 -33q-126 -63 -184 -251q-44 -141 -44 -321zM512 162q32 -5 70 -5q145 0 227 186q63 145 63 312q0 227 -84 384q-116 -360 -276 -877z" />
<glyph unicode="&#xd9;" horiz-adv-x="1128" d="M41 698q0 126 13 324q21 272 23 323q63 46 112 46q58 0 58 -65q0 -107 -8.5 -320.5t-8.5 -321.5q0 -522 225 -522q326 0 326 789q0 59 -3 177t-3 178q0 41 25.5 67t66.5 26q73 0 99 -83q13 -41 13 -144q4 -68 4 -143q0 -1061 -522 -1061q-420 0 -420 730zM266 1734 q0 39 31.5 65.5t70.5 26.5q55 0 153 -109t98 -161q0 -40 -30.5 -68.5t-71.5 -28.5t-82 43q-36 37 -96 116q-73 94 -73 116z" />
<glyph unicode="&#xda;" horiz-adv-x="1130" d="M42 698q0 126 13 324q21 272 23 323q63 46 112 46q58 0 58 -65q0 -107 -8.5 -320.5t-8.5 -321.5q0 -522 225 -522q326 0 326 789q0 59 -3 177t-3 178q0 41 25.5 67t66.5 26q73 0 99 -83q13 -41 13 -144q4 -68 4 -143q0 -1061 -522 -1061q-420 0 -420 730zM447 1548 q0 31 70 125q58 78 97.5 115.5t75.5 37.5q37 0 66 -27t29 -65q0 -50 -97 -162.5t-145 -112.5q-38 0 -67 25.5t-29 63.5z" />
<glyph unicode="&#xdb;" horiz-adv-x="1130" d="M42 698q0 126 13 324q21 272 23 323q63 46 112 46q58 0 58 -65q0 -107 -8.5 -320.5t-8.5 -321.5q0 -522 225 -522q326 0 326 789q0 59 -3 177t-3 178q0 41 25.5 67t66.5 26q73 0 99 -83q13 -41 13 -144q4 -68 4 -143q0 -1061 -522 -1061q-420 0 -420 730zM254 1546 q0 55 98 162q92 99 150 125q41 17 72 17q73 0 202.5 -113.5t129.5 -183.5q0 -39 -29.5 -70t-69.5 -31q-51 0 -126 82q-101 106 -114 116q-38 -24 -92 -83q-84 -91 -87 -94q-134 0 -134 73z" />
<glyph unicode="&#xdc;" horiz-adv-x="1130" d="M42 698q0 126 13 324q21 272 23 323q63 46 112 46q58 0 58 -65q0 -107 -8.5 -320.5t-8.5 -321.5q0 -522 225 -522q326 0 326 789q0 59 -3 177t-3 178q0 41 25.5 67t66.5 26q73 0 99 -83q13 -41 13 -144q4 -68 4 -143q0 -1061 -522 -1061q-420 0 -420 730zM363 1591 q0 49 45.5 97.5t93.5 48.5q99 0 99 -126q0 -55 -41 -86.5t-98 -31.5q-39 0 -69 29t-30 69zM698 1615q0 54 31.5 90t86.5 36q42 0 75.5 -31t33.5 -72q0 -53 -36.5 -93.5t-89.5 -40.5q-40 0 -70.5 35.5t-30.5 75.5z" />
<glyph unicode="&#xdd;" horiz-adv-x="986" d="M35 1290q47 106 102 106q34 0 94 -87q36 -60 290 -447q84 102 239 316q32 54 65 111q44 73 75 95q22 15 48 15q39 0 69 -28t30 -67q0 -60 -188 -326q-29 -39 -246 -333q9 -254 9 -452q0 -94 -11 -183q-56 -44 -105 -44q-77 0 -77 176q0 34 1.5 101.5t1.5 101.5v295 q-201 273 -397 650zM406 1548q0 31 70 125q58 78 97.5 115.5t75.5 37.5q37 0 66 -27t29 -65q0 -50 -97 -162.5t-145 -112.5q-38 0 -67 25.5t-29 63.5z" />
<glyph unicode="&#xde;" horiz-adv-x="1242" d="M148 1075q0 43 115 74q0 128 5 153q17 97 92 97q87 0 87 -90q0 -82 -2 -145q299 -2 506 -121q252 -147 252 -423q0 -226 -210 -338q-167 -91 -413 -91q-77 0 -147 9q-1 -116 -1 -108q0 -126 -92 -126q-38 0 -63.5 24.5t-25.5 62.5q0 36 2 94q3 71 3 94q-72 29 -72 97 q0 77 72 94q2 353 2 536l-51 -5q-59 66 -59 112zM433 399q64 -6 130 -6q441 0 441 220q0 194 -197 288q-145 70 -367 70q-7 -287 -7 -572z" />
<glyph unicode="&#xdf;" horiz-adv-x="1205" d="M203 -234q0 29 10 181q17 253 17 399q0 149 -9 447t-9 446q0 160 133 160q252 0 455 -105q250 -130 250 -359q0 -148 -149 -237q241 -121 241 -326q0 -213 -212 -321q-165 -85 -401 -85q-78 0 -109 63q-9 -154 -33.5 -257t-96.5 -103q-87 0 -87 97zM401 959 q12 -63 12 -218q29 63 90 63q352 0 352 145q0 174 -352 241q-71 13 -102 13q0 17 0 -244zM420 657q5 -218 5 -387q0 -116 -2 -168q26 48 98 48q423 0 423 219q0 192 -394 233q-53 6 -74 12q-41 12 -56 43z" />
<glyph unicode="&#xe0;" horiz-adv-x="964" d="M33 393q0 182 139 321t322 139q80 0 153 -29q29 40 76 40q100 0 100 -178q0 -75 -6 -222.5t-6 -222.5q0 -93 14 -185q-65 -76 -114 -76q-33 0 -57 66q-123 -80 -256 -80q-172 0 -273 130q-92 119 -92 297zM222 1223q0 39 31.5 65.5t70.5 26.5q55 0 153 -109t98 -161 q0 -40 -30.5 -68.5t-71.5 -28.5t-82 43q-36 37 -96 116q-73 94 -73 116zM236 382q0 -82 38 -141q42 -72 119 -72q120 0 232 109q4 109 4 326q1 0 -65 31q-41 17 -74 17q-102 0 -178 -83t-76 -187z" />
<glyph unicode="&#xe1;" horiz-adv-x="937" d="M4 393q0 182 139 321t322 139q80 0 153 -29q29 40 76 40q100 0 100 -178q0 -75 -6 -222.5t-6 -222.5q0 -93 14 -185q-65 -76 -114 -76q-33 0 -57 66q-123 -80 -256 -80q-172 0 -273 130q-92 119 -92 297zM207 382q0 -82 38 -141q42 -72 119 -72q120 0 232 109 q4 109 4 326q1 0 -65 31q-41 17 -74 17q-102 0 -178 -83t-76 -187zM372 1037q0 31 70 125q58 78 97.5 115.5t75.5 37.5q37 0 66 -27t29 -65q0 -50 -97 -162.5t-145 -112.5q-38 0 -67 25.5t-29 63.5z" />
<glyph unicode="&#xe2;" horiz-adv-x="961" d="M25 393q0 182 139 321t322 139q80 0 153 -29q29 40 76 40q100 0 100 -178q0 -75 -6 -222.5t-6 -222.5q0 -93 14 -185q-65 -76 -114 -76q-33 0 -57 66q-123 -80 -256 -80q-172 0 -273 130q-92 119 -92 297zM182 1035q0 55 98 162q92 99 150 125q41 17 72 17 q73 0 202.5 -113.5t129.5 -183.5q0 -39 -29.5 -70t-69.5 -31q-51 0 -126 82q-101 106 -114 116q-38 -24 -92 -83q-84 -91 -87 -94q-134 0 -134 73zM228 382q0 -82 38 -141q42 -72 119 -72q120 0 232 109q4 109 4 326q1 0 -65 31q-41 17 -74 17q-102 0 -178 -83t-76 -187z " />
<glyph unicode="&#xe3;" horiz-adv-x="949" d="M25 393q0 182 139 321t322 139q80 0 153 -29q29 40 76 40q100 0 100 -178q0 -75 -6 -222.5t-6 -222.5q0 -93 14 -185q-65 -76 -114 -76q-33 0 -57 66q-123 -80 -256 -80q-172 0 -273 130q-92 119 -92 297zM172 1083q0 19 12 46q35 77 103 128t150 51q80 0 150 -50t65 -50 q26 0 71 53.5t91 53.5q39 0 67.5 -27t28.5 -67q0 -80 -94 -150q-87 -65 -171 -65q-72 0 -130 55.5t-78 55.5q-32 0 -76 -64t-91 -64q-40 0 -69 27.5t-29 66.5zM228 382q0 -82 38 -141q42 -72 119 -72q120 0 232 109q4 109 4 326q1 0 -65 31q-41 17 -74 17q-102 0 -178 -83 t-76 -187z" />
<glyph unicode="&#xe4;" horiz-adv-x="940" d="M4 393q0 182 139 321t322 139q80 0 153 -29q29 40 76 40q100 0 100 -178q0 -75 -6 -222.5t-6 -222.5q0 -93 14 -185q-65 -76 -114 -76q-33 0 -57 66q-123 -80 -256 -80q-172 0 -273 130q-92 119 -92 297zM207 382q0 -82 38 -141q42 -72 119 -72q120 0 232 109 q4 109 4 326q1 0 -65 31q-41 17 -74 17q-102 0 -178 -83t-76 -187zM254 1080q0 49 45.5 97.5t93.5 48.5q99 0 99 -126q0 -55 -41 -86.5t-98 -31.5q-39 0 -69 29t-30 69zM589 1104q0 54 31.5 90t86.5 36q42 0 75.5 -31t33.5 -72q0 -53 -36.5 -93.5t-89.5 -40.5 q-40 0 -70.5 35.5t-30.5 75.5z" />
<glyph unicode="&#xe5;" horiz-adv-x="939" d="M4 393q0 182 139 321t322 139q80 0 153 -29q29 40 76 40q100 0 100 -178q0 -75 -6 -222.5t-6 -222.5q0 -93 14 -185q-65 -76 -114 -76q-33 0 -57 66q-123 -80 -256 -80q-172 0 -273 130q-92 119 -92 297zM207 382q0 -82 38 -141q42 -72 119 -72q120 0 232 109 q4 109 4 326q1 0 -65 31q-41 17 -74 17q-102 0 -178 -83t-76 -187zM222 1107q0 97 72.5 168t169.5 71q96 0 166 -58t70 -152q0 -99 -71 -164.5t-171 -65.5q-91 0 -161 54q-75 58 -75 147zM396 1114q0 -34 68 -34q62 0 62 59q0 29 -65 29q-22 0 -43.5 -16t-21.5 -38z" />
<glyph unicode="&#xe6;" horiz-adv-x="1510" d="M56 387q0 183 138.5 320.5t320.5 137.5q82 0 156 -29q29 39 75 39q78 0 95 -97q110 90 234 90q126 0 231 -120t105 -248q0 -69 -82 -93q-92 -27 -317 -27q-82 0 -150 4q10 -86 76 -145t151 -59q60 0 152 55t116 55q39 0 69.5 -29t30.5 -69q0 -30 -25 -63 q-51 -65 -152.5 -107.5t-190.5 -42.5q-130 0 -242 82q-4 -34 -31.5 -58t-61.5 -24q-56 0 -80 77q-121 -77 -252 -77q-173 0 -274 131q-92 120 -92 297zM259 375q0 -81 38 -143q43 -72 119 -72q101 0 233 111q3 108 3 325q-7 3 -63 32q-34 17 -75 17q-104 0 -179.5 -82.5 t-75.5 -187.5zM918 544q77 4 270 19q-48 87 -118 87q-77 0 -152 -106z" />
<glyph unicode="&#xe8;" horiz-adv-x="831" d="M-14 396q0 171 120 312q126 147 293 147q126 0 231 -120.5t105 -248.5q0 -66 -82 -92q-90 -27 -338 -27q-58 0 -126 3q14 -85 76 -144t148 -59q58 0 149 53t119 53q39 0 69.5 -27.5t30.5 -66.5q0 -29 -25 -63q-50 -65 -156 -109q-99 -41 -187 -41q-173 0 -300 129 t-127 301zM140 1223q0 39 31.5 65.5t70.5 26.5q55 0 153 -109t98 -161q0 -40 -30.5 -68.5t-71.5 -28.5t-82 43q-36 37 -96 116q-73 94 -73 116zM242 550q58 1 270 20q-48 87 -118 87q-77 0 -152 -107z" />
<glyph unicode="&#xe9;" horiz-adv-x="838" d="M-13 396q0 171 120 312q126 147 293 147q126 0 231 -120.5t105 -248.5q0 -66 -82 -92q-90 -27 -338 -27q-58 0 -126 3q14 -85 76 -144t148 -59q58 0 149 53t119 53q39 0 69.5 -27.5t30.5 -66.5q0 -29 -25 -63q-50 -65 -156 -109q-99 -41 -187 -41q-173 0 -300 129 t-127 301zM243 550q58 1 270 20q-48 87 -118 87q-77 0 -152 -107zM337 1037q0 31 70 125q58 78 97.5 115.5t75.5 37.5q37 0 66 -27t29 -65q0 -50 -97 -162.5t-145 -112.5q-38 0 -67 25.5t-29 63.5z" />
<glyph unicode="&#xea;" horiz-adv-x="836" d="M-13 396q0 171 120 312q126 147 293 147q126 0 231 -120.5t105 -248.5q0 -66 -82 -92q-90 -27 -338 -27q-58 0 -126 3q14 -85 76 -144t148 -59q58 0 149 53t119 53q39 0 69.5 -27.5t30.5 -66.5q0 -29 -25 -63q-50 -65 -156 -109q-99 -41 -187 -41q-173 0 -300 129 t-127 301zM128 1035q0 55 98 162q92 99 150 125q41 17 72 17q73 0 202.5 -113.5t129.5 -183.5q0 -39 -29.5 -70t-69.5 -31q-51 0 -126 82q-101 106 -114 116q-38 -24 -92 -83q-84 -91 -87 -94q-134 0 -134 73zM243 550q58 1 270 20q-48 87 -118 87q-77 0 -152 -107z" />
<glyph unicode="&#xeb;" horiz-adv-x="836" d="M-8 396q0 171 120 312q126 147 293 147q126 0 231 -120.5t105 -248.5q0 -66 -82 -92q-90 -27 -338 -27q-58 0 -126 3q14 -85 76 -144t148 -59q58 0 149 53t119 53q39 0 69.5 -27.5t30.5 -66.5q0 -29 -25 -63q-50 -65 -156 -109q-99 -41 -187 -41q-173 0 -300 129 t-127 301zM242 1080q0 49 45.5 97.5t93.5 48.5q99 0 99 -126q0 -55 -41 -86.5t-98 -31.5q-39 0 -69 29t-30 69zM248 550q58 1 270 20q-48 87 -118 87q-77 0 -152 -107zM577 1104q0 54 31.5 90t86.5 36q42 0 75.5 -31t33.5 -72q0 -53 -36.5 -93.5t-89.5 -40.5 q-40 0 -70.5 35.5t-30.5 75.5z" />
<glyph unicode="&#xec;" horiz-adv-x="573" d="M126 1223q0 39 31.5 65.5t70.5 26.5q55 0 153 -109t98 -161q0 -40 -30.5 -68.5t-71.5 -28.5t-82 43q-36 37 -96 116q-73 94 -73 116zM345 55v169q8 119 8 392q0 220 110 220q87 0 87 -90v-186q-11 -137 -12 -185q-4 -179 -5 -191q-4 -109 -19 -191q-60 -27 -96 -27 q-73 0 -73 89z" />
<glyph unicode="&#xed;" horiz-adv-x="399" d="M35 1037q0 31 70 125q58 78 97.5 115.5t75.5 37.5q37 0 66 -27t29 -65q0 -50 -97 -162.5t-145 -112.5q-38 0 -67 25.5t-29 63.5zM126 55v169q8 119 8 392q0 220 110 220q87 0 87 -90v-186q-11 -137 -12 -185q-4 -179 -5 -191q-4 -109 -19 -191q-60 -27 -96 -27 q-73 0 -73 89z" />
<glyph unicode="&#xee;" horiz-adv-x="725" d="M148 1035q0 55 98 162q92 99 150 125q41 17 72 17q73 0 202.5 -113.5t129.5 -183.5q0 -39 -29.5 -70t-69.5 -31q-51 0 -126 82q-101 106 -114 116q-38 -24 -92 -83q-84 -91 -87 -94q-134 0 -134 73zM415 55v169q8 119 8 392q0 220 110 220q87 0 87 -90v-186 q-11 -137 -12 -185q-4 -179 -5 -191q-4 -109 -19 -191q-60 -27 -96 -27q-73 0 -73 89z" />
<glyph unicode="&#xef;" horiz-adv-x="667" d="M211 1080q0 49 45.5 97.5t93.5 48.5q99 0 99 -126q0 -55 -41 -86.5t-98 -31.5q-39 0 -69 29t-30 69zM386 55v169q8 119 8 392q0 220 110 220q87 0 87 -90v-186q-11 -137 -12 -185q-4 -179 -5 -191q-4 -109 -19 -191q-60 -27 -96 -27q-73 0 -73 89zM546 1104q0 54 31.5 90 t86.5 36q42 0 75.5 -31t33.5 -72q0 -53 -36.5 -93.5t-89.5 -40.5q-40 0 -70.5 35.5t-30.5 75.5z" />
<glyph unicode="&#xf1;" horiz-adv-x="864" d="M46 80v340q3 126 3 380q72 45 116 45q41 0 56 -41q89 54 190 54q176 0 261 -136q70 -111 70 -299q0 -59 -9.5 -178.5t-9.5 -179.5q0 -39 -27.5 -68t-66.5 -29q-99 0 -99 157q0 51 8 150.5t8 151.5q0 242 -140 242q-110 0 -171 -106v-447q0 -150 -97 -150q-92 0 -92 114z M122 1083q0 19 12 46q35 77 103 128t150 51q80 0 150 -50t65 -50q26 0 71 53.5t91 53.5q39 0 67.5 -27t28.5 -67q0 -80 -94 -150q-87 -65 -171 -65q-72 0 -130 55.5t-78 55.5q-32 0 -76 -64t-91 -64q-40 0 -69 27.5t-29 66.5z" />
<glyph unicode="&#xf2;" horiz-adv-x="833" d="M4 377q0 188 93 326q104 159 283 159q167 0 266 -140q87 -123 87 -299q0 -184 -90 -312q-101 -145 -278 -145q-168 0 -268 124q-93 117 -93 287zM172 1223q0 39 31.5 65.5t70.5 26.5q55 0 153 -109t98 -161q0 -40 -30.5 -68.5t-71.5 -28.5t-82 43q-36 37 -96 116 q-73 94 -73 116zM194 391q0 -232 177 -232q86 0 132 94q37 75 37 170q0 86 -37 157q-46 89 -125 89q-184 0 -184 -278z" />
<glyph unicode="&#xf3;" horiz-adv-x="824" d="M4 377q0 188 93 326q104 159 283 159q167 0 266 -140q87 -123 87 -299q0 -184 -90 -312q-101 -145 -278 -145q-168 0 -268 124q-93 117 -93 287zM194 391q0 -232 177 -232q86 0 132 94q37 75 37 170q0 86 -37 157q-46 89 -125 89q-184 0 -184 -278zM317 1037q0 31 70 125 q58 78 97.5 115.5t75.5 37.5q37 0 66 -27t29 -65q0 -50 -97 -162.5t-145 -112.5q-38 0 -67 25.5t-29 63.5z" />
<glyph unicode="&#xf4;" horiz-adv-x="835" d="M11 377q0 188 93 326q104 159 283 159q167 0 266 -140q87 -123 87 -299q0 -184 -90 -312q-101 -145 -278 -145q-168 0 -268 124q-93 117 -93 287zM131 1035q0 55 98 162q92 99 150 125q41 17 72 17q73 0 202.5 -113.5t129.5 -183.5q0 -39 -29.5 -70t-69.5 -31 q-51 0 -126 82q-101 106 -114 116q-38 -24 -92 -83q-84 -91 -87 -94q-134 0 -134 73zM201 391q0 -232 177 -232q86 0 132 94q37 75 37 170q0 86 -37 157q-46 89 -125 89q-184 0 -184 -278z" />
<glyph unicode="&#xf5;" horiz-adv-x="845" d="M11 377q0 188 93 326q104 159 283 159q167 0 266 -140q87 -123 87 -299q0 -184 -90 -312q-101 -145 -278 -145q-168 0 -268 124q-93 117 -93 287zM122 1083q0 19 12 46q35 77 103 128t150 51q80 0 150 -50t65 -50q26 0 71 53.5t91 53.5q39 0 67.5 -27t28.5 -67 q0 -80 -94 -150q-87 -65 -171 -65q-72 0 -130 55.5t-78 55.5q-32 0 -76 -64t-91 -64q-40 0 -69 27.5t-29 66.5zM201 391q0 -232 177 -232q86 0 132 94q37 75 37 170q0 86 -37 157q-46 89 -125 89q-184 0 -184 -278z" />
<glyph unicode="&#xf6;" horiz-adv-x="816" d="M6 377q0 188 93 326q104 159 283 159q167 0 266 -140q87 -123 87 -299q0 -184 -90 -312q-101 -145 -278 -145q-168 0 -268 124q-93 117 -93 287zM196 391q0 -232 177 -232q86 0 132 94q37 75 37 170q0 86 -37 157q-46 89 -125 89q-184 0 -184 -278zM218 1080 q0 49 45.5 97.5t93.5 48.5q99 0 99 -126q0 -55 -41 -86.5t-98 -31.5q-39 0 -69 29t-30 69zM553 1104q0 54 31.5 90t86.5 36q42 0 75.5 -31t33.5 -72q0 -53 -36.5 -93.5t-89.5 -40.5q-40 0 -70.5 35.5t-30.5 75.5z" />
<glyph unicode="&#xf7;" horiz-adv-x="717" d="M67 666q0 95 189 95q15 0 49 -2h48q33 0 95 6t95 6q42 0 69.5 -26t27.5 -69q0 -55 -80 -84q-58 -20 -130 -22q73 -38 73 -109q0 -51 -47.5 -86t-102.5 -35q-112 0 -112 97q0 90 80 135q-142 5 -166 5q-37 0 -62.5 25.5t-25.5 63.5zM229 908q0 56 35 100.5t89 44.5 q51 0 86 -36t35 -89q0 -51 -43.5 -94.5t-94.5 -43.5q-44 0 -75.5 36t-31.5 82z" />
<glyph unicode="&#xf8;" horiz-adv-x="828" d="M48 377q0 188 92 326q104 159 283 159q50 0 89 -10q27 56 92 56q36 0 68.5 -23t32.5 -59q0 -20 -33 -82q105 -126 105 -321q0 -184 -91 -312q-101 -145 -278 -145q-58 0 -114 19q-29 -33 -74 -33q-32 0 -66.5 24t-34.5 55q0 18 23 58q-94 116 -94 288zM237 391 q0 -55 9 -92q123 244 182 370h-12q-179 3 -179 -278zM387 160q16 -1 28 -1q85 0 131 94q38 75 38 170q0 53 -17 106z" />
<glyph unicode="&#xf9;" horiz-adv-x="922" d="M43 635q0 225 113 225q43 0 72.5 -27t29.5 -70q0 -39 -6 -119.5t-6 -119.5q0 -364 154 -364q80 0 138 87q50 74 58 163q5 47 5 199q0 125 16 200q58 34 102 34q68 0 68 -119q0 -26 -1 -79v-363q0 -38 1.5 -113t1.5 -113q0 -39 -25.5 -64.5t-64.5 -25.5q-79 0 -94 82 q-94 -82 -207 -82q-355 0 -355 669zM205 1223q0 39 31.5 65.5t70.5 26.5q55 0 153 -109t98 -161q0 -40 -30.5 -68.5t-71.5 -28.5t-82 43q-36 37 -96 116q-73 94 -73 116z" />
<glyph unicode="&#xfa;" horiz-adv-x="913" d="M37 635q0 225 113 225q43 0 72.5 -27t29.5 -70q0 -39 -6 -119.5t-6 -119.5q0 -364 154 -364q80 0 138 87q50 74 58 163q5 47 5 199q0 125 16 200q58 34 102 34q68 0 68 -119q0 -26 -1 -79v-363q0 -38 1.5 -113t1.5 -113q0 -39 -25.5 -64.5t-64.5 -25.5q-79 0 -94 82 q-94 -82 -207 -82q-355 0 -355 669zM326 1037q0 31 70 125q58 78 97.5 115.5t75.5 37.5q37 0 66 -27t29 -65q0 -50 -97 -162.5t-145 -112.5q-38 0 -67 25.5t-29 63.5z" />
<glyph unicode="&#xfb;" horiz-adv-x="913" d="M30 635q0 225 113 225q43 0 72.5 -27t29.5 -70q0 -39 -6 -119.5t-6 -119.5q0 -364 154 -364q80 0 138 87q50 74 58 163q5 47 5 199q0 125 16 200q58 34 102 34q68 0 68 -119q0 -26 -1 -79v-363q0 -38 1.5 -113t1.5 -113q0 -39 -25.5 -64.5t-64.5 -25.5q-79 0 -94 82 q-94 -82 -207 -82q-355 0 -355 669zM160 1035q0 55 98 162q92 99 150 125q41 17 72 17q73 0 202.5 -113.5t129.5 -183.5q0 -39 -29.5 -70t-69.5 -31q-51 0 -126 82q-101 106 -114 116q-38 -24 -92 -83q-84 -91 -87 -94q-134 0 -134 73z" />
<glyph unicode="&#xfc;" horiz-adv-x="898" d="M16 635q0 225 113 225q43 0 72.5 -27t29.5 -70q0 -39 -6 -119.5t-6 -119.5q0 -364 154 -364q80 0 138 87q50 74 58 163q5 47 5 199q0 125 16 200q58 34 102 34q68 0 68 -119q0 -26 -1 -79v-363q0 -38 1.5 -113t1.5 -113q0 -39 -25.5 -64.5t-64.5 -25.5q-79 0 -94 82 q-94 -82 -207 -82q-355 0 -355 669zM238 1080q0 49 45.5 97.5t93.5 48.5q99 0 99 -126q0 -55 -41 -86.5t-98 -31.5q-39 0 -69 29t-30 69zM573 1104q0 54 31.5 90t86.5 36q42 0 75.5 -31t33.5 -72q0 -53 -36.5 -93.5t-89.5 -40.5q-40 0 -70.5 35.5t-30.5 75.5z" />
<glyph unicode="&#xfd;" horiz-adv-x="870" d="M24 768q57 84 108 84q43 0 84 -84q3 -5 49 -121l159 -360q94 193 152 339q22 65 82 185q30 42 73 42q39 0 70 -26.5t31 -65.5q0 -10 -4 -20q-29 -81 -99 -238t-155 -332q-164 -333 -304 -550h-27q-38 0 -75 17q-48 21 -48 53q0 21 190 370q-70 173 -216 514 q-29 63 -70 193zM286 1037q0 31 70 125q58 78 97.5 115.5t75.5 37.5q37 0 66 -27t29 -65q0 -50 -97 -162.5t-145 -112.5q-38 0 -67 25.5t-29 63.5z" />
<glyph unicode="&#xfe;" horiz-adv-x="1242" d="M148 850q0 43 115 73q0 128 5 154q17 97 92 97q87 0 87 -90q0 -82 -2 -145q299 -2 506 -122q252 -146 252 -423q0 -225 -210 -338q-167 -90 -413 -90q-77 0 -147 8q-1 -116 -1 -107q0 -126 -92 -126q-38 0 -63.5 24.5t-25.5 62.5q0 35 2 93q3 72 3 94q-72 29 -72 98 q0 76 72 94q2 353 2 535l-51 -5q-59 67 -59 113zM433 174q62 -7 130 -7q441 0 441 220q0 195 -197 289q-145 70 -367 70q-7 -287 -7 -572z" />
<glyph unicode="&#xff;" horiz-adv-x="865" d="M23 768q57 84 108 84q43 0 84 -84q3 -5 49 -121l159 -360q94 193 152 339q22 65 82 185q30 42 73 42q39 0 70 -26.5t31 -65.5q0 -10 -4 -20q-29 -81 -99 -238t-155 -332q-164 -333 -304 -550h-27q-38 0 -75 17q-48 21 -48 53q0 21 190 370q-70 173 -216 514 q-29 63 -70 193zM218 1080q0 49 45.5 97.5t93.5 48.5q99 0 99 -126q0 -55 -41 -86.5t-98 -31.5q-39 0 -69 29t-30 69zM553 1104q0 54 31.5 90t86.5 36q42 0 75.5 -31t33.5 -72q0 -53 -36.5 -93.5t-89.5 -40.5q-40 0 -70.5 35.5t-30.5 75.5z" />
<glyph unicode="&#x152;" horiz-adv-x="1876" d="M172 589q0 275 96 502q125 298 358 298q197 0 323 -217v127q0 100 191 100q38 0 111 -1.5t111 -1.5q26 0 78.5 1.5t80.5 1.5q192 0 192 -104q0 -87 -88 -87q-72 0 -213.5 2.5t-283.5 2.5q7 -160 7 -411q114 -2 102 -2q45 0 134.5 8t133.5 8q89 0 89 -87q0 -70 -78.5 -93 t-307.5 -23q-37 0 -75 3v-456q222 9 435 9q140 0 140 -99q0 -90 -119 -90h-63q-41 1 -62 1q-59 0 -176 -4t-177 -4q-107 0 -143 39q-31 34 -31 143q-121 -189 -317 -189q-72 0 -118 17q-330 121 -330 606zM362 604q0 -172 46 -287q65 -160 212 -160q138 0 204 201 q48 140 48 316q0 173 -60 323q-80 198 -225 198q-114 0 -177 -248q-48 -179 -48 -343z" />
<glyph unicode="&#x153;" horiz-adv-x="1674" d="M176 381q0 186 92 324q104 157 282 157q182 0 283 -161q128 159 299 159q126 0 232.5 -120t106.5 -248q0 -65 -85.5 -92.5t-310.5 -27.5q-85 0 -153 3q10 -85 75 -144t150 -59q61 0 152.5 55t117.5 55q39 0 68 -29t29 -69q0 -32 -24 -63q-50 -65 -155 -109 q-99 -41 -186 -41q-195 0 -326 155q-104 -160 -291 -160q-167 0 -266 126q-90 116 -90 289zM365 393q0 -234 178 -234q87 0 133 102q36 79 36 178q0 76 -43 148q-49 84 -121 84q-183 0 -183 -278zM975 556q78 4 269 19q-46 87 -116 87q-78 0 -153 -106z" />
<glyph unicode="&#x178;" horiz-adv-x="1065" d="M35 1290q47 106 102 106q34 0 94 -87q36 -60 290 -447q84 102 239 316q32 54 65 111q44 73 75 95q22 15 48 15q39 0 69 -28t30 -67q0 -60 -188 -326q-29 -39 -246 -333q9 -254 9 -452q0 -94 -11 -183q-56 -44 -105 -44q-77 0 -77 176q0 34 1.5 101.5t1.5 101.5v295 q-201 273 -397 650zM288 1591q0 49 45.5 97.5t93.5 48.5q99 0 99 -126q0 -55 -41 -86.5t-98 -31.5q-39 0 -69 29t-30 69zM623 1615q0 54 31.5 90t86.5 36q42 0 75.5 -31t33.5 -72q0 -53 -36.5 -93.5t-89.5 -40.5q-40 0 -70.5 35.5t-30.5 75.5z" />
<glyph unicode="&#x2c6;" horiz-adv-x="901" d="M119 1546q0 55 98 162q92 99 150 125q41 17 72 17q73 0 202.5 -113.5t129.5 -183.5q0 -39 -29.5 -70t-69.5 -31q-51 0 -126 82q-101 106 -114 116q-38 -24 -92 -83q-84 -91 -87 -94q-134 0 -134 73z" />
<glyph unicode="&#x2dc;" horiz-adv-x="1048" d="M160 1594q0 19 12 46q35 77 103 128t150 51q80 0 150 -50t65 -50q26 0 71 53.5t91 53.5q39 0 67.5 -27t28.5 -67q0 -80 -94 -150q-87 -65 -171 -65q-72 0 -130 55.5t-78 55.5q-32 0 -76 -64t-91 -64q-40 0 -69 27.5t-29 66.5z" />
<glyph unicode="&#x2000;" horiz-adv-x="928" />
<glyph unicode="&#x2001;" horiz-adv-x="1857" />
<glyph unicode="&#x2002;" horiz-adv-x="928" />
<glyph unicode="&#x2003;" horiz-adv-x="1857" />
<glyph unicode="&#x2004;" horiz-adv-x="619" />
<glyph unicode="&#x2005;" horiz-adv-x="464" />
<glyph unicode="&#x2006;" horiz-adv-x="309" />
<glyph unicode="&#x2007;" horiz-adv-x="309" />
<glyph unicode="&#x2008;" horiz-adv-x="232" />
<glyph unicode="&#x2009;" horiz-adv-x="371" />
<glyph unicode="&#x200a;" horiz-adv-x="103" />
<glyph unicode="&#x2010;" d="M172 666q0 95 190 95q15 0 49 -2h48q33 0 95 6t95 6q42 0 69.5 -26t27.5 -69q0 -56 -86 -85q-61 -21 -133 -21q-44 0 -133 3.5t-133 3.5q-37 0 -63 25.5t-26 63.5z" />
<glyph unicode="&#x2011;" d="M172 666q0 95 190 95q15 0 49 -2h48q33 0 95 6t95 6q42 0 69.5 -26t27.5 -69q0 -56 -86 -85q-61 -21 -133 -21q-44 0 -133 3.5t-133 3.5q-37 0 -63 25.5t-26 63.5z" />
<glyph unicode="&#x2012;" d="M172 666q0 95 190 95q15 0 49 -2h48q33 0 95 6t95 6q42 0 69.5 -26t27.5 -69q0 -56 -86 -85q-61 -21 -133 -21q-44 0 -133 3.5t-133 3.5q-37 0 -63 25.5t-26 63.5z" />
<glyph unicode="&#x2013;" horiz-adv-x="836" d="M171 666q0 68 80 87q34 6 135 6q32 0 94.5 6t94.5 6q43 0 70 -26t27 -69q0 -39 -81 -67q-57 -20 -113 -25q-70 -7 -196 -7q-111 0 -111 89z" />
<glyph unicode="&#x2014;" horiz-adv-x="1254" d="M184 666q0 58 62 80q42 15 286 15h122q82 -2 121 -2q32 0 94.5 6t94.5 6q43 0 70.5 -26t27.5 -69q0 -67 -94 -85q-38 -9 -144 -9q-92 0 -275.5 -2.5t-275.5 -2.5q-37 0 -63 25.5t-26 63.5z" />
<glyph unicode="&#x2018;" horiz-adv-x="478" d="M113 1343q71 56 112 56q40 0 58 -44q5 -12 39.5 -115t34.5 -107q0 -37 -30 -61t-68 -24q-44 0 -70 43q-59 100 -76 252z" />
<glyph unicode="&#x2019;" horiz-adv-x="483" d="M118 1133q0 16 40 128.5t49 120.5q18 17 42 17q41 0 113 -56q-17 -152 -77 -252q-26 -43 -70 -43q-38 0 -67.5 24t-29.5 61z" />
<glyph unicode="&#x201a;" horiz-adv-x="480" d="M116 -41q0 15 40 128t49 121q19 17 42 17q41 0 113 -56q-17 -152 -77 -253q-25 -42 -70 -42q-37 0 -67 24.5t-30 60.5z" />
<glyph unicode="&#x201c;" horiz-adv-x="689" d="M140 1323q68 76 116 76q41 0 58 -52q73 44 113 44q58 0 58 -79q0 -32 20.5 -93.5t20.5 -93.5q0 -36 -26.5 -60t-62.5 -24q-41 0 -67 32q-25 -40 -75 -40q-56 0 -83 54q-41 80 -72 236z" />
<glyph unicode="&#x201d;" horiz-adv-x="688" d="M157 1125q0 32 21.5 91t21.5 90q0 5 -2 12v13q0 60 58 60q41 0 114 -44q19 52 57 52q47 0 116 -76q-31 -154 -72 -236q-27 -54 -84 -54q-49 0 -75 40q-24 -32 -65 -32q-35 0 -62.5 24t-27.5 60z" />
<glyph unicode="&#x201e;" horiz-adv-x="688" d="M159 -65q0 33 21 91.5t21 89.5q0 5 -1 12v14q0 59 58 59q41 0 114 -44q19 53 56 53q48 0 116 -77q-29 -150 -71 -234q-29 -56 -84 -56q-49 0 -75 41q-24 -32 -65 -32q-36 0 -63 23.5t-27 59.5z" />
<glyph unicode="&#x2022;" horiz-adv-x="794" d="M155 579q0 145 53 235q65 111 200 111q109 0 174 -106q56 -92 56 -208q0 -126 -54 -220q-65 -113 -183 -113q-126 0 -191 91q-55 78 -55 210z" />
<glyph unicode="&#x2026;" horiz-adv-x="1154" d="M181 72q0 53 46 102.5t99 49.5q51 0 83.5 -43t32.5 -96q0 -49 -36.5 -84t-86.5 -35q-54 0 -92 25q-46 29 -46 81zM442 77q0 53 46 102.5t99 49.5q51 0 82.5 -43t31.5 -96q0 -49 -35.5 -84t-85.5 -35q-54 0 -92 26q-46 29 -46 80zM707 79q0 52 46 101.5t99 49.5 q51 0 82.5 -42.5t31.5 -95.5q0 -49 -36 -84t-85 -35q-55 0 -92 25q-46 29 -46 81z" />
<glyph unicode="&#x202f;" horiz-adv-x="371" />
<glyph unicode="&#x2039;" horiz-adv-x="788" d="M43 749q0 31 24 67q35 54 194 211q167 168 202 168t61.5 -27.5t26.5 -63.5q0 -37 -71 -116q-52 -53 -103 -106q-37 -39 -87 -99q10 -6 114 -83q70 -46 200 -154q31 -32 31 -65q0 -41 -30 -70.5t-71 -29.5q-37 0 -128 66q-60 46 -121 94q-68 39 -198 128q-44 34 -44 80z " />
<glyph unicode="&#x203a;" horiz-adv-x="783" d="M147 1094q0 41 31.5 71t72.5 30q37 0 126 -65q60 -48 120 -94q68 -41 198 -128q44 -34 44 -79q0 -30 -22 -68q-31 -49 -195 -211q-170 -169 -203 -169q-36 0 -61.5 29t-25.5 64q0 38 70 117q51 52 102.5 105t90.5 99q-51 34 -217 152q-131 94 -131 147z" />
<glyph unicode="&#x205f;" horiz-adv-x="464" />
<glyph unicode="&#x20ac;" horiz-adv-x="1382" d="M67 526q0 78 90 105q39 12 154 12l3 45h-109q-41 0 -66.5 30t-25.5 70q0 64 58 89q34 14 112 21q22 1 77 5q65 208 181 338q143 158 336 158q108 0 191 -70q79 -66 113 -172q3 -10 3 -24q0 -42 -27 -71t-70 -29q-53 0 -102.5 85t-110.5 85q-190 0 -301 -287q130 7 226 7 q88 0 88 -99q0 -71 -85 -99q-37 -12 -147 -20q-71 -5 -140 -9l-6 -36q121 6 220 6q133 0 133 -108q0 -63 -68 -87q-62 -22 -279 -22q57 -294 311 -294q181 0 237 168q48 17 87 17q77 0 77 -72q0 -27 -27 -85q-101 -217 -376 -217q-210 0 -343 130q-128 122 -162 334 q-78 -2 -107 -2q-72 0 -101 14q-44 21 -44 84z" />
<glyph unicode="&#x2122;" horiz-adv-x="1818" d="M126 1302q0 43 28.5 70t70.5 27q79 0 234 -4t234 -4q136 0 186 -43q27 51 82 51q72 0 148 -160q36 -78 113 -234q39 123 63 183q44 109 92 165q36 43 82 43q108 0 137 -159q12 -59 12 -242q0 -67 1 -102q6 -108 6 -94q0 -38 -28.5 -64.5t-65.5 -26.5q-108 0 -108 222 q-34 -123 -80 -184q-31 -43 -77 -43t-84.5 22.5t-109.5 173.5q-7 -208 -113 -208q-41 0 -70 29t-29 70q0 29 5 85.5t5 85.5q0 44 -2 116q-1 89 -1 118q-29 -12 -75 -12q-113 0 -178 1q4 -66 4 -109q0 -39 -2 -116v-116q0 -124 -94 -124q-109 0 -109 172q0 34 2.5 100.5 t2.5 100.5q0 38 -4 98h-104q-174 0 -174 112z" />
<glyph unicode="&#xe000;" horiz-adv-x="860" d="M0 0v860h860v-860h-860z" />
</font>
</defs>
</svg>
