<?xml version="1.0" standalone="no"?>
<!DOCTYPE svg PUBLIC "-//W3C//DTD SVG 1.1//EN" "http://www.w3.org/Graphics/SVG/1.1/DTD/svg11.dtd" >
<svg xmlns="http://www.w3.org/2000/svg">
<metadata></metadata>
<defs>
<font id="sf_cartoonist_handitalic" horiz-adv-x="831" >
<font-face units-per-em="2048" ascent="1638" descent="-410" />
<missing-glyph horiz-adv-x="418" />
<glyph horiz-adv-x="2048" />
<glyph horiz-adv-x="2048" />
<glyph unicode="&#xd;" horiz-adv-x="1024" />
<glyph unicode=" "  horiz-adv-x="418" />
<glyph unicode="&#x09;" horiz-adv-x="418" />
<glyph unicode="&#xa0;" horiz-adv-x="418" />
<glyph unicode="!" horiz-adv-x="391" d="M118 99q6 29 45.5 62.5t66.5 33.5q24 0 37 -35t7 -63q-9 -29 -39 -58t-59 -29q-27 0 -45.5 31t-12.5 58zM194 335q0 18 24 129q7 34 20.5 105t66.5 320q19 89 57 268q16 51 49 152q26 56 74 56q56 0 44 -56q-5 -24 -207 -974q-76 -31 -105 -31q-24 0 -23 31z" />
<glyph unicode="&#x22;" horiz-adv-x="597" d="M410 1312q59 53 90 53q15 0 19 -22t13 -121t7 -108q-10 -47 -63 -47q-36 0 -46 36q-22 78 -20 209zM577 1304q5 22 34 37.5t58 15.5q20 0 13 -51q-7 -33 1 -92t1 -89q-11 -50 -65 -50q-34 0 -41 38q-19 106 -1 191z" />
<glyph unicode="#" horiz-adv-x="1094" d="M254 817q5 24 35 30q41 8 103 8h101q15 50 50 150q-107 0 -184 12q-6 33 1 67q6 25 22 32q6 2 39 2q56 0 166 7q25 68 77 206q40 16 74 16q33 0 27 -31q-1 -4 -58 -181q33 3 158 19q26 92 44 179q52 32 86 32q41 0 23 -85q-6 -29 -26 -113q84 9 198 9q98 0 85 -62 q-11 -51 -71 -58q-81 -3 -245 -13q-26 -89 -53 -164q189 14 171 14q53 0 40 -62q-9 -41 -51.5 -53t-207.5 -24q-17 -49 -60 -146q-24 -45 -69 -45q-59 0 -46 65q6 24 41 120q-48 -2 -143 -2q-17 -57 -54 -162q-25 -60 -73 -60q-60 0 -47 60q6 29 48 157h-188q-20 44 -13 76z M618 860q51 4 152 10q16 41 55 159q-53 -7 -158 -17z" />
<glyph unicode="$" horiz-adv-x="887" d="M152 355q6 24 29 42t49 18q25 0 47 -29q50 -74 64 -89q38 -46 82 -73l95 447q-232 138 -195 312q21 99 121 172q85 65 195 89q15 84 12 68q11 53 64 53q58 0 35 -109q96 -3 148 -59.5t32 -153.5q-47 -36 -81 -36q-17 0 -22 31q-8 44 -21 59q-23 33 -82 36q1 4 -80 -374 q275 -153 225 -389q-28 -128 -117 -218q-96 -99 -220 -99q-18 0 -42 5l-5 -27q-53 -31 -86 -31q-29 0 -19 49q3 14 10 35q-75 32 -142 97q-72 70 -92 142q-6 20 -4 32zM449 980q-16 -79 102 -163l35 166q5 26 14 67q9 53 13 68q-142 -34 -164 -138zM522 184q7 -1 34 -1 q70 0 122 63q45 54 60 128q31 145 -124 240z" />
<glyph unicode="%" horiz-adv-x="1114" d="M299 1067q25 117 126 207.5t217 90.5q122 0 188.5 -78.5t40.5 -201.5q-26 -119 -123.5 -196.5t-217.5 -77.5q-116 0 -186 70.5t-45 185.5zM312 445q6 28 356 294t389 266q24 0 38.5 -19.5t9.5 -43.5q-4 -19 -24 -37t-122 -86q-109 -73 -289 -211q-208 -161 -284 -215 q-82 17 -74 52zM424 1072q-29 -135 139 -135q63 0 113.5 41t63.5 104q14 67 -29.5 114.5t-111.5 47.5q-52 0 -108 -59.5t-67 -112.5zM526 266q26 123 123 212t220 89q119 0 186 -85.5t42 -205.5q-26 -119 -129.5 -197.5t-225.5 -78.5q-124 0 -183.5 71.5t-32.5 194.5z M646 268q-30 -143 127 -143q70 0 125.5 41.5t70.5 109.5q16 76 -22 123.5t-113 47.5q-65 0 -119.5 -56t-68.5 -123z" />
<glyph unicode="&#x26;" horiz-adv-x="981" d="M231 280q31 150 219 384q-101 215 -60 411q26 120 108 202q91 88 207 88q99 0 149 -75q47 -73 25 -174q-33 -155 -281 -450q70 -135 193 -273q27 92 39 117q36 79 82 79q63 0 47 -75q-15 -72 -79 -219q25 -24 88 -80l-3 -12q-18 -85 -54 -85q-22 0 -94 66 q-68 -88 -179 -138q-102 -46 -210 -46q-123 0 -173.5 77.5t-23.5 202.5zM355 275q-32 -152 108 -152q70 0 150 41t122 102q-134 138 -227 292q-127 -165 -153 -283zM514 1068q-27 -129 31 -286q184 223 206 327q8 40 -14 87.5t-58 47.5q-62 0 -110 -60q-41 -49 -55 -116z " />
<glyph unicode="'" horiz-adv-x="369" d="M371 1328q56 37 85 37q17 0 20 -22q34 -181 28 -210q-11 -51 -74 -51q-26 0 -35 26q-37 97 -24 220z" />
<glyph unicode="(" horiz-adv-x="575" d="M208 287q-33 158 7 346q41 193 153 391q131 230 284 326q25 15 44 15q26 0 41.5 -18t11.5 -41q-4 -19 -60 -74q-37 -36 -75 -71q-218 -231 -283 -535q-73 -343 108 -537q-29 -89 -65 -89q-9 0 -16 7q-116 106 -150 280z" />
<glyph unicode=")" horiz-adv-x="575" d="M114 60q3 17 26 41q36 32 106 100q216 231 283 547q71 334 -108 529q29 88 65 88q7 0 15 -6q233 -219 148 -620q-41 -193 -156 -394q-129 -231 -285 -330q-24 -15 -44 -15q-24 0 -39.5 18t-10.5 42z" />
<glyph unicode="*" horiz-adv-x="787" d="M257 787q3 15 230 165q-53 62 -164 183q43 106 91 106q16 0 134 -132l21 99q17 81 25 99q24 58 73 58q58 0 40 -85q-19 -89 -45 -212q69 53 203 161q25 20 40 20q24 0 38 -20.5t9 -44.5q-13 -58 -262 -225q49 -43 142 -135q22 -25 16 -54q-14 -63 -72 -63q-39 0 -175 131 q-13 -60 -38 -181q-53 -29 -85 -29q-22 0 -22 29q-2 46 25 171q-49 -31 -148 -94q-83 20 -76 53z" />
<glyph unicode="+" horiz-adv-x="674" d="M175 672q17 79 200 79q26 0 57 -2l48 227q13 60 71 60q53 0 50 -60q-1 -39 -43 -237h188q53 0 40 -61q-14 -67 -161 -67q-62 0 -94 2l-47 -224q-13 -58 -69 -58q-51 0 -50 58q0 44 40 232q-52 4 -62 4q-19 0 -59.5 -6t-59.5 -6q-24 0 -39 18t-10 41z" />
<glyph unicode="," horiz-adv-x="560" d="M158 -51q1 2 45.5 60t49.5 68q16 25 33.5 52.5t38.5 40.5t33 13q67 0 53 -65q-9 -43 -72.5 -121.5t-107.5 -104.5q-80 24 -73 57z" />
<glyph unicode="-" d="M292 666q7 34 47 46.5t218 12.5q32 0 96 6t96 6q63 0 50 -61q-16 -72 -200 -72q-44 0 -132 3.5t-132 3.5q-55 0 -43 55z" />
<glyph unicode="." horiz-adv-x="471" d="M144 73q8 40 52.5 79t83.5 39q36 0 52 -33t7 -71q-7 -36 -39 -60.5t-68 -24.5q-104 0 -88 71z" />
<glyph unicode="/" horiz-adv-x="577" d="M39 56q3 16 78 157q89 164 425 802q37 79 73 159q47 101 88 149q36 42 73 42q64 0 52 -59q-10 -43 -77 -168q-47 -85 -479 -901q-31 -68 -111 -194q-33 -43 -71 -43q-63 0 -51 56z" />
<glyph unicode="0" horiz-adv-x="1169" d="M276 218q-47 169 6 417q54 256 167 454q158 276 367 276q249 0 341 -225q78 -193 22 -457q-53 -251 -204 -447q-183 -236 -415 -236q-222 0 -284 218zM409 652q-28 -131 13 -311q48 -211 159 -211q171 0 313 205q113 163 153 354q46 212 -9 366q-66 187 -260 187 q-110 0 -238 -247q-100 -195 -131 -343z" />
<glyph unicode="1" horiz-adv-x="521" d="M223 29q1 29 12 80q4 19 14 58.5t14 57.5q7 33 210 988q-119 -61 -151 -61q-58 0 -45 61q5 24 40.5 50.5t100.5 60.5q77 41 108 41q56 0 59 -58q1 -41 -26 -169q-8 -35 -50.5 -278.5t-96.5 -495.5q-43 -204 -82 -333q-54 -31 -86 -31q-22 0 -21 29z" />
<glyph unicode="2" horiz-adv-x="1002" d="M195 67q14 66 97 174q65 85 176 189l192 178q136 128 191 191q104 124 125 223q22 104 -44 161q-57 49 -165 49q-227 0 -270 -203q-2 -10 -3.5 -32t-3.5 -33q-6 -27 -29.5 -46.5t-51.5 -19.5q-68 0 -36 152q32 150 156 235q116 80 270 80q160 0 247 -88q91 -94 58 -253 q-32 -150 -210 -340q-62 -66 -305 -288q-118 -108 -133 -121q-73 -72 -116 -137h517q63 -1 50 -65q-16 -73 -613 -73q-113 0 -99 67z" />
<glyph unicode="3" horiz-adv-x="1043" d="M154 213q6 26 31.5 45.5t50.5 19.5q18 0 107 -70.5t179 -70.5q188 0 298 174q36 56 46 104q35 164 -160 257q-25 11 -72 34t-38 64q6 30 44 58q92 59 184 119q114 82 131 161q11 53 -58 93q-59 38 -117 38q-73 0 -158 -49q-77 -45 -135 -113h-12q-86 0 -78 37q2 9 10 19 q69 103 181 167.5t223 64.5q121 0 205 -70q93 -76 68 -194q-32 -150 -275 -313q108 -56 162 -150q57 -106 31 -228q-35 -166 -187.5 -288t-317.5 -122q-94 0 -192 49.5t-141 121.5q-14 24 -10 42z" />
<glyph unicode="4" horiz-adv-x="1080" d="M218 604q9 39 37 137q47 169 92 379q5 25 13 78t13 79q19 88 62 88q36 0 52 -37.5t-35 -279.5q-40 -188 -63 -271q-39 -140 -42 -157q-10 -47 -11 -93q113 11 479 33q30 124 42 177q11 53 30.5 264.5t42.5 321.5q9 41 58 41q36 0 45 -36q39 -156 -90 -763q112 5 110 5 q60 0 48 -58q-11 -51 -80 -68q-23 -7 -108 -11q-10 -49 -31 -148q-19 -97 -30 -147q-29 -138 -103 -138q-65 0 -41 113q13 59 33 157q38 124 45 157q-183 -9 -404 -26q-88 -7 -122 -7q-86 0 -42 210z" />
<glyph unicode="5" horiz-adv-x="1060" d="M176 249q5 26 28 45.5t49 19.5q27 0 65 -46q53 -67 80 -89q60 -46 145 -46q128 0 240.5 97.5t139.5 225.5q29 136 -60 222q-84 80 -224 80q-82 0 -144 -55.5t-84 -55.5q-27 0 -43 18.5t-10 46.5q21 95 76 285.5t75 285.5q11 52 31.5 66.5t73.5 14.5h224q148 1 222 1 q128 0 114 -66q-13 -63 -123 -63q-278 0 -429 10q-9 -41 -83 -388q54 29 131 29q190 0 304 -119q119 -126 80 -312q-40 -186 -197 -321t-342 -135q-112 0 -206 60.5t-130 157.5q-6 18 -3 31z" />
<glyph unicode="6" horiz-adv-x="1053" d="M225 471q44 208 206 478q166 278 339 416q81 -12 72 -53q-1 -5 -14 -20q-202 -220 -320 -435q108 53 235 53q186 0 284.5 -119t59.5 -303q-40 -188 -197 -334q-166 -154 -351 -154q-196 0 -279 140q-78 130 -35 331zM359 483q-33 -154 12 -246q51 -104 200 -104 q128 0 242 113q109 104 137 235q27 127 -40 211.5t-194 84.5q-126 0 -228.5 -84t-128.5 -210z" />
<glyph unicode="7" horiz-adv-x="877" d="M202 63q31 145 338 589q210 297 421 594h-302q-189 10 -302 10q-21 43 -14 75q7 34 737 34q55 0 44 -54q-7 -31 -197 -301q-117 -165 -235 -331q-177 -254 -268 -425q-31 -75 -104 -211q-28 -43 -64 -43q-27 0 -43 18t-11 45z" />
<glyph unicode="8" horiz-adv-x="1120" d="M201 375q24 115 107.5 213t197.5 146q-107 85 -72 251q34 160 158.5 270t282.5 110q135 0 210.5 -103t46.5 -240q-39 -184 -205 -283q92 -48 129.5 -143.5t13.5 -209.5q-38 -178 -208 -287q-152 -99 -336 -99q-176 0 -269 100.5t-56 274.5zM327 379q-26 -120 37 -184 t185 -64q133 0 240 60q123 70 150 195q29 138 -70 215q-85 65 -232 65q-99 0 -194 -93t-116 -194zM563 992q-38 -180 158 -180q87 0 171 60t102 145q19 87 -27 151t-132 64q-221 0 -272 -240z" />
<glyph unicode="9" horiz-adv-x="1015" d="M219 821q43 205 252.5 374.5t415.5 169.5q127 0 187.5 -74t33.5 -200q-5 -21 -20 -67q-46 -143 -129 -352q-71 -174 -141 -348q-42 -106 -137 -312q-36 -12 -65 -12q-39 0 -33 27q9 45 100 268q60 145 117 289q-164 -104 -302 -104q-140 0 -224.5 100.5t-54.5 240.5z M350 814q-18 -85 40 -140q54 -53 141 -53q106 0 215.5 73.5t157.5 175.5q50 110 71 207q32 152 -117 152q-153 0 -314.5 -131.5t-193.5 -283.5z" />
<glyph unicode=":" horiz-adv-x="478" d="M145 72q9 39 52 78t82 39q36 0 52 -33t8 -71q14 -36 -28.5 -60.5t-78.5 -24.5q-102 0 -87 72zM285 637q9 39 43 79t70 40q39 0 67 -24t21 -61q-10 -45 -64 -72q-43 -20 -92 -20q-57 0 -45 58z" />
<glyph unicode=";" horiz-adv-x="413" d="M70 -68q1 5 44.5 62t48.5 66q15 25 33 52.5t38.5 40.5t34.5 13q66 0 52 -65q8 -43 -63.5 -121.5t-115.5 -104.5q-79 24 -72 57zM279 640q8 38 42 68.5t72 30.5q30 0 50.5 -23t14.5 -54q-7 -32 -48.5 -63.5t-73.5 -31.5q-72 0 -57 73z" />
<glyph unicode="&#x3c;" horiz-adv-x="695" d="M190 749q4 19 28 48q48 53 224 203q191 161 221 161q23 0 35 -17.5t8 -39.5q-6 -27 -90 -102l-116 -96q-65 -56 -142 -131q29 -21 123 -103q60 -46 164 -150q17 -20 12 -41q-5 -25 -30 -45.5t-51 -20.5q-27 0 -100 65q-49 44 -96 88q-60 41 -171 128q-25 24 -19 53z" />
<glyph unicode="=" horiz-adv-x="855" d="M297 546q12 56 80 72q99 22 363 22q99 0 84 -73q-9 -40 -58 -55q-95 -29 -397 -29q-85 0 -72 63zM319 795q12 55 102 70q137 24 376 24q54 0 40 -65q-9 -41 -59 -61q-85 -34 -415 -34q-58 0 -44 66z" />
<glyph unicode="&#x3e;" horiz-adv-x="689" d="M318 474q6 28 90 103q56 48 114 95q89 76 146 132q-48 32 -124 99q-60 46 -166 152q-18 22 -14 39q5 26 31 46.5t53 20.5q28 0 99 -65q47 -43 94 -87q58 -41 171 -128q25 -23 19 -52q-4 -22 -28 -51q-39 -48 -221 -201q-194 -162 -224 -162q-23 0 -34 18.5t-6 40.5z" />
<glyph unicode="?" horiz-adv-x="826" d="M283 480q19 88 172 240q138 128 278 256q152 142 165 203q2 12 -11 26q-43 44 -144 44q-72 0 -171 -25q-115 -29 -157 -77q-54 -36 -90 -36q-26 0 -17 41q22 102 208 166q143 47 271 47q104 0 172 -44q81 -53 60 -150q-19 -87 -171 -239q-136 -128 -274 -256 q-149 -142 -162 -203q-6 -24 75 -33q51 -3 102 -7q56 -13 46 -59q-14 -69 -123 -69q-266 0 -229 175zM328 77q8 34 31 68q27 41 58 41q36 0 61.5 -23t18.5 -57q-9 -38 -49 -72t-78 -34q-58 0 -42 77z" />
<glyph unicode="@" horiz-adv-x="1319" d="M260 620q20 97 70 182q121 203 292 326q187 135 392 135q193 0 293 -140q96 -137 54 -331q-33 -155 -122 -289q-115 -167 -252 -167q-133 0 -160 113q-77 -46 -159 -46q-92 0 -141.5 53t-29.5 145q26 123 151.5 219t249.5 96q39 0 72 -8q4 -32 -2 -63q-9 -41 -38 -41 q-8 0 -23 3.5t-23 3.5q-79 0 -165.5 -66t-102.5 -144q-16 -74 83 -74q75 0 151 91q51 136 104 191q28 29 55 29q67 0 54 -61q-16 -74 -65 -149q-32 -51 -38 -77q-18 -83 55 -83q74 0 144 136q53 103 74 200q28 130 -42.5 229t-198.5 99q-225 0 -407 -188 q-156 -161 -193 -336q-28 -134 36 -233t192 -117q35 -5 77 -5q35 0 105.5 8.5t104.5 8.5q55 0 41 -67q-8 -39 -60 -60q-61 -24 -213 -24q-213 0 -321 111q-145 151 -94 390z" />
<glyph unicode="A" horiz-adv-x="1000" d="M30 26q12 58 300 561q177 307 353 614q21 45 71 123q26 29 44 36q13 5 50 5q24 0 34 -25q26 -65 37 -173q5 -92 12 -182q16 -168 35 -476q17 -264 17 -375q0 -54 -4 -73q-5 -25 -28 -43t-48 -18q-34 0 -42 41q-4 14 -4 69q0 22 1 52v21q0 69 -9 256h-32 q-77 0 -233.5 -16.5t-231.5 -16.5q-77 -131 -224 -394q-34 -12 -65 -12q-34 0 -34 20q0 3 1 6zM426 536q53 2 208 15q133 12 210 12q-20 294 -58 603q-135 -241 -360 -630z" />
<glyph unicode="B" horiz-adv-x="1132" d="M124 73q0 19 3 33q13 65 44 65q34 0 112 -28q6 28 27 125q23 78 33 126q31 147 90 423q32 287 60 422q-61 -3 -122 -8q-51 24 -51 53q0 4 1 8q15 73 189 73q287 0 475 -80q220 -93 220 -276q0 -35 -8 -74q-35 -164 -247 -239q111 -44 170 -121q56 -68 56 -149 q0 -26 -6 -54q-42 -196 -265 -295q-173 -77 -393 -77q-230 0 -388 73zM392 126q63 -7 118 -7q172 0 307 45q193 65 222 205q3 14 3 28q0 83 -114 151q-98 58 -223 78q-52 4 -146 26q-36 16 -36 46q0 5 1 10q6 26 26.5 46.5t46.5 20.5q15 0 45.5 -2.5t45.5 -2.5q111 0 221 37 q145 51 165 142q4 20 4 39q0 115 -156 186q-134 58 -312 58q-19 -100 -90 -432q-31 -274 -66 -440q-31 -143 -62 -234z" />
<glyph unicode="C" horiz-adv-x="939" d="M166 579q58 271 239 506q214 280 464 280q88 0 162 -71q65 -61 65 -130q0 -15 -3 -31q-14 -66 -78 -66q-30 0 -49 44q-30 73 -36 82q-30 44 -92 44q-189 0 -360 -251q-141 -206 -186 -419q-17 -78 -17 -145q0 -93 33 -163q66 -138 245 -138q207 0 302 174q31 10 62 10 q42 0 34 -37q-4 -21 -39 -72q-132 -196 -386 -196q-239 0 -332 176q-49 94 -49 221q0 84 21 182z" />
<glyph unicode="D" horiz-adv-x="1022" d="M72 109q6 26 30 44.5t49 18.5q28 0 59 -15q35 178 219 1044q-21 -6 -40 -6q-41 0 -31 39q52 85 136 114q54 17 166 17q270 0 400 -215q83 -136 84 -306q0 -82 -20 -172q-59 -278 -284 -472q-229 -200 -505 -200q-81 0 -161 22q-103 28 -103 77q0 5 1 10zM311 137 q29 -2 54 -2q222 0 403 160.5t228 383.5q16 71 16 139t-16 133q-34 140 -127 215q-101 80 -280 80q-27 0 -47 -2q-74 -368 -231 -1107z" />
<glyph unicode="E" horiz-adv-x="867" d="M92 128q42 196 132.5 586t131.5 586q14 65 625 65q77 -1 107 -10q42 -12 42 -45q0 -6 -1 -13q-12 -55 -65 -55q-83 0 -247.5 3.5t-246.5 3.5q-81 0 -116 2q-30 -186 -92 -481h213q43 0 126 1.5t125 1.5q49 0 49 -38q0 -7 -2 -16q-11 -52 -72 -64q-37 -6 -119 -6h-99 q-66 1 -250 1l-114 -536q277 12 556 12q88 0 88 -48q0 -7 -2 -15q-12 -60 -102 -60q-91 0 -277.5 -1.5t-280.5 -1.5q-78 0 -102 24q-14 14 -14 48q0 23 7 56z" />
<glyph unicode="F" horiz-adv-x="847" d="M78 29q44 205 128 613t128 612q14 69 53 93q31 18 633 18q104 0 104 -52q0 -6 -1 -13q-12 -56 -71 -56h-121q-79 2 -118 2q-41 0 -125 -2t-125 -2q-62 0 -122 4l-100 -471q330 5 431 5q121 0 121 -58q0 -7 -2 -14q-11 -53 -63 -53q-25 0 -76 2.5t-76 2.5 q-44 0 -134.5 -2.5t-226.5 -2.5l-133 -626q-49 -29 -83 -29q-22 0 -22 19q0 5 1 10z" />
<glyph unicode="G" horiz-adv-x="1002" d="M188 691q52 244 208 441q186 233 411 233q205 0 307 -203q-43 -73 -79 -73h1q0 6 -82 75q-87 75 -165 75q-173 0 -314 -195q-115 -158 -155 -349q-21 -99 -21 -184q0 -104 31 -188q69 -188 272 -188q86 0 144 34q49 29 115 107q16 19 18 31q31 144 71 331h-31 q-35 0 -106.5 -6t-107.5 -6q-65 0 -121 19q-7 23 -7 44q0 14 3 26q7 31 56 36q-2 0 -2 -1t71 -1q50 0 152 7t152 7q17 0 23 -2q33 -8 42 -18.5t9 -46.5v-13q0 -51 -19 -144q-10 -44 -29 -133q-21 -89 -30 -133q-46 -217 -79 -276.5t-82 -59.5q-47 0 -47 41q0 9 2 19 q7 30 19 70q-111 -67 -248 -67q-258 0 -356 225q-50 114 -50 256q0 98 24 210z" />
<glyph unicode="H" horiz-adv-x="1036" d="M77 55q179 844 270 1273q63 31 97 31q28 0 21 -31q-23 -109 -59 -280q-47 -236 -57 -280q97 -3 121 -3q79 0 238.5 11.5t238.5 11.5q37 0 72 -1q9 39 28 131q15 87 24 132q34 160 73 285q47 30 83 30q21 0 21 -35q0 -17 -5 -43q-43 -200 -130 -597.5t-129 -595.5 q-20 -94 -79 -94q-17 0 -17 57q0 136 99 602q-411 -19 -513 -19q-92 0 -150 7q-20 -92 -60.5 -275.5t-60.5 -277.5t-82 -94q-46 0 -46 37q0 8 2 18z" />
<glyph unicode="I" horiz-adv-x="461" d="M77 79q8 37 117 37q26 159 125 621q9 60 50 251q24 147 46 251q-50 2 -98 12q-5 23 -5 43q0 13 2 25q8 36 53 36q6 0 19.5 -1.5t19.5 -1.5q43 0 128 6.5t128 6.5q47 0 47 -35q0 -6 -2 -14q-11 -50 -77 -65q-22 -5 -105 -9q-10 -93 -90 -469q-42 -218 -135 -654 q80 -1 98 -5q42 -11 42 -46q0 -7 -2 -15q-11 -53 -274 -53q-43 0 -73 3q-16 32 -16 59q0 9 2 17z" />
<glyph unicode="J" horiz-adv-x="869" d="M90 401q12 53 31 97q42 19 76 19q36 0 28 -39q-2 -7 -7 -21.5t-7 -21.5q-9 -46 -9 -87q0 -67 25 -121q46 -99 162 -99q317 0 449 620q23 110 39 220q1 8 19 169q10 100 25 169q12 59 72 59q51 0 56 -59q1 -26 -16 -137q-5 -34 -29 -220q-17 -135 -35 -222 q-61 -283 -186 -471q-169 -256 -416 -256q-159 0 -237 123q-51 79 -51 181q0 46 11 97z" />
<glyph unicode="K" horiz-adv-x="916" d="M88 29q0 24 33 178q38 177 107.5 532t106.5 532q20 94 81 94q16 0 16 -55q0 -137 -102 -617l565 548q36 37 111 104q28 20 43 20q24 1 38 -19q10 -14 10 -31q0 -7 -2 -15q-3 -15 -21 -39q-12 -15 -125 -121q-23 -22 -428 -415q50 -63 173 -300q39 -77 121 -227 q24 -32 60 -106q5 -15 2 -29q-5 -25 -29 -44t-49 -19q-17 0 -34.5 18t-58.5 100q-76 150 -126 247q-53 91 -149 277q-61 -57 -131 -115q-30 -145 -56 -269q-32 -149 -52 -229q-47 -29 -83 -29q-20 0 -21 29z" />
<glyph unicode="L" horiz-adv-x="840" d="M129 15q-18 9 -18 63q0 65 27 195q36 167 98.5 501.5t97.5 502.5q19 88 82 88q46 0 46 -64q0 -27 -8 -64q-4 -17 -13 -52.5t-12 -52.5q-30 -137 -83 -411t-82 -410q-13 -64 -41 -192h276q245 9 265 9q91 0 91 -50q0 -7 -2 -15q-12 -56 -93 -56q-70 0 -210 -3.5t-210 -3.5 q-178 0 -211 15z" />
<glyph unicode="M" horiz-adv-x="1207" d="M89 55q2 13 10 42t11 43q37 176 104 526.5t105 526.5q15 72 33 109q26 55 71 55q19 0 35 -13t12 -32q-1 -5 -4 -10q24 -111 114 -597q30 -164 91 -492l458 814q46 84 91 168q72 131 91 146q27 24 54 24q47 0 47 -61q0 -22 -6 -53l-260 -1222q-47 -29 -83 -29 q-24 0 -24 34q0 36 35 200q27 126 77.5 377t77.5 377q-136 -240 -405 -723q-26 -52 -53 -103q-31 -65 -61 -97q-45 -53 -89 -53q-29 0 -48 43q-12 27 -39 198q-45 249 -133 749q-14 -68 -60 -283q-31 -176 -54 -284q-46 -217 -98 -406q-47 -29 -81 -29q-22 0 -22 29 q0 11 3 26z" />
<glyph unicode="N" horiz-adv-x="1000" d="M130 0q-14 0 -14 51q0 150 126 743q17 73 43 217t41 218q23 109 51 124q8 6 49 6q27 0 36 -12q74 -87 152 -297q27 -69 111 -328q74 -225 147 -475l119 564q18 85 51 257.5t51 257.5q3 15 36 29q26 10 45 10q21 0 23 -29q1 -7 1 -17q0 -79 -46 -293l-206 -970 q-12 -56 -99 -56q-24 0 -41 27q-22 36 -37 99q-12 53 -25 106q-137 510 -314 917q-21 -110 -196 -931q-3 -18 -8.5 -54t-9.5 -55q-23 -109 -86 -109z" />
<glyph unicode="O" horiz-adv-x="1048" d="M174 592q58 272 212 493q194 280 435 280q232 0 310 -249q34 -108 33 -232q0 -106 -24 -225q-54 -255 -204 -439q-178 -220 -415 -220q-236 0 -322 186q-46 96 -46 222q0 85 21 184zM294 602q-20 -95 -20 -172q0 -94 30 -162q67 -145 268 -145q162 0 294 194 q105 156 143 338q24 114 24 216q0 52 -6 100q-26 183 -139 244q-47 26 -80 26q-61 0 -142 -38q-149 -68 -253 -263q-79 -150 -119 -338z" />
<glyph unicode="P" horiz-adv-x="1046" d="M161 53q18 82 48 225q39 161 53 224q-58 13 -58 55q0 7 2 16q6 29 31 48t53 12q45 203 131 608q-37 -4 -74 -7q-22 33 -22 61q0 8 2 16q11 54 272 54q280 0 457 -112q171 -111 171 -298q0 -48 -11 -100q-45 -210 -268 -312q-174 -82 -405 -82q-97 0 -177 13l-81 -382 q-22 -92 -80 -92q-46 0 -46 37q0 7 2 16zM394 606q72 -12 160 -12q180 0 309 44q189 63 220 210q9 42 9 79q0 159 -161 242q-147 77 -395 77q-64 -271 -142 -640z" />
<glyph unicode="Q" horiz-adv-x="1033" d="M160 592q57 268 214 493q194 280 433 280q232 0 311 -249q33 -107 33 -231q0 -107 -25 -226q-82 -388 -343 -572q37 -151 37 -191q0 -6 -1 -9q-5 -24 -28 -41t-47 -17q-29 0 -42 31q-1 3 -10 55q-7 39 -27 112q-80 -27 -158 -27q-236 0 -322 186q-46 96 -46 222 q0 85 21 184zM283 601q-20 -95 -20 -173q0 -87 25 -152q58 -151 271 -151q33 0 76 13q-33 118 -74 239q42 67 79 67q39 0 112 -239q186 162 251 467q21 100 21 190q0 89 -20 169q-52 208 -222 208q-195 0 -342 -235q-109 -175 -157 -403z" />
<glyph unicode="R" horiz-adv-x="1033" d="M136 53q16 73 41 193q36 153 44 191q58 263 170 790l-24 -7q-44 36 -44 66q0 4 1 8q7 35 137 56q92 15 160 15q254 0 406 -68q177 -79 177 -240q0 -34 -8 -71q-47 -220 -454 -368q31 -82 96 -244q37 -79 73 -159q47 -109 47 -146q0 -5 -1 -8q-5 -23 -28.5 -41t-49.5 -18 q-51 0 -106 135l-62 186q-34 83 -96 252q-143 -41 -259 -41l-90 -421q-24 -113 -87 -113q-45 0 -45 37q0 7 2 16zM384 666q166 1 389 87q271 102 300 239q4 19 4 37q0 113 -165 171q-132 48 -312 48q-41 0 -90 -6q-33 -138 -126 -576z" />
<glyph unicode="S" horiz-adv-x="899" d="M111 341q6 26 31.5 44t51.5 18q32 0 46 -46q3 -21 16 -62q24 -71 105 -118q75 -44 160 -44q108 0 186 64t101 172q4 19 4 38q0 37 -17 71q-26 51 -157 130q-170 102 -240 172q-106 105 -106 216q0 25 5 50q28 130 152 224.5t254 94.5q119 0 206 -70t96 -181 q-49 -47 -83 -47q-12 0 -35 46q-27 58 -59 85q-52 46 -141 46q-80 0 -162.5 -59t-98.5 -137q-3 -13 -2 -26q0 -30 14 -61q44 -92 196 -184q193 -113 234 -154q79 -79 79 -188q0 -35 -8 -73q-33 -157 -161 -259.5t-285 -102.5t-261.5 87t-119.5 236q-1 7 -1 12v6z" />
<glyph unicode="T" horiz-adv-x="998" d="M296 1323q4 20 37 29q51 13 821 13q111 0 111 -53q0 -6 -1 -13q-12 -57 -70 -57h-200q-186 2 -199 2q-154 -761 -169 -828q-35 -169 -82 -387q-54 -29 -88 -29q-24 0 -24 34q0 15 5 36q2 9 5 26q5 15 6 23q14 65 51 239q48 262 180 886q-22 0 -92 -3q-59 -2 -94 -2 q-87 0 -182 10q-17 31 -17 58q0 8 2 16z" />
<glyph unicode="U" horiz-adv-x="968" d="M196 698q27 123 80 314q74 258 90 314q48 31 84 31q24 0 18 -31q-21 -97 -71 -292.5t-70 -292.5q-44 -206 -44 -343q0 -270 172 -270q360 0 535 823q13 59 35 177t35 178q12 59 70 59q46 0 54 -59q1 -5 1 -12q0 -57 -44 -265q-219 -1027 -708 -1027q-278 0 -278 363 q0 140 41 333z" />
<glyph unicode="V" horiz-adv-x="915" d="M304 1304q56 53 90 53q13 0 19 -24q15 -72 20 -179q3 -91 5 -183q24 -459 74 -747q19 37 55 114q48 102 152 307q73 142 222 452q27 52 73 154q24 61 30 73q24 41 62 41q27 -1 44 -21q13 -16 13 -35q0 -6 -1 -12q0 2 -7 -14q-47 -109 -148 -327q-113 -226 -333 -676 q-47 -99 -66 -132q-44 -83 -83.5 -115.5t-67.5 -32.5q-34 0 -51 48q-6 19 -15 78q-16 92 -40 278q-36 330 -47 900z" />
<glyph unicode="W" horiz-adv-x="1473" d="M331 1300q54 59 86 59q12 0 18 -18q11 -30 21 -119q47 -411 47 -906v-41q235 500 360 855q15 48 31 97q21 58 44 94q28 44 60 44q24 0 42 -17q37 -39 37 -167q1 -336 62 -915l298 712q37 80 104 242q11 36 44 104q28 41 62 41q23 0 39 -18q12 -14 13 -32q0 -5 -1 -9 q-2 -6 -362 -866q-41 -88 -120 -268q-16 -42 -56 -119q-39 -53 -71 -53q-34 0 -51 41q-13 29 -25 196l-36 406q-19 220 -19 382v30q-208 -538 -404 -924q-13 -29 -46 -80q-47 -53 -85 -53q-30 0 -42 40q-9 30 -9 74q0 15 1 31q4 53 6 108q2 64 2 136q0 359 -50 913z" />
<glyph unicode="X" horiz-adv-x="988" d="M88 36q4 20 219 283q131 159 260 316q-65 153 -142 365q-44 120 -55 152q-28 87 -38 159q48 54 83 54q12 0 19 -15q12 -24 55.5 -164t168.5 -433q104 128 302 389q41 66 137 189q28 29 50 29q24 0 38 -18q10 -13 10 -30q0 -6 -1 -12q-12 -58 -489 -655q239 -540 239 -587 q0 -23 -28 -42q-22 -16 -46 -16q-25 0 -43 27q-11 16 -66 164q-51 113 -151 338q-249 -307 -434 -529h-9q-80 0 -80 30q0 3 1 6z" />
<glyph unicode="Y" horiz-adv-x="983" d="M297 1292q46 70 80 70q21 0 55 -84q21 -53 207 -476q121 116 346 357q45 61 149 177q30 29 54 29q25 0 41 -18q12 -14 12 -31q0 -6 -1 -12q-11 -53 -257 -318q-156 -163 -314 -327q-44 -248 -90 -466q-19 -89 -44 -164q-43 -29 -79 -29q-25 0 -25 49q0 35 12 93 q7 34 23 101.5t23 101.5q24 111 66 307q-145 278 -258 640z" />
<glyph unicode="Z" horiz-adv-x="952" d="M44 55q6 29 128 163q330 362 449 499q246 283 415 522q-98 -6 -278 -6h-53h-53q-180 0 -277 -6q-18 38 -18 69q0 10 2 20q5 25 42 36q48 12 123 12q20 0 62.5 -2t62.5 -2q84 0 251.5 2.5t251.5 2.5q48 0 48 -38q0 -8 -2 -18q-12 -58 -179 -280q-315 -420 -807 -915 q483 8 676 7q46 0 46 -37q0 -8 -2 -17q-10 -48 -76 -60q-17 -4 -99 -4q-44 0 -135 -1.5t-136 -1.5q-66 0 -197 1.5t-198 1.5q-49 0 -49 37q0 7 2 15z" />
<glyph unicode="[" horiz-adv-x="693" d="M214 84q1 27 251 1203q15 53 69 66q26 7 124 7q24 0 71 2.5t71 2.5q121 0 106 -70q-11 -54 -94 -54h-29q-17 1 -27 1q-178 0 -184 -32t-148 -700q-9 -46 -29 -140q-22 -92 -32 -138q-16 -78 -25 -111q146 10 219 10q109 0 95 -64q-11 -53 -96 -65q-22 -4 -123 -4 q-116 0 -168 15.5t-51 70.5z" />
<glyph unicode="\" horiz-adv-x="575" d="M303 1311q11 54 76 54q37 0 54 -42q9 -28 29 -202q23 -245 71 -735q11 -84 21 -166q13 -119 5 -160q-13 -60 -74 -60q-36 0 -54 43q-22 51 -26 157q-4 82 -36 476q-20 159 -55 479q-15 140 -11 156z" />
<glyph unicode="]" horiz-adv-x="698" d="M75 72q12 54 95 54q11 0 29 -1h28q177 0 182.5 32t175.5 829q34 163 54 256q-91 -6 -212 -6q-115 0 -102 64q14 65 272 65q108 0 140 -18q45 -29 24 -127q-40 -189 -123.5 -569.5t-123.5 -570.5q-11 -51 -64.5 -66.5t-176.5 -15.5q-107 0 -128 4q-82 13 -70 70z" />
<glyph unicode="^" horiz-adv-x="800" d="M335 1096q9 44 123 143q107 92 158 113q36 13 61 13q64 0 139 -82q58 -61 95 -136q13 -26 9 -44q-5 -26 -29 -46.5t-50 -20.5q-22 0 -100.5 101.5t-93.5 101.5q-17 0 -114 -80q-60 -51 -121 -103q-86 0 -77 40z" />
<glyph unicode="_" horiz-adv-x="1318" d="M176 -92l20 92h922l-20 -92h-922z" />
<glyph unicode="`" horiz-adv-x="422" d="M427 1734q5 24 30 41t50 17q17 0 38 -15q29 -23 81 -104q54 -88 48 -117q-6 -25 -31.5 -44t-50.5 -19q-26 0 -50 33q-124 170 -115 208z" />
<glyph unicode="a" horiz-adv-x="828" d="M127 393q35 168 191 297t325 129q89 0 161 -39q22 49 70 49q46 0 46 -68q0 -31 -9 -75q-16 -75 -53.5 -222.5t-53.5 -222.5q-20 -93 -25 -174q-57 -53 -90 -53q-21 0 -21 44q0 18 4 44q-151 -102 -298 -102q-157 0 -223 121q-37 68 -37 158q0 53 13 114zM258 382 q-8 -37 -8 -71q0 -53 20 -96q35 -80 128 -80q140 0 293 130q14 63 39 182q34 128 46 183q-23 5 -79 34q-42 22 -85 22q-118 0 -223.5 -93t-130.5 -211z" />
<glyph unicode="b" horiz-adv-x="794" d="M87 113q40 189 125 565.5t125 565.5q26 121 93 121q47 0 47 -62q0 -24 -7 -57q-27 -128 -106 -498q87 68 212 68q167 0 249 -130q53 -86 53 -192q0 -48 -11 -101q-35 -161 -169.5 -277t-293.5 -116q-128 0 -208 89l-12 -40q-45 -30 -79 -30q-25 0 -25 40q0 22 7 54z M248 294q-1 -2 -1 -5q0 -5 4 -14q34 -74 68 -103q44 -41 119 -41q10 0 26 4q229 49 275 264q8 38 8 72q0 71 -33 128q-53 92 -164 92q-123 0 -238 -99z" />
<glyph unicode="c" horiz-adv-x="759" d="M117 358q29 135 132.5 253t240.5 174q82 34 148 34q75 0 124 -53q46 -50 46 -119v-9q-49 -56 -82 -56q-11 0 -38 54.5t-73 54.5q-101 0 -218.5 -103t-139.5 -206q-10 -46 -10 -84q0 -49 16 -85q34 -78 133 -78q73 0 189.5 74t129.5 74q26 0 42 -20.5t11 -47.5 q-3 -12 -16 -29q-65 -78 -178 -132t-207 -54q-143 0 -214 109q-46 71 -46 161q0 42 10 88z" />
<glyph unicode="d" horiz-adv-x="751" d="M94 393q34 162 165 290q143 138 300 138q87 0 155 -50l52 243q10 49 25.5 147.5t25.5 147.5q12 56 67 56q46 0 49 -56v-9q0 -33 -17 -116q-56 -300 -122 -611q-70 -327 -93 -527q-49 -34 -85 -34q-25 0 -25 28q0 15 7 37q-117 -77 -234 -77q-154 0 -230 121 q-51 79 -51 177q0 46 11 95zM227 399q-9 -40 -9 -76q0 -61 25 -110q45 -87 149 -87q123 0 221 91q18 141 71 392q-64 82 -155 82q-100 0 -193 -97q-87 -91 -109 -195z" />
<glyph unicode="e" horiz-adv-x="807" d="M127 396q34 157 170 287q146 138 300 138q107 0 169 -91q54 -76 62 -191q1 -15 1 -27q0 -16 -2 -26q-9 -42 -70 -59q-90 -26 -334 -26q-96 0 -163 5q-6 -31 -6 -60q0 -74 42 -132q58 -81 167 -81q65 0 170.5 53t120.5 53q26 0 43 -17t11 -43q-4 -19 -28 -42 q-56 -58 -164 -99q-101 -38 -181 -38q-159 0 -251 118q-67 86 -66 195q0 40 9 83zM312 514q101 1 388 25q-22 152 -137 152q-63 0 -141 -60q-62 -49 -110 -117z" />
<glyph unicode="f" horiz-adv-x="720" d="M162 638q7 34 118 34q59 279 148 432q150 261 333 261q106 0 155 -80q33 -49 33 -114q0 -32 -8 -68q-17 -81 -82 -81q-45 0 -46 53t-1 104q-11 55 -70 55q-12 0 -25 -5q-208 -80 -307 -546q118 6 233 6q72 0 72 -44q0 -7 -2 -14q-11 -54 -324 -54q-20 -184 -67 -541 q-59 -36 -95 -36q-24 0 -27 34v14q0 30 8 71q14 82 14 84q5 36 17 181q8 111 23 181h-86q-16 32 -16 57q0 8 2 16z" />
<glyph unicode="g" horiz-adv-x="785" d="M60 -169q6 26 30.5 43t50.5 17q24 0 76.5 -73.5t126.5 -73.5q157 0 258 309q-104 -53 -196 -53q-155 0 -236 133q-53 87 -53 190q0 46 11 95q34 162 162 278q131 123 290 123q97 0 165 -51q55 31 92 31q28 0 27 -40q1 -32 -18 -117q-13 -63 -29.5 -188.5t-30.5 -188.5 q-139 -656 -468 -656q-85 0 -160.5 55.5t-96.5 132.5q-3 9 -3 19q0 7 2 15zM259 423q-7 -35 -7 -67q0 -70 33 -129q54 -96 159 -96q45 0 102 28q49 24 99 49q18 84 63 408q-55 79 -149 79q-102 0 -190 -83t-110 -189z" />
<glyph unicode="h" horiz-adv-x="799" d="M105 96q11 52 34 160q25 106 36 159q81 380 146 688q18 204 24 233t63 29q48 0 53 -58v-5q0 -39 -25 -159q-18 -85 -49 -230q-25 -167 -37 -229q147 154 320 154q177 0 211 -159q8 -37 8 -87q0 -91 -28 -223q-45 -212 -95 -309q-32 -60 -80 -60q-49 0 -49 41q0 9 2 19 q13 63 53.5 188.5t54.5 188.5q15 70 15 123q0 153 -129 153q-99 0 -201 -102q-81 -84 -134 -196q-54 -256 -94 -386q-47 -29 -81 -29q-25 0 -25 41q0 22 7 55z" />
<glyph unicode="i" horiz-adv-x="229" d="M56 55q13 61 36 169q34 121 85 358q24 113 49.5 166.5t71.5 53.5q44 0 44 -38q0 -8 -2 -18q-3 -68 -45 -186q-34 -137 -46 -185q-21 -90 -40 -179q-27 -104 -57 -179q-41 -17 -68 -17q-31 0 -31 33q0 9 3 22zM270 1038q15 73 79 73q31 1 51 -21q15 -16 15 -38 q0 -7 -1 -14q-7 -29 -30.5 -52t-52.5 -23t-49 23q-14 17 -14 37q0 7 2 15z" />
<glyph unicode="j" horiz-adv-x="591" d="M-15 -84q47 29 87 29q20 0 21 -29q2 -104 6 -131q17 -80 77 -80q107 0 196 205q51 122 87 291q18 84 46.5 249.5t46.5 249.5q21 100 87 100q46 0 46 -50q0 -15 -4 -35q-18 -85 -46.5 -253t-46.5 -254q-61 -230 -128 -384q-126 -237 -302 -237q-116 0 -161 111 q-23 56 -23 123q0 45 11 95zM608 1046q14 63 79 63q68 0 68 -52q0 -11 -3 -23q-6 -27 -33 -46.5t-54 -19.5q-60 0 -60 52q0 12 3 26z" />
<glyph unicode="k" horiz-adv-x="758" d="M77 58q18 84 58.5 251t142.5 647q13 58 35 175.5t35 177.5q12 56 70 56q46 0 48 -46q0 -17 -27 -145q-13 -60 -36 -181t-35 -181q-24 -112 -76 -355q79 52 244 154q108 68 297 203q81 -7 81 -39q0 -3 -1 -5q-2 -7 -11 -17q-83 -94 -366 -268q49 -74 132 -219 q94 -170 94 -208q0 -24 -27 -42q-23 -16 -47 -16q-22 0 -42 26q-14 17 -70 131q-72 148 -140 266q-53 -32 -182 -114q-45 -191 -81 -292q-40 -17 -69 -17q-30 0 -30 34q0 10 3 24z" />
<glyph unicode="l" horiz-adv-x="247" d="M88 94q4 20 13 61q11 43 15 63q38 178 105.5 534.5t105.5 534.5q16 78 74 78q45 0 45 -65q0 -29 -9 -71q-3 -16 -12 -48q-7 -31 -10 -46q-29 -138 -77 -414t-78 -414q-32 -153 -72 -276q-50 -31 -84 -31q-23 0 -23 39q0 21 7 55z" />
<glyph unicode="m" horiz-adv-x="1096" d="M80 80q2 10 72 340q30 121 81 362q55 29 91 29q22 0 22 -26q0 -11 -4 -27q89 66 183 66q143 0 184 -121q110 116 238 116q198 0 199 -229q0 -75 -22 -174q-12 -59 -45 -178t-45 -178q-13 -60 -73 -60q-46 0 -46 62q0 25 7 59q11 51 39.5 152.5t39.5 153.5q17 79 17 135 q0 136 -99 136q-114 0 -198 -138q-3 -68 -18 -138q-13 -60 -46.5 -178.5t-46.5 -178.5t-73 -60q-46 0 -46 62q0 25 7 59q11 51 40 152t39 152q17 81 17 138q0 135 -97 135q-104 0 -188 -124q-37 -166 -101 -468q-24 -111 -87 -111q-45 0 -45 48q0 14 4 32z" />
<glyph unicode="n" horiz-adv-x="748" d="M80 80q24 111 72 340q30 121 81 362q55 29 87 29q24 0 24 -32q0 -14 -5 -35q109 80 230 80q231 0 230 -242q0 -69 -18 -159q-13 -59 -47.5 -178.5t-47.5 -179.5q-6 -26 -27 -44.5t-46 -18.5q-46 0 -46 61q0 26 8 62q10 51 39 150.5t40 151.5q14 69 14 121q0 155 -130 155 q-133 0 -232 -131l-97 -456q-25 -116 -88 -116q-45 0 -45 48q0 14 4 32z" />
<glyph unicode="o" horiz-adv-x="754" d="M126 377q37 174 146 302q128 149 291 149q154 0 215 -130q32 -69 33 -156q0 -56 -14 -119q-36 -170 -142 -288q-121 -135 -283 -135q-152 0 -218 114q-40 69 -40 159q0 49 12 104zM250 391q-12 -56 -12 -100q0 -166 168 -166q101 0 179 104q63 83 87 194q9 42 9 80 q0 55 -18 103q-34 97 -128 97q-219 0 -285 -312z" />
<glyph unicode="p" horiz-adv-x="746" d="M40 -210q5 24 17.5 72.5t17.5 72.5q30 138 73.5 413t73.5 413q12 58 70 58q54 0 54 -44q0 -8 -2 -17q82 54 184 54q159 0 241 -136q53 -90 53 -196q0 -46 -10 -96q-33 -154 -147 -265q-122 -119 -272 -119q-93 0 -174 53q-4 -19 -15 -79q-10 -51 -16 -78 q-25 -116 -57 -203q-37 -36 -66 -36q-35 0 -35 57q0 30 10 76zM245 208q84 -80 175 -80q92 0 171 84q72 76 93 172q8 39 8 76q0 70 -30 131q-54 100 -163 100q-110 0 -178 -99q-25 -145 -76 -384z" />
<glyph unicode="q" horiz-adv-x="727" d="M93 370q33 159 169 301q147 153 300 153q86 0 147 -58q12 65 70 65q46 0 46 -50q0 -16 -5 -37l-75 -355q-27 -126 -147 -691q-68 -31 -102 -31q-24 0 -17 31q13 61 74 351q-84 -49 -174 -49q-152 0 -235 109q-60 78 -60 178q0 40 9 83zM219 364q-6 -28 -6 -53 q0 -68 41 -120q56 -72 158 -72q93 0 181 81l83 392q-45 106 -135 106q-103 0 -206 -119q-93 -108 -116 -215z" />
<glyph unicode="r" horiz-adv-x="703" d="M80 58q7 32 19 94.5t106 504.5q13 63 29 102q24 57 69 57t45 -49q0 -14 -4 -33q-3 -15 -11 -43q139 123 270 123q133 0 181 -114q22 -54 22 -123q0 -53 -13 -114q-12 -60 -70 -60q-53 0 -53 75q1 68 2 138q-11 75 -88 75q-91 0 -192 -82.5t-121 -173.5q-55 -263 -86 -406 q-54 -29 -88 -29q-21 0 -21 29q0 12 4 29z" />
<glyph unicode="s" horiz-adv-x="693" d="M73 162q36 85 70 85q-1 0 -1 -1q0 -6 80 -64q90 -66 177 -66q128 0 173 79q2 11 2 21q0 73 -91 137q-96 60 -194 120q-88 62 -88 133q0 12 3 25q18 86 122 142q91 48 182 48q60 0 125 -26q75 -29 75 -70q0 -5 -1 -10q-6 -26 -29 -46t-48 -20q-18 0 -64.5 21t-77.5 21 q-117 0 -158 -61q28 -60 142 -121q135 -74 173 -110q58 -57 59 -139q0 -27 -7 -57q-20 -95 -126 -154q-90 -49 -192 -49q-212 0 -306 162z" />
<glyph unicode="t" horiz-adv-x="611" d="M177 790q4 21 32 32t207 11l84 396q12 54 68 54q48 0 48 -37q0 -8 -2 -17q-24 -116 -84 -394q117 3 192 3q50 0 50 -39q0 -8 -2 -17q-10 -50 -73 -63q-32 -7 -191 -7q-87 -412 -144 -681q-68 -31 -101 -31q-25 0 -18 31q10 48 31.5 142.5t115.5 536.5h-68q-87 0 -137 9 q-10 29 -10 52q0 10 2 19z" />
<glyph unicode="u" horiz-adv-x="795" d="M180 596q30 141 58 185.5t69 44.5q57 0 57 -44q0 -9 -2 -19q-8 -39 -31 -119.5t-32 -119.5q-22 -104 -22 -186q0 -30 3 -58q15 -154 122 -154q94 0 183 96q77 83 107 184q13 45 44 191q24 118 54 190q42 22 77 22q22 0 22 -36q0 -19 -6 -49q-6 -26 -19 -79 q-11 -51 -77 -363q-8 -38 -22.5 -113t-22.5 -113q-12 -56 -68 -56q-48 0 -48 51q0 21 13 80q-122 -131 -265 -131q-230 0 -230 306q0 121 36 290z" />
<glyph unicode="v" horiz-adv-x="724" d="M189 765q52 51 85 51q13 0 21 -22q12 -64 36 -190q31 -131 84 -394q93 155 265 469q17 40 62 116q32 41 64 41q53 0 53 -38q0 -7 -2 -16q-19 -91 -185 -372q-146 -248 -236 -367q-33 -43 -67 -43t-52 41t-28 113q-8 59 -18 119q-23 121 -48 244q-27 140 -34 248z" />
<glyph unicode="w" horiz-adv-x="1044" d="M222 396q-4 115 -4 203q0 111 6 181q46 34 80 34q38 0 42 -167v-104v-104q2 -48 17 -209q64 134 193 401q23 57 86 164q28 40 61 40q29 0 48 -32.5t33 -526.5q61 117 177 350q22 58 82 169q28 40 61 40q50 0 50 -39q0 -7 -2 -16q-9 -41 -178.5 -376.5t-193.5 -360.5 q-30 -33 -61 -33q-33 0 -43 39q-2 12 -2 75v48v6q0 71 -22 402l-178 -365q-25 -60 -90 -172q-32 -43 -73 -43q-35 0 -50 39q-28 70 -39 357z" />
<glyph unicode="x" horiz-adv-x="759" d="M69 65q4 19 30 49q94 98 283 294q-78 162 -172 321q35 83 71 83q46 0 193 -307q63 65 187 198q27 33 90 94q33 27 59 27t42 -17q13 -13 12 -30q0 -5 -1 -11q-6 -29 -335 -375q57 -116 109 -200q20 -29 56 -92q11 -22 8 -38q-5 -23 -26 -42t-45 -19q-55 0 -194 292 q-154 -161 -263 -272q-34 -11 -62 -11q-44 0 -44 37q0 9 2 19z" />
<glyph unicode="y" horiz-adv-x="794" d="M72 -309q1 5 272 369q-35 177 -110 529q-15 56 -28 172q50 56 84 56q12 0 19 -13q15 -31 43 -169q35 -143 98 -430q158 222 273 409q34 62 114 176q26 29 52 29q24 0 42 -17q14 -13 14 -31q0 -5 -1 -10q-1 -3 -9 -17q-162 -266 -368 -558q-233 -331 -404 -531h-9 q-83 0 -83 31q0 2 1 5z" />
<glyph unicode="z" horiz-adv-x="766" d="M64 27v5q0 8 2 21q8 37 41 75q64 58 187 176q124 131 380 392h-277q-89 0 -140 7q-16 32 -16 59q0 9 2 18q4 22 37 31q47 13 378 13q27 0 84 -1h83q24 0 37 -19q9 -14 9 -30q0 -6 -1 -13q-4 -20 -101 -119q-62 -63 -123 -125q-99 -102 -197 -203q-113 -116 -206 -196 q335 10 386 10q89 0 89 -50q0 -7 -2 -15q-13 -63 -127 -63q-22 0 -65 1.5t-66 1.5q-47 0 -145 -1.5t-146 -1.5q-100 0 -103 27z" />
<glyph unicode="{" horiz-adv-x="882" d="M212 654q9 41 63 61q82 31 251 31q15 0 18 15q6 29 -36 80q-62 75 -78 101q-38 70 -22 145q30 142 237 219q155 59 323 59q52 0 42 -49q-10 -46 -99 -65t-180 -38q-115 -27 -169 -87q-24 -27 -28 -46q-3 -12 2 -34q11 -41 94 -128q65 -68 47 -153q-7 -33 -22 -58 q48 -36 34 -98q-17 -82 -153.5 -196t-150.5 -179q-21 -99 163 -99q42 0 122 16t107 16q26 0 40 -20.5t8 -45.5q-7 -36 -55 -58q-92 -43 -258 -43q-125 0 -198 56q-88 63 -62 183q17 82 97 165q75 70 148 139q35 32 52 56q-22 9 -45 9t-64 -7q-49 -10 -66 -12q-52 -5 -119 -5 q-58 0 -43 70z" />
<glyph unicode="|" horiz-adv-x="507" d="M188 65q160 752 205 966q3 27 21 112q10 70 19 113q23 109 87 109q57 0 55 -66q-1 -17 -20 -109q-29 -137 -85 -412.5t-85 -412.5l-64 -300q-14 -65 -80 -65q-67 0 -53 65z" />
<glyph unicode="}" horiz-adv-x="884" d="M161 51q8 39 65 58q117 26 231 50q161 44 179 128q9 42 -75.5 135t-66.5 177q7 31 20 56q-46 36 -33 96q17 82 154 198t151 181q21 99 -163 99q-43 0 -122.5 -15.5t-107.5 -15.5q-25 0 -40 20.5t-9 46.5q7 34 56 56q100 44 259 44q124 0 199 -54q86 -65 60 -185 q-17 -82 -96 -167l-150 -140q-34 -32 -51 -56q22 -9 48 -9q13 0 76 11q72 12 169 12q57 0 42 -69q-8 -42 -61 -63q-75 -29 -237 -29q-29 0 -33 -17q-6 -29 37 -78q63 -72 78 -98q38 -68 23 -143q-31 -142 -236 -220q-157 -60 -324 -60q-53 0 -42 51z" />
<glyph unicode="~" horiz-adv-x="949" d="M393 1167q3 14 16 33q44 68 114 113.5t141 45.5q79 0 129.5 -50.5t64.5 -50.5q42 0 98 53.5t87 53.5q61 0 49 -59q-14 -65 -107.5 -123t-161.5 -58q-62 0 -105.5 55.5t-79.5 55.5q-49 0 -106 -64t-88 -64q-24 0 -40 17.5t-11 41.5z" />
<glyph unicode="&#xa1;" horiz-adv-x="394" d="M89 -217q0 24 25 144q27 179 94 496q9 45 29 132t30 131q9 44 17 63q11 29 35 29q32 0 69 -29l-139 -655q-39 -297 -42 -311q-11 -54 -69 -54q-48 0 -49 54zM309 988q6 27 37 59t59 32q29 0 47.5 -30t11.5 -59q-5 -27 -32 -61.5t-51 -34.5q-27 0 -52.5 32.5t-19.5 61.5z " />
<glyph unicode="&#xa2;" horiz-adv-x="751" d="M240 787q21 99 90 196q72 104 161 154q46 25 102 39l12 55q28 134 91 134q55 0 41 -68q-5 -20 -12 -56q-11 -43 -14 -57q94 -8 151 -61q62 -58 50 -150q-50 -34 -81 -34q-13 0 -26 30q-16 40 -32 57q-29 32 -88 37q-80 -374 -103 -486q15 2 65 14q42 11 66 11 q55 0 42 -63q-18 -83 -209 -83q-17 -62 -52 -166q-40 -15 -74 -15q-36 0 3 179q-104 27 -156 119.5t-27 213.5zM381 770q-29 -137 85 -179q23 95 33 141l70 333q-135 -75 -154 -167q-5 -22 -17.5 -64t-16.5 -64z" />
<glyph unicode="&#xa5;" horiz-adv-x="1137" d="M262 212q14 66 143 66h79q58 -2 77 -2l31 149q2 3 4 17q-77 -2 -123 -2q-176 0 -162 67q11 53 62 53q22 0 67 -2h68q74 0 111 2l19 87q-208 399 -258 642q-4 15 -1 27q10 49 66 49q21 0 38 -24q9 -13 76 -174q80 -198 165 -394q117 126 345 381q47 63 149 181 q28 29 53 29q26 0 41.5 -18t10.5 -44q-3 -13 -14 -31q-90 -145 -260 -322q-147 -149 -294 -297l-16 -84q67 5 127 5q123 0 108 -68q-13 -65 -146 -65h-58q-39 2 -56 2q-11 -55 -34 -166q19 0 53 2h53q142 0 127 -71q-12 -57 -72 -57h-186q-17 -70 -24 -90q-25 -60 -68 -60 q-60 0 -27 154h-66q-44 -2 -64 -2q-157 0 -144 60z" />
<glyph unicode="&#xa6;" horiz-adv-x="521" d="M202 65q17 80 48 239t48 239q24 109 88 109q74 0 48 -121l-99 -466q-18 -65 -81 -65q-66 0 -52 65zM369 872q14 65 39 193t38 191q23 109 88 109q73 0 47 -121l-78 -370q-14 -65 -80 -65q-67 0 -54 63z" />
<glyph unicode="&#xa8;" horiz-adv-x="806" d="M498 1591q7 34 50.5 73t78.5 39q64 0 44 -92q-17 -84 -121 -84q-25 0 -41 19t-11 45zM838 1615q20 92 104 92q27 0 46.5 -20.5t13.5 -48.5q-8 -39 -41 -69.5t-73 -30.5q-25 0 -40 25.5t-10 51.5z" />
<glyph unicode="&#xa9;" horiz-adv-x="1273" d="M232 408q40 191 189 325t338 134q200 0 351 -121q165 -135 124 -326q-41 -196 -249 -316q-183 -104 -389 -104q-195 0 -297 106q-108 111 -67 302zM351 422q-29 -137 50 -217q74 -75 212 -75q154 0 290 61q171 77 200 215q32 147 -107 248q-123 88 -280 88 q-133 0 -235 -93t-130 -227zM477 391q20 92 110 153q84 57 179 57q48 0 87 -22q47 -28 38 -70q-10 -50 -63 -50q-15 0 -42 10.5t-42 10.5q-40 0 -82 -23q-48 -25 -56 -63q-6 -29 23 -49q25 -21 56 -21q27 0 63 23t53 23q26 0 42 -17.5t11 -43.5q-9 -41 -81 -84 q-60 -29 -113 -29q-87 0 -144 54.5t-39 140.5z" />
<glyph unicode="&#xab;" horiz-adv-x="1314" d="M255 749q4 19 28 48q48 53 224 203q191 161 221 161q22 0 34.5 -17.5t8.5 -39.5q-6 -27 -90 -102l-116 -96q-65 -56 -142 -131q29 -21 123 -103q60 -46 164 -150q17 -20 12 -41q-5 -25 -30 -45.5t-51 -20.5q-27 0 -100 65q-49 44 -96 88q-60 41 -171 128q-25 24 -19 53z M785 749q4 19 29 48q48 53 223 203q190 161 220 161q23 0 36 -17.5t9 -39.5q-6 -27 -91 -102q-57 -48 -115 -96q-77 -66 -144 -131q36 -26 125 -103q58 -46 162 -150q16 -22 12 -41q-5 -25 -30 -45.5t-51 -20.5q-27 0 -100 65q-48 44 -94 88q-60 41 -171 128q-26 24 -20 53z " />
<glyph unicode="&#xad;" d="M292 666q7 34 47 46.5t218 12.5q32 0 96 6t96 6q63 0 50 -61q-16 -72 -200 -72q-44 0 -132 3.5t-132 3.5q-55 0 -43 55z" />
<glyph unicode="&#xae;" horiz-adv-x="1415" d="M255 509q50 232 197 368q156 145 385 145q242 0 413 -152q189 -163 140 -397q-46 -215 -282 -352q-209 -121 -436 -121q-223 0 -342 142q-122 145 -75 367zM382 527q-38 -181 52 -291t271 -110q167 0 333 91q192 106 225 263q36 169 -138 302q-155 119 -334 119 q-166 0 -274 -107q-99 -98 -135 -267zM580 696q11 50 99 75q61 17 131 17q94 0 158 -40q75 -48 56 -135q-24 -116 -181 -173q98 -58 105 -61q71 -51 62 -91q-5 -25 -27.5 -45.5t-48.5 -20.5q-22 0 -45 17q-53 37 -163 109q3 -75 2 -80q-11 -53 -69 -53q-55 0 -58 89 q-4 80 19 191q18 84 44 150l-13 -5l7 3q-18 -6 -35 -6q-56 0 -43 59zM744 538q145 29 153 68q12 56 -118 56q-23 -71 -35 -124z" />
<glyph unicode="&#xaf;" d="M471 1512q8 34 48 47t218 13q32 0 96 6t96 6q63 0 50 -62q-16 -71 -200 -71q-44 0 -132 3t-132 3q-55 0 -44 55z" />
<glyph unicode="&#xb0;" horiz-adv-x="787" d="M371 1111q22 104 115.5 179t197.5 75q101 0 164.5 -59.5t42.5 -158.5q-23 -108 -113.5 -177t-198.5 -69q-95 0 -159 56q-68 62 -49 154zM504 1118q-9 -41 32 -65q32 -20 78 -20q50 0 92.5 34t52.5 83q9 40 -30 62q-34 19 -76 19q-46 0 -93 -33.5t-56 -79.5z" />
<glyph unicode="&#xb1;" horiz-adv-x="712" d="M86 61q7 35 47.5 47.5t271.5 12.5q32 0 95.5 6t95.5 6q63 0 50 -61q9 -72 -199 -72q-53 0 -159 3.5t-161 3.5q-53 0 -41 54zM189 672q17 79 200 79q25 0 57 -2l48 227q13 60 71 60q53 0 50 -60q-1 -39 -43 -237h187q53 0 40 -61q-14 -67 -160 -67q-62 0 -94 2l-47 -224 q-13 -58 -70 -58q-51 0 -50 58q1 44 41 232q-52 4 -62 4q-19 0 -60 -6t-59 -6q-24 0 -39 18t-10 41z" />
<glyph unicode="&#xb4;" horiz-adv-x="404" d="M397 1548q6 29 89 111q65 66 114 106q34 27 57 27q24 0 39.5 -17t10.5 -41q-8 -36 -118 -138.5t-142 -102.5q-24 0 -39.5 16.5t-10.5 38.5z" />
<glyph unicode="&#xb6;" horiz-adv-x="1190" d="M224 739q67 314 420 486q288 140 631 140q111 0 97 -66q-12 -58 -89 -58q-302 0 -552 -106q-323 -137 -379 -403q-38 -177 153 -177q48 0 105 10q29 114 78 343q17 48 49 142q27 54 71 54q55 0 44 -49q-18 -87 -49 -231q-54 -174 -67 -228q109 30 198 61q54 208 92 387 q24 113 89 113q59 0 41 -85q-42 -198 -88 -365q19 6 35 6q54 0 40 -64q-11 -53 -115 -84l-153 -529q-15 -68 -61 -198q-26 -51 -65 -51q-50 0 -39 51q28 136 87 339q50 171 100 340q-102 -36 -196 -60q-38 -163 -72 -326q-68 -252 -99 -298q-26 -38 -55 -38q-58 0 -44 62 q12 58 38 150q36 118 44 150q11 44 60 275q-50 -9 -89 -9q-148 0 -219.5 84.5t-40.5 231.5z" />
<glyph unicode="&#xb7;" horiz-adv-x="473" d="M277 703q9 39 53.5 78.5t83.5 39.5q36 0 51.5 -33.5t7.5 -70.5q-7 -36 -39 -61t-68 -25q-104 0 -89 72z" />
<glyph unicode="&#xbb;" horiz-adv-x="1311" d="M348 474q6 28 91 103q56 48 114 95q89 76 145 132q-47 32 -124 99q-60 46 -166 152q-17 22 -13 39q5 26 31 46.5t53 20.5t99 -65q47 -43 93 -87q59 -41 171 -128q26 -23 20 -52q-4 -22 -28 -51q-39 -48 -221 -201q-194 -162 -225 -162q-22 0 -33.5 18.5t-6.5 40.5z M809 474q6 28 91 103q56 48 113 95q90 76 146 132q-47 32 -124 99q-60 46 -166 152q-17 22 -13 39q5 26 31 46.5t53 20.5t99 -65q47 -43 93 -87q59 -41 171 -128q26 -23 20 -52q-4 -22 -28 -51q-39 -48 -221 -201q-194 -162 -225 -162q-22 0 -33.5 18.5t-6.5 40.5z" />
<glyph unicode="&#xbf;" horiz-adv-x="826" d="M36 -90q18 87 169 238q137 128 275 256q150 142 163 204q5 23 -75 32q-52 3 -102 7q-58 13 -48 60q15 68 124 68q266 0 229 -174q-19 -89 -172 -241l-278 -256q-152 -142 -165 -203q-3 -12 10 -26q44 -44 144 -44q72 0 172 26q115 30 158 76q53 36 89 36q25 0 17 -41 q-22 -102 -207 -165q-144 -48 -272 -48q-104 0 -171 44q-81 53 -60 151zM556 969q8 38 48 72t78 34q58 0 42 -77q-7 -34 -29 -68q-28 -41 -59 -41q-36 0 -61.5 23t-18.5 57z" />
<glyph unicode="&#xc0;" horiz-adv-x="1019" d="M44 26q12 58 300 561q177 307 353 614q21 45 71 123q26 29 44 36q13 5 50 5q24 0 34 -25q26 -65 37 -173q5 -92 12 -182q16 -168 35 -476q25 -390 13 -448q-5 -25 -28 -43t-48 -18q-34 0 -42 41q-5 19 -3 121q2 56 -9 277h-32q-77 0 -233.5 -16.5t-231.5 -16.5 q-77 -131 -224 -394q-34 -12 -65 -12q-39 0 -33 26zM440 536q53 2 208 15q133 12 210 12q-20 294 -58 603q-135 -241 -360 -630zM543 1734q5 24 30 41t50 17q17 0 38 -15q29 -23 81 -104q54 -88 48 -117q-6 -25 -31.5 -44t-50.5 -19q-26 0 -50 33q-124 170 -115 208z" />
<glyph unicode="&#xc1;" horiz-adv-x="1033" d="M49 26q12 58 300 561q177 307 353 614q21 45 71 123q26 29 44 36q13 5 50 5q24 0 34 -25q26 -65 37 -173q5 -92 12 -182q16 -168 35 -476q25 -390 13 -448q-5 -25 -28 -43t-48 -18q-34 0 -42 41q-5 19 -3 121q2 56 -9 277h-32q-77 0 -233.5 -16.5t-231.5 -16.5 q-77 -131 -224 -394q-34 -12 -65 -12q-39 0 -33 26zM445 536q53 2 208 15q133 12 210 12q-20 294 -58 603q-135 -241 -360 -630zM774 1548q6 29 89 111q65 66 114 106q34 27 57 27q24 0 39.5 -17t10.5 -41q-8 -36 -118 -138.5t-142 -102.5q-24 0 -39.5 16.5t-10.5 38.5z" />
<glyph unicode="&#xc2;" horiz-adv-x="1029" d="M44 26q12 58 300 561q177 307 353 614q21 45 71 123q26 29 44 36q13 5 50 5q24 0 34 -25q26 -65 37 -173q5 -92 12 -182q16 -168 35 -476q25 -390 13 -448q-5 -25 -28 -43t-48 -18q-34 0 -42 41q-5 19 -3 121q2 56 -9 277h-32q-77 0 -233.5 -16.5t-231.5 -16.5 q-77 -131 -224 -394q-34 -12 -65 -12q-39 0 -33 26zM440 536q53 2 208 15q133 12 210 12q-20 294 -58 603q-135 -241 -360 -630zM547 1546q9 45 123 142q107 94 158 114q36 14 61 14q64 0 139 -82q55 -60 94 -137q14 -25 10 -44q-5 -26 -29 -46t-50 -20q-39 0 -97 87 q-69 99 -100 112l3 4q-23 -6 -116 -82q-59 -50 -119 -101q-86 0 -77 39z" />
<glyph unicode="&#xc3;" horiz-adv-x="1029" d="M44 26q12 58 300 561q177 307 353 614q21 45 71 123q26 29 44 36q13 5 50 5q24 0 34 -25q26 -65 37 -173q5 -92 12 -182q16 -168 35 -476q25 -390 13 -448q-5 -25 -28 -43t-48 -18q-34 0 -42 41q-5 19 -3 121q2 56 -9 277h-32q-77 0 -233.5 -16.5t-231.5 -16.5 q-77 -131 -224 -394q-34 -12 -65 -12q-39 0 -33 26zM440 536q53 2 208 15q133 12 210 12q-20 294 -58 603q-135 -241 -360 -630zM534 1594q3 14 15 32q43 69 113 114t142 45q79 0 130 -50.5t64 -50.5q43 0 99 54t86 54q62 0 49 -60q-14 -65 -107 -123t-162 -58 q-61 0 -105 55.5t-80 55.5q-49 0 -106 -64t-88 -64q-24 0 -39.5 18t-10.5 42z" />
<glyph unicode="&#xc4;" horiz-adv-x="1033" d="M49 26q12 58 300 561q177 307 353 614q21 45 71 123q26 29 44 36q13 5 50 5q24 0 34 -25q26 -65 37 -173q5 -92 12 -182q16 -168 35 -476q25 -390 13 -448q-5 -25 -28 -43t-48 -18q-34 0 -42 41q-5 19 -3 121q2 56 -9 277h-32q-77 0 -233.5 -16.5t-231.5 -16.5 q-77 -131 -224 -394q-34 -12 -65 -12q-39 0 -33 26zM445 536q53 2 208 15q133 12 210 12q-20 294 -58 603q-135 -241 -360 -630zM653 1591q7 34 50.5 73t78.5 39q64 0 44 -92q-17 -84 -121 -84q-25 0 -41 19t-11 45zM993 1615q20 92 104 92q27 0 46.5 -20.5t13.5 -48.5 q-8 -39 -41 -69.5t-73 -30.5q-25 0 -40 25.5t-10 51.5z" />
<glyph unicode="&#xc5;" horiz-adv-x="1033" d="M49 26q12 58 300 561q177 307 353 614q21 45 71 123q26 29 44 36q13 5 50 5q24 0 34 -25q26 -65 37 -173q5 -92 12 -182q16 -168 35 -476q25 -390 13 -448q-5 -25 -28 -43t-48 -18q-34 0 -42 41q-5 19 -3 121q2 56 -9 277h-32q-77 0 -233.5 -16.5t-231.5 -16.5 q-77 -131 -224 -394q-34 -12 -65 -12q-39 0 -33 26zM445 536q53 2 208 15q133 12 210 12q-20 294 -58 603q-135 -241 -360 -630zM634 1618q18 84 92.5 144.5t158.5 60.5q80 0 129 -46q52 -52 35 -130q-18 -85 -90.5 -140.5t-159.5 -55.5q-77 0 -126 44q-55 50 -39 123z M741 1625q-7 -34 24 -53q28 -16 64 -16q39 0 73 27.5t43 66.5q13 63 -86 63q-38 0 -74 -26t-44 -62z" />
<glyph unicode="&#xc6;" horiz-adv-x="1304" d="M61 49q9 41 407 644q207 312 313 524q16 36 56 106q25 36 65 36q41 0 125 3t398 3q102 0 88 -66q-12 -55 -92 -67h-120h-172q-137 -1 -171 -1q-33 -212 -89 -475q58 0 177.5 1.5t179.5 1.5t48 -56q-10 -49 -71.5 -65.5t-184.5 -16.5q-31 0 -90 2t-87 2 q-39 -169 -111 -506q72 7 162 7q55 0 165.5 -1.5t164.5 -1.5q57 0 45 -56q-14 -67 -323 -67q-39 0 -116.5 1.5t-116.5 1.5q-131 0 -64 318q-109 -17 -328 -50q-42 -80 -144 -232q-32 -39 -66 -39q-58 0 -48 49zM404 398q168 37 272 44l122 573q-98 -172 -394 -617z" />
<glyph unicode="&#xc8;" horiz-adv-x="852" d="M128 128q42 196 132.5 586t131.5 586q14 65 625 65q77 -1 107 -10q50 -14 41 -58q-12 -55 -65 -55q-83 0 -247.5 3.5t-246.5 3.5q-81 0 -116 2q-30 -186 -92 -481h213q43 0 126 1.5t125 1.5q58 0 47 -54q-11 -52 -72 -64q-37 -6 -119 -6h-99q-66 1 -250 1l-114 -536 q277 12 556 12q100 0 86 -63q-12 -60 -102 -60q-91 0 -277.5 -1.5t-280.5 -1.5q-78 0 -102 24.5t-7 103.5zM616 1734q5 24 30 41t50 17q17 0 38 -15q29 -23 81 -104q54 -88 48 -117q-6 -25 -31.5 -44t-50.5 -19q-26 0 -50 33q-124 170 -115 208z" />
<glyph unicode="&#xc9;" horiz-adv-x="850" d="M128 128q42 196 132.5 586t131.5 586q14 65 625 65q77 -1 107 -10q50 -14 41 -58q-12 -55 -65 -55q-83 0 -247.5 3.5t-246.5 3.5q-81 0 -116 2q-30 -186 -92 -481h213q43 0 126 1.5t125 1.5q58 0 47 -54q-11 -52 -72 -64q-37 -6 -119 -6h-99q-66 1 -250 1l-114 -536 q277 12 556 12q100 0 86 -63q-12 -60 -102 -60q-91 0 -277.5 -1.5t-280.5 -1.5q-78 0 -102 24.5t-7 103.5zM757 1548q6 29 89 111q65 66 114 106q34 27 57 27q24 0 39.5 -17t10.5 -41q-8 -36 -118 -138.5t-142 -102.5q-24 0 -39.5 16.5t-10.5 38.5z" />
<glyph unicode="&#xca;" horiz-adv-x="857" d="M133 128q42 196 132.5 586t131.5 586q14 65 625 65q77 -1 107 -10q50 -14 41 -58q-12 -55 -65 -55q-83 0 -247.5 3.5t-246.5 3.5q-81 0 -116 2q-30 -186 -92 -481h213q43 0 126 1.5t125 1.5q58 0 47 -54q-11 -52 -72 -64q-37 -6 -119 -6h-99q-66 1 -250 1l-114 -536 q277 12 556 12q100 0 86 -63q-12 -60 -102 -60q-91 0 -277.5 -1.5t-280.5 -1.5q-78 0 -102 24.5t-7 103.5zM574 1546q9 45 123 142q107 94 158 114q36 14 61 14q64 0 139 -82q55 -60 94 -137q14 -25 10 -44q-5 -26 -29 -46t-50 -20q-39 0 -97 87q-69 99 -100 112l3 4 q-23 -6 -116 -82q-59 -50 -119 -101q-86 0 -77 39z" />
<glyph unicode="&#xcb;" horiz-adv-x="857" d="M133 128q42 196 132.5 586t131.5 586q14 65 625 65q77 -1 107 -10q50 -14 41 -58q-12 -55 -65 -55q-83 0 -247.5 3.5t-246.5 3.5q-81 0 -116 2q-30 -186 -92 -481h213q43 0 126 1.5t125 1.5q58 0 47 -54q-11 -52 -72 -64q-37 -6 -119 -6h-99q-66 1 -250 1l-114 -536 q277 12 556 12q100 0 86 -63q-12 -60 -102 -60q-91 0 -277.5 -1.5t-280.5 -1.5q-78 0 -102 24.5t-7 103.5zM675 1591q7 34 50.5 73t78.5 39q64 0 44 -92q-17 -84 -121 -84q-25 0 -41 19t-11 45zM1015 1615q20 92 104 92q27 0 46.5 -20.5t13.5 -48.5q-8 -39 -41 -69.5 t-73 -30.5q-25 0 -40 25.5t-10 51.5z" />
<glyph unicode="&#xcc;" horiz-adv-x="449" d="M25 79q8 37 117 37q26 159 125 621q9 60 50 251q24 147 46 251q-50 2 -98 12q-9 38 -3 68q8 36 53 36q6 0 19.5 -1.5t19.5 -1.5q43 0 128 6.5t128 6.5q55 0 45 -49q-11 -50 -77 -65q-22 -5 -105 -9q-10 -93 -90 -469q-42 -218 -135 -654q80 -1 98 -5q50 -13 40 -61 q-11 -53 -274 -53q-43 0 -73 3q-21 43 -14 76zM375 1734q5 24 30 41t50 17q17 0 38 -15q29 -23 81 -104q54 -88 48 -117q-6 -25 -31.5 -44t-50.5 -19q-26 0 -50 33q-124 170 -115 208z" />
<glyph unicode="&#xcd;" horiz-adv-x="447" d="M23 79q8 37 117 37q26 159 125 621q9 60 50 251q24 147 46 251q-50 2 -98 12q-9 38 -3 68q8 36 53 36q6 0 19.5 -1.5t19.5 -1.5q43 0 128 6.5t128 6.5q55 0 45 -49q-11 -50 -77 -65q-22 -5 -105 -9q-10 -93 -90 -469q-42 -218 -135 -654q80 -1 98 -5q50 -13 40 -61 q-11 -53 -274 -53q-43 0 -73 3q-21 43 -14 76zM395 1548q6 29 89 111q65 66 114 106q34 27 57 27q24 0 39.5 -17t10.5 -41q-8 -36 -118 -138.5t-142 -102.5q-24 0 -39.5 16.5t-10.5 38.5z" />
<glyph unicode="&#xce;" horiz-adv-x="657" d="M219 79q8 37 117 37q26 159 125 621q9 60 50 251q24 147 46 251q-50 2 -98 12q-9 38 -3 68q8 36 53 36q6 0 19.5 -1.5t19.5 -1.5q43 0 128 6.5t128 6.5q55 0 45 -49q-11 -50 -77 -65q-22 -5 -105 -9q-10 -93 -90 -469q-42 -218 -135 -654q80 -1 98 -5q50 -13 40 -61 q-11 -53 -274 -53q-43 0 -73 3q-21 43 -14 76zM470 1546q9 45 123 142q107 94 158 114q36 14 61 14q64 0 139 -82q55 -60 94 -137q14 -25 10 -44q-5 -26 -29 -46t-50 -20q-39 0 -97 87q-69 99 -100 112l3 4q-23 -6 -116 -82q-59 -50 -119 -101q-86 0 -77 39z" />
<glyph unicode="&#xcf;" horiz-adv-x="601" d="M174 79q8 37 117 37q26 159 125 621q9 60 50 251q24 147 46 251q-50 2 -98 12q-9 38 -3 68q8 36 53 36q6 0 19.5 -1.5t19.5 -1.5q43 0 128 6.5t128 6.5q55 0 45 -49q-11 -50 -77 -65q-22 -5 -105 -9q-10 -93 -90 -469q-42 -218 -135 -654q80 -1 98 -5q50 -13 40 -61 q-11 -53 -274 -53q-43 0 -73 3q-21 43 -14 76zM544 1591q7 34 50.5 73t78.5 39q64 0 44 -92q-17 -84 -121 -84q-25 0 -41 19t-11 45zM884 1615q20 92 104 92q27 0 46.5 -20.5t13.5 -48.5q-8 -39 -41 -69.5t-73 -30.5q-25 0 -40 25.5t-10 51.5z" />
<glyph unicode="&#xd1;" horiz-adv-x="1106" d="M130 0q-57 0 112 794q17 73 43 217t41 218q23 109 51 124q8 6 49 6q27 0 36 -12q74 -87 152 -297q27 -69 111 -328q74 -225 147 -475l119 564q18 85 51 257.5t51 257.5q3 15 36 29q26 10 45 10q21 0 23 -29q6 -70 -45 -310l-206 -970q-12 -56 -99 -56q-24 0 -41 27 q-22 36 -37 99q-12 53 -25 106q-137 510 -314 917q-21 -110 -196 -931q-3 -18 -8.5 -54t-9.5 -55q-23 -109 -86 -109zM588 1594q3 14 15 32q43 69 113 114t142 45q79 0 130 -50.5t64 -50.5q43 0 99 54t86 54q62 0 49 -60q-14 -65 -107 -123t-162 -58q-61 0 -105 55.5 t-80 55.5q-49 0 -106 -64t-88 -64q-24 0 -39.5 18t-10.5 42z" />
<glyph unicode="&#xd2;" horiz-adv-x="1070" d="M134 592q58 272 212 493q194 280 435 280q232 0 310 -249q63 -201 9 -457q-54 -255 -204 -439q-178 -220 -415 -220q-236 0 -322 186q-77 160 -25 406zM254 602q-45 -211 10 -334q67 -145 268 -145q162 0 294 194q105 156 143 338q37 173 18 316q-26 183 -139 244 q-47 26 -80 26q-61 0 -142 -38q-149 -68 -253 -263q-79 -150 -119 -338zM629 1737q5 24 30 41t50 17q17 0 38 -15q29 -23 81 -104q54 -88 48 -117q-6 -25 -31.5 -44t-50.5 -19q-26 0 -50 33q-124 170 -115 208z" />
<glyph unicode="&#xd3;" horiz-adv-x="1070" d="M134 592q58 272 212 493q194 280 435 280q232 0 310 -249q63 -201 9 -457q-54 -255 -204 -439q-178 -220 -415 -220q-236 0 -322 186q-77 160 -25 406zM254 602q-45 -211 10 -334q67 -145 268 -145q162 0 294 194q105 156 143 338q37 173 18 316q-26 183 -139 244 q-47 26 -80 26q-61 0 -142 -38q-149 -68 -253 -263q-79 -150 -119 -338zM749 1548q6 29 89 111q65 66 114 106q34 27 57 27q24 0 39.5 -17t10.5 -41q-8 -36 -118 -138.5t-142 -102.5q-24 0 -39.5 16.5t-10.5 38.5z" />
<glyph unicode="&#xd4;" horiz-adv-x="1067" d="M131 592q58 272 212 493q194 280 435 280q232 0 310 -249q63 -201 9 -457q-54 -255 -204 -439q-178 -220 -415 -220q-236 0 -322 186q-77 160 -25 406zM251 602q-45 -211 10 -334q67 -145 268 -145q162 0 294 194q105 156 143 338q37 173 18 316q-26 183 -139 244 q-47 26 -80 26q-61 0 -142 -38q-149 -68 -253 -263q-79 -150 -119 -338zM574 1546q9 45 123 142q107 94 158 114q36 14 61 14q64 0 139 -82q55 -60 94 -137q14 -25 10 -44q-5 -26 -29 -46t-50 -20q-39 0 -97 87q-69 99 -100 112l3 4q-23 -6 -116 -82q-59 -50 -119 -101 q-86 0 -77 39z" />
<glyph unicode="&#xd5;" horiz-adv-x="1070" d="M134 592q58 272 212 493q194 280 435 280q232 0 310 -249q63 -201 9 -457q-54 -255 -204 -439q-178 -220 -415 -220q-236 0 -322 186q-77 160 -25 406zM254 602q-45 -211 10 -334q67 -145 268 -145q162 0 294 194q105 156 143 338q37 173 18 316q-26 183 -139 244 q-47 26 -80 26q-61 0 -142 -38q-149 -68 -253 -263q-79 -150 -119 -338zM582 1594q3 14 15 32q43 69 113 114t142 45q79 0 130 -50.5t64 -50.5q43 0 99 54t86 54q62 0 49 -60q-14 -65 -107 -123t-162 -58q-61 0 -105 55.5t-80 55.5q-49 0 -106 -64t-88 -64q-24 0 -39.5 18 t-10.5 42z" />
<glyph unicode="&#xd6;" horiz-adv-x="1075" d="M139 592q58 272 212 493q194 280 435 280q232 0 310 -249q63 -201 9 -457q-54 -255 -204 -439q-178 -220 -415 -220q-236 0 -322 186q-77 160 -25 406zM259 602q-45 -211 10 -334q67 -145 268 -145q162 0 294 194q105 156 143 338q37 173 18 316q-26 183 -139 244 q-47 26 -80 26q-61 0 -142 -38q-149 -68 -253 -263q-79 -150 -119 -338zM684 1591q7 34 50.5 73t78.5 39q64 0 44 -92q-17 -84 -121 -84q-25 0 -41 19t-11 45zM1024 1615q20 92 104 92q27 0 46.5 -20.5t13.5 -48.5q-8 -39 -41 -69.5t-73 -30.5q-25 0 -40 25.5t-10 51.5z" />
<glyph unicode="&#xd7;" horiz-adv-x="763" d="M269 560q4 17 146 153q-38 41 -74 82q-53 63 -47 89q5 26 28 47t49 21q39 0 149 -135q163 156 218 156q24 0 38 -19.5t8 -43.5q-4 -19 -24 -40q-30 -30 -87 -71q-70 -50 -90 -67q105 -153 98 -188q-6 -25 -31.5 -44.5t-50.5 -19.5q-29 0 -73 63q-27 46 -55 90 q-135 -128 -161 -128q-53 0 -41 55z" />
<glyph unicode="&#xd8;" horiz-adv-x="1044" d="M172 592q58 272 213 493q193 280 434 280q77 0 141 -30q22 17 49 17q63 0 51 -60q-3 -10 -9 -27q85 -101 105 -280q18 -159 -18 -326q-54 -255 -204 -439q-178 -220 -415 -220q-72 0 -133 19q-24 -33 -63 -33q-63 0 -51 57q3 12 11 29q-189 152 -111 520zM292 602 q-60 -283 58 -402q89 164 424 802q33 73 103 217q-46 22 -70 22q-62 0 -140 -36q-151 -70 -255 -263q-79 -148 -120 -340zM459 137q50 -14 111 -14q163 0 294 194q106 156 144 338q63 294 -29 465q-231 -429 -520 -983z" />
<glyph unicode="&#xd9;" horiz-adv-x="1060" d="M177 698q27 123 80 314q74 258 90 314q48 31 84 31q24 0 18 -31q-21 -97 -71 -292.5t-70 -292.5q-131 -613 128 -613q360 0 535 823q13 59 35 177t35 178q12 59 70 59q46 0 54 -59q6 -43 -43 -277q-219 -1027 -708 -1027q-385 0 -237 696zM611 1734q5 24 30 41t50 17 q17 0 38 -15q29 -23 81 -104q54 -88 48 -117q-6 -25 -31.5 -44t-50.5 -19q-26 0 -50 33q-124 170 -115 208z" />
<glyph unicode="&#xda;" horiz-adv-x="1062" d="M178 698q27 123 80 314q74 258 90 314q48 31 84 31q24 0 18 -31q-21 -97 -71 -292.5t-70 -292.5q-131 -613 128 -613q360 0 535 823q13 59 35 177t35 178q12 59 70 59q46 0 54 -59q6 -43 -43 -277q-219 -1027 -708 -1027q-385 0 -237 696zM754 1548q6 29 89 111 q65 66 114 106q34 27 57 27q24 0 39.5 -17t10.5 -41q-8 -36 -118 -138.5t-142 -102.5q-24 0 -39.5 16.5t-10.5 38.5z" />
<glyph unicode="&#xdb;" horiz-adv-x="1062" d="M178 698q27 123 80 314q74 258 90 314q48 31 84 31q24 0 18 -31q-21 -97 -71 -292.5t-70 -292.5q-131 -613 128 -613q360 0 535 823q13 59 35 177t35 178q12 59 70 59q46 0 54 -59q6 -43 -43 -277q-219 -1027 -708 -1027q-385 0 -237 696zM566 1546q9 45 123 142 q107 94 158 114q36 14 61 14q64 0 139 -82q55 -60 94 -137q14 -25 10 -44q-5 -26 -29 -46t-50 -20q-39 0 -97 87q-69 99 -100 112l3 4q-23 -6 -116 -82q-59 -50 -119 -101q-86 0 -77 39z" />
<glyph unicode="&#xdc;" horiz-adv-x="1062" d="M178 698q27 123 80 314q74 258 90 314q48 31 84 31q24 0 18 -31q-21 -97 -71 -292.5t-70 -292.5q-131 -613 128 -613q360 0 535 823q13 59 35 177t35 178q12 59 70 59q46 0 54 -59q6 -43 -43 -277q-219 -1027 -708 -1027q-385 0 -237 696zM684 1591q7 34 50.5 73t78.5 39 q64 0 44 -92q-17 -84 -121 -84q-25 0 -41 19t-11 45zM1024 1615q20 92 104 92q27 0 46.5 -20.5t13.5 -48.5q-8 -39 -41 -69.5t-73 -30.5q-25 0 -40 25.5t-10 51.5z" />
<glyph unicode="&#xdd;" horiz-adv-x="918" d="M306 1292q46 70 80 70q21 0 55 -84q21 -53 207 -476q121 116 346 357q45 61 149 177q30 29 54 29q25 0 41 -18t11 -43q-11 -53 -257 -318q-156 -163 -314 -327q-44 -248 -90 -466q-19 -89 -44 -164q-43 -29 -79 -29q-43 0 -13 142q7 34 23 101.5t23 101.5q24 111 66 307 q-145 278 -258 640zM713 1548q6 29 89 111q65 66 114 106q34 27 57 27q24 0 39.5 -17t10.5 -41q-8 -36 -118 -138.5t-142 -102.5q-24 0 -39.5 16.5t-10.5 38.5z" />
<glyph unicode="&#xde;" horiz-adv-x="1147" d="M241 338q6 29 31.5 47.5t53.5 12.5q44 203 130 607q-36 -3 -73 -7q-28 45 -22 77q8 33 124 46l23 106q29 138 93 138q53 0 41 -56q-11 -51 -38 -179h25q285 0 462 -111q216 -137 161 -399q-45 -210 -269 -313q-174 -82 -404 -82q-98 0 -178 14q-4 -17 -18 -73 q-10 -48 -15 -74q-20 -92 -78 -92q-54 0 -43 53q8 37 25.5 108t25.5 105q-69 16 -57 72zM429 370q74 -12 161 -12q179 0 308 45q189 63 220 210q47 218 -151 321q-148 76 -395 76q-65 -273 -143 -640z" />
<glyph unicode="&#xdf;" horiz-adv-x="1109" d="M139 -234q5 21 49 179q73 263 103 401q31 149 85 447t85 446q27 126 126 126q235 0 410 -97q215 -121 170 -333q-35 -164 -248 -239q111 -44 171 -121q73 -90 49 -203q-42 -196 -265 -295q-173 -77 -393 -77q-25 0 -50 17t-20 41q13 58 87 58q167 0 297 46 q184 67 213 207q25 114 -90 187q-85 55 -216 74q-42 1 -120 17q-44 13 -35 56q6 26 27.5 46.5t45.5 20.5q129 0 239 32q163 48 184 147q43 203 -320 275q-71 13 -107 13t-59 -109q4 -12 -30 -171q-57 -361 -118 -646q-76 -357 -153 -535q-32 -73 -77 -73q-53 0 -40 63z" />
<glyph unicode="&#xe0;" horiz-adv-x="896" d="M114 393q35 168 191 297t325 129q89 0 161 -39q22 49 70 49q67 0 37 -143q-16 -75 -53.5 -222.5t-53.5 -222.5q-20 -93 -25 -174q-57 -53 -90 -53q-29 0 -17 88q-151 -102 -298 -102q-157 0 -223 121q-59 109 -24 272zM245 382q-20 -97 12 -167q35 -80 128 -80 q140 0 293 130q14 63 39 182q34 128 46 183q-23 5 -79 34q-42 22 -85 22q-118 0 -223.5 -93t-130.5 -211zM458 1223q5 24 30 41t50 17q17 0 38 -15q29 -23 81 -104q54 -88 48 -117q-6 -25 -31.5 -44t-50.5 -19q-26 0 -50 33q-124 170 -115 208z" />
<glyph unicode="&#xe1;" horiz-adv-x="869" d="M85 393q35 168 191 297t325 129q89 0 161 -39q22 49 70 49q67 0 37 -143q-16 -75 -53.5 -222.5t-53.5 -222.5q-20 -93 -25 -174q-57 -53 -90 -53q-29 0 -17 88q-151 -102 -298 -102q-157 0 -223 121q-59 109 -24 272zM216 382q-20 -97 12 -167q35 -80 128 -80 q140 0 293 130q14 63 39 182q34 128 46 183q-23 5 -79 34q-42 22 -85 22q-118 0 -223.5 -93t-130.5 -211zM570 1037q6 29 89 111q65 66 114 106q34 27 57 27q24 0 39.5 -17t10.5 -41q-8 -36 -118 -138.5t-142 -102.5q-24 0 -39.5 16.5t-10.5 38.5z" />
<glyph unicode="&#xe2;" horiz-adv-x="893" d="M106 393q35 168 191 297t325 129q89 0 161 -39q22 49 70 49q67 0 37 -143q-16 -75 -53.5 -222.5t-53.5 -222.5q-20 -93 -25 -174q-57 -53 -90 -53q-29 0 -17 88q-151 -102 -298 -102q-157 0 -223 121q-59 109 -24 272zM237 382q-20 -97 12 -167q35 -80 128 -80 q140 0 293 130q14 63 39 182q34 128 46 183q-23 5 -79 34q-42 22 -85 22q-118 0 -223.5 -93t-130.5 -211zM386 1035q9 45 123 142q107 94 158 114q36 14 61 14q64 0 139 -82q55 -60 94 -137q14 -25 10 -44q-5 -26 -29 -46t-50 -20q-39 0 -97 87q-69 99 -100 112l3 4 q-23 -6 -116 -82q-59 -50 -119 -101q-86 0 -77 39z" />
<glyph unicode="&#xe3;" horiz-adv-x="881" d="M106 393q35 168 191 297t325 129q89 0 161 -39q22 49 70 49q67 0 37 -143q-16 -75 -53.5 -222.5t-53.5 -222.5q-20 -93 -25 -174q-57 -53 -90 -53q-29 0 -17 88q-151 -102 -298 -102q-157 0 -223 121q-59 109 -24 272zM237 382q-20 -97 12 -167q35 -80 128 -80 q140 0 293 130q14 63 39 182q34 128 46 183q-23 5 -79 34q-42 22 -85 22q-118 0 -223.5 -93t-130.5 -211zM390 1083q3 14 15 32q43 69 113 114t142 45q79 0 130 -50.5t64 -50.5q43 0 99 54t86 54q62 0 49 -60q-14 -65 -107 -123t-162 -58q-61 0 -105 55.5t-80 55.5 q-49 0 -106 -64t-88 -64q-24 0 -39.5 18t-10.5 42z" />
<glyph unicode="&#xe4;" horiz-adv-x="872" d="M85 393q35 168 191 297t325 129q89 0 161 -39q22 49 70 49q67 0 37 -143q-16 -75 -53.5 -222.5t-53.5 -222.5q-20 -93 -25 -174q-57 -53 -90 -53q-29 0 -17 88q-151 -102 -298 -102q-157 0 -223 121q-59 109 -24 272zM216 382q-20 -97 12 -167q35 -80 128 -80 q140 0 293 130q14 63 39 182q34 128 46 183q-23 5 -79 34q-42 22 -85 22q-118 0 -223.5 -93t-130.5 -211zM467 1080q7 34 50.5 73t78.5 39q64 0 44 -92q-17 -84 -121 -84q-25 0 -41 19t-11 45zM807 1104q20 92 104 92q27 0 46.5 -20.5t13.5 -48.5q-8 -39 -41 -69.5 t-73 -30.5q-25 0 -40 25.5t-10 51.5z" />
<glyph unicode="&#xe5;" horiz-adv-x="870" d="M85 393q35 168 191 297t325 129q89 0 161 -39q22 49 70 49q67 0 37 -143q-16 -75 -53.5 -222.5t-53.5 -222.5q-20 -93 -25 -174q-57 -53 -90 -53q-29 0 -17 88q-151 -102 -298 -102q-157 0 -223 121q-59 109 -24 272zM216 382q-20 -97 12 -167q35 -80 128 -80 q140 0 293 130q14 63 39 182q34 128 46 183q-23 5 -79 34q-42 22 -85 22q-118 0 -223.5 -93t-130.5 -211zM448 1107q18 84 92.5 144.5t158.5 60.5q80 0 129 -46q52 -52 35 -130q-18 -85 -90.5 -140.5t-159.5 -55.5q-77 0 -126 44q-55 50 -39 123zM555 1114q-7 -34 24 -53 q28 -16 64 -16q39 0 73 27.5t43 66.5q13 63 -86 63q-38 0 -74 -26t-44 -62z" />
<glyph unicode="&#xe6;" horiz-adv-x="1434" d="M135 387q36 169 191 296.5t324 127.5q90 0 163 -40q22 50 70 50q67 0 37 -138q142 131 291 131q112 0 183.5 -110t47.5 -224q-9 -43 -71 -60q-91 -26 -268 -26q-162 0 -230 5l-2 -8q-23 -108 38.5 -186.5t168.5 -78.5q69 0 175 55t116 55q26 0 42.5 -19t11.5 -45 q-4 -18 -28 -42q-59 -58 -161.5 -97.5t-183.5 -39.5q-164 0 -256 130q-4 -51 -9 -75q-11 -55 -69 -55q-48 0 -36 101q-149 -101 -297 -101q-159 0 -224 121q-58 110 -24 273zM268 375q-21 -97 10 -167q36 -82 128 -82q116 0 293 130q14 65 39 183q35 129 46 182 q-26 5 -73 34q-38 24 -91 24q-118 0 -222.5 -93t-129.5 -211zM927 509q126 3 387 23q-22 152 -136 152q-64 0 -140 -59q-64 -50 -111 -116z" />
<glyph unicode="&#xe8;" horiz-adv-x="763" d="M67 396q34 157 170 287q146 138 300 138q107 0 169 -91q54 -76 62 -191q3 -36 -1 -53q-9 -42 -70 -59q-90 -26 -334 -26q-96 0 -163 5q-23 -111 35.5 -192t167.5 -81q65 0 170.5 53t120.5 53q26 0 43 -17t11 -43q-4 -19 -28 -42q-56 -58 -164 -99q-101 -38 -181 -38 q-159 0 -250.5 118.5t-57.5 277.5zM252 514q101 1 388 25q-22 152 -137 152q-63 0 -141 -60q-62 -49 -110 -117zM377 1223q5 24 30 41t50 17q17 0 38 -15q29 -23 81 -104q54 -88 48 -117q-6 -25 -31.5 -44t-50.5 -19q-26 0 -50 33q-124 170 -115 208z" />
<glyph unicode="&#xe9;" horiz-adv-x="770" d="M68 396q34 157 170 287q146 138 300 138q107 0 169 -91q54 -76 62 -191q3 -36 -1 -53q-9 -42 -70 -59q-90 -26 -334 -26q-96 0 -163 5q-23 -111 35.5 -192t167.5 -81q65 0 170.5 53t120.5 53q26 0 43 -17t11 -43q-4 -19 -28 -42q-56 -58 -164 -99q-101 -38 -181 -38 q-159 0 -250.5 118.5t-57.5 277.5zM253 514q101 1 388 25q-22 152 -137 152q-63 0 -141 -60q-62 -49 -110 -117zM535 1037q6 29 89 111q65 66 114 106q34 27 57 27q24 0 39.5 -17t10.5 -41q-8 -36 -118 -138.5t-142 -102.5q-24 0 -39.5 16.5t-10.5 38.5z" />
<glyph unicode="&#xea;" horiz-adv-x="768" d="M68 396q34 157 170 287q146 138 300 138q107 0 169 -91q54 -76 62 -191q3 -36 -1 -53q-9 -42 -70 -59q-90 -26 -334 -26q-96 0 -163 5q-23 -111 35.5 -192t167.5 -81q65 0 170.5 53t120.5 53q26 0 43 -17t11 -43q-4 -19 -28 -42q-56 -58 -164 -99q-101 -38 -181 -38 q-159 0 -250.5 118.5t-57.5 277.5zM253 514q101 1 388 25q-22 152 -137 152q-63 0 -141 -60q-62 -49 -110 -117zM332 1035q9 45 123 142q107 94 158 114q36 14 61 14q64 0 139 -82q55 -60 94 -137q14 -25 10 -44q-5 -26 -29 -46t-50 -20q-39 0 -97 87q-69 99 -100 112l3 4 q-23 -6 -116 -82q-59 -50 -119 -101q-86 0 -77 39z" />
<glyph unicode="&#xeb;" horiz-adv-x="768" d="M73 396q34 157 170 287q146 138 300 138q107 0 169 -91q54 -76 62 -191q3 -36 -1 -53q-9 -42 -70 -59q-90 -26 -334 -26q-96 0 -163 5q-23 -111 35.5 -192t167.5 -81q65 0 170.5 53t120.5 53q26 0 43 -17t11 -43q-4 -19 -28 -42q-56 -58 -164 -99q-101 -38 -181 -38 q-159 0 -250.5 118.5t-57.5 277.5zM258 514q101 1 388 25q-22 152 -137 152q-63 0 -141 -60q-62 -49 -110 -117zM455 1080q7 34 50.5 73t78.5 39q64 0 44 -92q-17 -84 -121 -84q-25 0 -41 19t-11 45zM795 1104q20 92 104 92q27 0 46.5 -20.5t13.5 -48.5q-8 -39 -41 -69.5 t-73 -30.5q-25 0 -40 25.5t-10 51.5z" />
<glyph unicode="&#xec;" horiz-adv-x="505" d="M336 55q13 61 36 169q34 121 85 358q24 113 49.5 166.5t71.5 53.5q53 0 42 -56q-15 -68 -40 -186q-39 -137 -51 -185q-21 -90 -40 -179q-27 -104 -56 -179q-42 -17 -69 -17q-40 0 -28 55zM363 1223q5 24 30 41t50 17q17 0 38 -15q29 -23 81 -104q54 -88 48 -117 q-6 -25 -31.5 -44t-50.5 -19q-26 0 -50 33q-124 170 -115 208z" />
<glyph unicode="&#xed;" horiz-adv-x="331" d="M117 55q13 61 36 169q34 121 85 358q24 113 49.5 166.5t71.5 53.5q53 0 42 -56q-15 -68 -40 -186q-39 -137 -51 -185q-21 -90 -40 -179q-27 -104 -56 -179q-42 -17 -69 -17q-40 0 -28 55zM233 1037q6 29 89 111q65 66 114 106q34 27 57 27q24 0 39.5 -17t10.5 -41 q-8 -36 -118 -138.5t-142 -102.5q-24 0 -39.5 16.5t-10.5 38.5z" />
<glyph unicode="&#xee;" horiz-adv-x="657" d="M352 1035q9 45 123 142q107 94 158 114q36 14 61 14q64 0 139 -82q55 -60 94 -137q14 -25 10 -44q-5 -26 -29 -46t-50 -20q-39 0 -97 87q-69 99 -100 112l3 4q-23 -6 -116 -82q-59 -50 -119 -101q-86 0 -77 39zM406 55q13 61 36 169q34 121 85 358q24 113 49.5 166.5 t71.5 53.5q53 0 42 -56q-15 -68 -40 -186q-39 -137 -51 -185q-21 -90 -40 -179q-27 -104 -56 -179q-42 -17 -69 -17q-40 0 -28 55z" />
<glyph unicode="&#xef;" horiz-adv-x="599" d="M377 55q13 61 36 169q34 121 85 358q24 113 49.5 166.5t71.5 53.5q53 0 42 -56q-15 -68 -40 -186q-39 -137 -51 -185q-21 -90 -40 -179q-27 -104 -56 -179q-42 -17 -69 -17q-40 0 -28 55zM424 1080q7 34 50.5 73t78.5 39q64 0 44 -92q-17 -84 -121 -84q-25 0 -41 19 t-11 45zM764 1104q20 92 104 92q27 0 46.5 -20.5t13.5 -48.5q-8 -39 -41 -69.5t-73 -30.5q-25 0 -40 25.5t-10 51.5z" />
<glyph unicode="&#xf1;" horiz-adv-x="795" d="M59 80q24 111 72 340q30 121 81 362q55 29 87 29q35 0 19 -67q109 80 230 80q297 0 212 -401q-13 -59 -47.5 -178.5t-47.5 -179.5q-6 -26 -27 -44.5t-46 -18.5q-65 0 -38 123q10 51 39 150.5t40 151.5q58 276 -116 276q-133 0 -232 -131l-97 -456q-25 -116 -88 -116 q-58 0 -41 80zM339 1083q3 14 15 32q43 69 113 114t142 45q79 0 130 -50.5t64 -50.5q43 0 99 54t86 54q62 0 49 -60q-14 -65 -107 -123t-162 -58q-61 0 -105 55.5t-80 55.5q-49 0 -106 -64t-88 -64q-24 0 -39.5 18t-10.5 42z" />
<glyph unicode="&#xf2;" horiz-adv-x="765" d="M81 377q37 174 146 302q128 149 291 149q154 0 215 -130q53 -114 19 -275q-36 -170 -142 -288q-121 -135 -283 -135q-152 0 -218 114q-61 106 -28 263zM205 391q-56 -266 156 -266q101 0 179 104q63 83 87 194q21 101 -9 183q-34 97 -128 97q-219 0 -285 -312zM409 1223 q5 24 30 41t50 17q17 0 38 -15q29 -23 81 -104q54 -88 48 -117q-6 -25 -31.5 -44t-50.5 -19q-26 0 -50 33q-124 170 -115 208z" />
<glyph unicode="&#xf3;" horiz-adv-x="756" d="M81 377q37 174 146 302q128 149 291 149q154 0 215 -130q53 -114 19 -275q-36 -170 -142 -288q-121 -135 -283 -135q-152 0 -218 114q-61 106 -28 263zM205 391q-56 -266 156 -266q101 0 179 104q63 83 87 194q21 101 -9 183q-34 97 -128 97q-219 0 -285 -312zM515 1037 q6 29 89 111q65 66 114 106q34 27 57 27q24 0 39.5 -17t10.5 -41q-8 -36 -118 -138.5t-142 -102.5q-24 0 -39.5 16.5t-10.5 38.5z" />
<glyph unicode="&#xf4;" horiz-adv-x="766" d="M88 377q37 174 146 302q128 149 291 149q154 0 215 -130q53 -114 19 -275q-36 -170 -142 -288q-121 -135 -283 -135q-152 0 -218 114q-61 106 -28 263zM212 391q-56 -266 156 -266q101 0 179 104q63 83 87 194q21 101 -9 183q-34 97 -128 97q-219 0 -285 -312zM335 1035 q9 45 123 142q107 94 158 114q36 14 61 14q64 0 139 -82q55 -60 94 -137q14 -25 10 -44q-5 -26 -29 -46t-50 -20q-39 0 -97 87q-69 99 -100 112l3 4q-23 -6 -116 -82q-59 -50 -119 -101q-86 0 -77 39z" />
<glyph unicode="&#xf5;" horiz-adv-x="777" d="M88 377q37 174 146 302q128 149 291 149q154 0 215 -130q53 -114 19 -275q-36 -170 -142 -288q-121 -135 -283 -135q-152 0 -218 114q-61 106 -28 263zM212 391q-56 -266 156 -266q101 0 179 104q63 83 87 194q21 101 -9 183q-34 97 -128 97q-219 0 -285 -312zM339 1083 q3 14 15 32q43 69 113 114t142 45q79 0 130 -50.5t64 -50.5q43 0 99 54t86 54q62 0 49 -60q-14 -65 -107 -123t-162 -58q-61 0 -105 55.5t-80 55.5q-49 0 -106 -64t-88 -64q-24 0 -39.5 18t-10.5 42z" />
<glyph unicode="&#xf6;" horiz-adv-x="748" d="M83 377q37 174 146 302q128 149 291 149q154 0 215 -130q53 -114 19 -275q-36 -170 -142 -288q-121 -135 -283 -135q-152 0 -218 114q-61 106 -28 263zM207 391q-56 -266 156 -266q101 0 179 104q63 83 87 194q21 101 -9 183q-34 97 -128 97q-219 0 -285 -312zM431 1080 q7 34 50.5 73t78.5 39q64 0 44 -92q-17 -84 -121 -84q-25 0 -41 19t-11 45zM771 1104q20 92 104 92q27 0 46.5 -20.5t13.5 -48.5q-8 -39 -41 -69.5t-73 -30.5q-25 0 -40 25.5t-10 51.5z" />
<glyph unicode="&#xf7;" horiz-adv-x="604" d="M186 666q7 34 47 46.5t218 12.5q32 0 96 6t96 6q64 0 51 -61q-16 -72 -201 -72q-44 0 -132 3.5t-132 3.5q-55 0 -43 55zM311 437q8 37 46 75.5t74 38.5t62 -27t18 -63q-8 -38 -52 -62.5t-83 -24.5q-79 0 -65 63zM400 908q9 43 41 77t73 34q38 0 56.5 -26.5t10.5 -64.5 q-7 -35 -48.5 -69.5t-77.5 -34.5q-31 0 -46.5 26.5t-8.5 57.5z" />
<glyph unicode="&#xf8;" horiz-adv-x="751" d="M121 31q2 10 42 63q-77 107 -40 283q37 174 146 302q127 149 291 149q60 0 104 -19q39 65 87 65q20 0 40 -13.5t16 -34.5q-3 -10 -58 -87q86 -118 44 -316q-36 -169 -141 -288q-121 -135 -283 -135q-69 0 -122 26q-30 -40 -69 -40q-21 0 -41 13t-16 32zM247 391 q-23 -108 2 -176q113 159 337 478q-26 10 -55 10q-218 0 -284 -312zM328 137q34 -12 74 -12q101 0 179 104q64 83 88 194q22 103 -11 186q-108 -158 -330 -472z" />
<glyph unicode="&#xf9;" horiz-adv-x="853" d="M167 596q30 141 58 185.5t69 44.5q69 0 55 -63q-8 -39 -31 -119.5t-32 -119.5q-30 -142 -19 -244q15 -154 122 -154q94 0 183 96q77 83 107 184q13 45 44 191q24 118 54 190q42 22 77 22q34 0 16 -85q-6 -26 -19 -79q-11 -51 -77 -363q-8 -38 -22.5 -113t-22.5 -113 q-12 -56 -68 -56q-46 0 -48 48q-1 19 13 83q-122 -131 -265 -131q-321 0 -194 596zM441 1223q5 24 30 41t50 17q17 0 38 -15q29 -23 81 -104q54 -88 48 -117q-6 -25 -31.5 -44t-50.5 -19q-26 0 -50 33q-124 170 -115 208z" />
<glyph unicode="&#xfa;" horiz-adv-x="845" d="M161 596q30 141 58 185.5t69 44.5q69 0 55 -63q-8 -39 -31 -119.5t-32 -119.5q-30 -142 -19 -244q15 -154 122 -154q94 0 183 96q77 83 107 184q13 45 44 191q24 118 54 190q42 22 77 22q34 0 16 -85q-6 -26 -19 -79q-11 -51 -77 -363q-8 -38 -22.5 -113t-22.5 -113 q-12 -56 -68 -56q-46 0 -48 48q-1 19 13 83q-122 -131 -265 -131q-321 0 -194 596zM524 1037q6 29 89 111q65 66 114 106q34 27 57 27q24 0 39.5 -17t10.5 -41q-8 -36 -118 -138.5t-142 -102.5q-24 0 -39.5 16.5t-10.5 38.5z" />
<glyph unicode="&#xfb;" horiz-adv-x="845" d="M154 596q30 141 58 185.5t69 44.5q69 0 55 -63q-8 -39 -31 -119.5t-32 -119.5q-30 -142 -19 -244q15 -154 122 -154q94 0 183 96q77 83 107 184q13 45 44 191q24 118 54 190q42 22 77 22q34 0 16 -85q-6 -26 -19 -79q-11 -51 -77 -363q-8 -38 -22.5 -113t-22.5 -113 q-12 -56 -68 -56q-46 0 -48 48q-1 19 13 83q-122 -131 -265 -131q-321 0 -194 596zM364 1035q9 45 123 142q107 94 158 114q36 14 61 14q64 0 139 -82q55 -60 94 -137q14 -25 10 -44q-5 -26 -29 -46t-50 -20q-39 0 -97 87q-69 99 -100 112l3 4q-23 -6 -116 -82 q-59 -50 -119 -101q-86 0 -77 39z" />
<glyph unicode="&#xfc;" horiz-adv-x="829" d="M140 596q30 141 58 185.5t69 44.5q69 0 55 -63q-8 -39 -31 -119.5t-32 -119.5q-30 -142 -19 -244q15 -154 122 -154q94 0 183 96q77 83 107 184q13 45 44 191q24 118 54 190q42 22 77 22q34 0 16 -85q-6 -26 -19 -79q-11 -51 -77 -363q-8 -38 -22.5 -113t-22.5 -113 q-12 -56 -68 -56q-46 0 -48 48q-1 19 13 83q-122 -131 -265 -131q-321 0 -194 596zM451 1080q7 34 50.5 73t78.5 39q64 0 44 -92q-17 -84 -121 -84q-25 0 -41 19t-11 45zM791 1104q20 92 104 92q27 0 46.5 -20.5t13.5 -48.5q-8 -39 -41 -69.5t-73 -30.5q-25 0 -40 25.5 t-10 51.5z" />
<glyph unicode="&#xfd;" horiz-adv-x="802" d="M47 -309q1 5 272 369q-35 177 -110 529q-15 56 -28 172q50 56 84 56q12 0 19 -13q15 -31 43 -169q35 -143 98 -430q158 222 273 409q34 62 114 176q26 29 52 29q24 0 42 -17t13 -41q-1 -3 -9 -17q-162 -266 -368 -558q-233 -331 -404 -531h-9q-89 0 -82 36zM484 1037 q6 29 89 111q65 66 114 106q34 27 57 27q24 0 39.5 -17t10.5 -41q-8 -36 -118 -138.5t-142 -102.5q-24 0 -39.5 16.5t-10.5 38.5z" />
<glyph unicode="&#xfe;" horiz-adv-x="1145" d="M191 113q6 29 31.5 47.5t53.5 11.5q45 203 131 608q-37 -3 -74 -7q-28 44 -21 77q6 32 124 46l23 106q29 138 92 138q53 0 41 -56q-10 -51 -38 -179h25q285 0 462 -111q217 -137 161 -400q-45 -210 -269 -312q-174 -82 -404 -82q-97 0 -178 14q-4 -17 -18 -74 q-10 -48 -15 -73q-20 -92 -78 -92q-54 0 -43 53q8 37 25.5 108t25.5 105q-69 15 -57 72zM379 145q74 -12 161 -12q179 0 309 44q188 64 219 210q47 219 -152 321q-147 77 -394 77q-65 -273 -143 -640z" />
<glyph unicode="&#xff;" horiz-adv-x="797" d="M46 -309q1 5 272 369q-35 177 -110 529q-15 56 -28 172q50 56 84 56q12 0 19 -13q15 -31 43 -169q35 -143 98 -430q158 222 273 409q34 62 114 176q26 29 52 29q24 0 42 -17t13 -41q-1 -3 -9 -17q-162 -266 -368 -558q-233 -331 -404 -531h-9q-89 0 -82 36zM431 1080 q7 34 50.5 73t78.5 39q64 0 44 -92q-17 -84 -121 -84q-25 0 -41 19t-11 45zM771 1104q20 92 104 92q27 0 46.5 -20.5t13.5 -48.5q-8 -39 -41 -69.5t-73 -30.5q-25 0 -40 25.5t-10 51.5z" />
<glyph unicode="&#x152;" horiz-adv-x="1814" d="M297 589q55 258 188 476q178 290 395 290q130 0 207 -113q63 -90 77 -232l61 289q14 66 171 66q37 0 110.5 -1.5t111.5 -1.5q22 0 68 1.5t68 1.5q84 0 125 -10q51 -14 41 -60q-11 -53 -65 -53q-72 0 -213 3t-213 3t-106 1q-30 -191 -92 -481q21 0 67 -2h68q45 0 136 8 t135 8q55 0 44 -53q-10 -46 -68 -62q-70 -18 -207 -18q-165 0 -202 6l-113 -532q314 12 472 12q106 0 92 -65q-12 -56 -97 -56h-63q-41 1 -62 1q-97 0 -153 -1q-228 -7 -202 -7q-96 0 -114 31q-14 25 7 124q6 26 18 75.5t17 71.5q-180 -309 -421 -309q-64 0 -102 15 q-284 113 -186 574zM408 292q40 -169 203 -169q151 0 274 212q92 157 130 339q39 181 2 347q-46 208 -203 208q-121 0 -255 -260q-101 -199 -137 -365q-40 -189 -14 -312z" />
<glyph unicode="&#x153;" horiz-adv-x="1580" d="M247 381q36 170 144 298q128 149 290 149q193 0 237 -191q163 189 345 189q113 0 186 -110t49 -224q-9 -41 -73 -60q-88 -26 -267 -26q-162 0 -230 5l-1 -8q-23 -108 37 -186.5t168 -78.5q69 0 175 54.5t118 54.5q26 0 40.5 -18.5t8.5 -44.5q-4 -20 -26 -42 q-58 -58 -164 -99q-99 -38 -179 -38q-210 0 -290 184q-131 -189 -327 -189q-152 0 -217 118q-57 106 -24 263zM371 393q-57 -268 154 -268q104 0 182 111q63 88 87 203q18 85 -14 174q-39 92 -127 92q-216 0 -282 -312zM980 521q124 3 387 23q-23 152 -135 152 q-63 0 -141 -59q-65 -50 -111 -116z" />
<glyph unicode="&#x178;" horiz-adv-x="997" d="M306 1292q46 70 80 70q21 0 55 -84q21 -53 207 -476q121 116 346 357q45 61 149 177q30 29 54 29q25 0 41 -18t11 -43q-11 -53 -257 -318q-156 -163 -314 -327q-44 -248 -90 -466q-19 -89 -44 -164q-43 -29 -79 -29q-43 0 -13 142q7 34 23 101.5t23 101.5q24 111 66 307 q-145 278 -258 640zM609 1591q7 34 50.5 73t78.5 39q64 0 44 -92q-17 -84 -121 -84q-25 0 -41 19t-11 45zM949 1615q20 92 104 92q27 0 46.5 -20.5t13.5 -48.5q-8 -39 -41 -69.5t-73 -30.5q-25 0 -40 25.5t-10 51.5z" />
<glyph unicode="&#x2c6;" horiz-adv-x="800" d="M431 1546q9 45 123 142q107 94 158 114q36 14 61 14q64 0 139 -82q55 -60 94 -137q14 -25 10 -44q-5 -26 -29 -46t-50 -20q-39 0 -97 87q-69 99 -100 112l3 4q-23 -6 -116 -82q-59 -50 -119 -101q-86 0 -77 39z" />
<glyph unicode="&#x2dc;" horiz-adv-x="949" d="M486 1594q3 14 15 32q43 69 113 114t142 45q79 0 130 -50.5t64 -50.5q43 0 99 54t86 54q62 0 49 -60q-14 -65 -107 -123t-162 -58q-61 0 -105 55.5t-80 55.5q-49 0 -106 -64t-88 -64q-24 0 -39.5 18t-10.5 42z" />
<glyph unicode="&#x2000;" horiz-adv-x="911" />
<glyph unicode="&#x2001;" horiz-adv-x="1823" />
<glyph unicode="&#x2002;" horiz-adv-x="911" />
<glyph unicode="&#x2003;" horiz-adv-x="1823" />
<glyph unicode="&#x2004;" horiz-adv-x="607" />
<glyph unicode="&#x2005;" horiz-adv-x="455" />
<glyph unicode="&#x2006;" horiz-adv-x="303" />
<glyph unicode="&#x2007;" horiz-adv-x="303" />
<glyph unicode="&#x2008;" horiz-adv-x="227" />
<glyph unicode="&#x2009;" horiz-adv-x="364" />
<glyph unicode="&#x200a;" horiz-adv-x="101" />
<glyph unicode="&#x2010;" d="M292 666q7 34 47 46.5t218 12.5q32 0 96 6t96 6q63 0 50 -61q-16 -72 -200 -72q-44 0 -132 3.5t-132 3.5q-55 0 -43 55z" />
<glyph unicode="&#x2011;" d="M292 666q7 34 47 46.5t218 12.5q32 0 96 6t96 6q63 0 50 -61q-16 -72 -200 -72q-44 0 -132 3.5t-132 3.5q-55 0 -43 55z" />
<glyph unicode="&#x2012;" d="M292 666q7 34 47 46.5t218 12.5q32 0 96 6t96 6q63 0 50 -61q-16 -72 -200 -72q-44 0 -132 3.5t-132 3.5q-55 0 -43 55z" />
<glyph unicode="&#x2013;" horiz-adv-x="741" d="M297 666q9 46 83 56q20 3 110 3q33 0 96.5 6t96.5 6q63 0 50 -61q-14 -65 -381 -65q-67 0 -55 55z" />
<glyph unicode="&#x2014;" horiz-adv-x="1152" d="M301 666q7 34 49 47q36 12 519 12q33 0 96.5 6t96.5 6q63 0 50 -61q-10 -46 -96 -56q-23 -4 -119 -4q-94 0 -278 -2.5t-276 -2.5q-54 0 -42 55z" />
<glyph unicode="&#x2018;" horiz-adv-x="369" d="M371 1328q56 37 85 37q17 0 20 -22q34 -181 28 -210q-11 -51 -74 -51q-26 0 -35 26q-37 97 -24 220z" />
<glyph unicode="&#x2019;" horiz-adv-x="370" d="M337 1133q6 29 115 210q14 22 31 22q29 0 69 -37q-40 -123 -116 -220q-22 -26 -47 -26q-63 0 -52 51z" />
<glyph unicode="&#x201a;" horiz-adv-x="367" d="M85 -41q6 29 117 210q13 22 30 22q29 0 69 -37q-40 -123 -117 -221q-21 -25 -47 -25q-63 0 -52 51z" />
<glyph unicode="&#x201c;" horiz-adv-x="597" d="M410 1312q59 53 90 53q15 0 19 -22t13 -121t7 -108q-10 -47 -63 -47q-36 0 -46 36q-22 78 -20 209zM577 1304q5 22 34 37.5t58 15.5q20 0 13 -51q-7 -33 1 -92t1 -89q-11 -50 -65 -50q-34 0 -41 38q-19 106 -1 191z" />
<glyph unicode="&#x201d;" horiz-adv-x="592" d="M381 1125q7 30 40.5 89t40.5 92q1 5 1 12q2 8 3 13q5 26 29 26q30 0 75 -31l-4 -20q-18 -84 -83 -193q-25 -38 -57 -38q-56 0 -45 50zM522 1114q5 24 118 227q14 24 27 24q31 0 68 -53q-54 -131 -110 -209q-24 -36 -60 -36q-53 0 -43 47z" />
<glyph unicode="&#x201e;" horiz-adv-x="592" d="M131 -65q7 31 41 90t41 91q1 5 0 12q2 9 3 14q5 25 29 25q31 0 76 -30l-4 -21q-18 -84 -84 -193q-23 -37 -56 -37q-56 0 -46 49zM272 -75q5 24 118 227q14 24 28 24q30 0 67 -53q-53 -128 -109 -208q-27 -38 -61 -38q-53 0 -43 48z" />
<glyph unicode="&#x2022;" horiz-adv-x="705" d="M270 579q66 312 284 312q94 0 129 -97q29 -82 8 -183q-24 -111 -88 -195q-78 -104 -179 -104q-211 0 -154 267z" />
<glyph unicode="&#x2026;" horiz-adv-x="1068" d="M187 72q9 39 53 78t83 39q36 0 52 -33t8 -71q-8 -36 -39.5 -60.5t-67.5 -24.5q-104 0 -89 72zM449 77q9 39 53 78.5t83 39.5q36 0 51.5 -33.5t7.5 -71.5q-7 -35 -38.5 -60t-66.5 -25q-105 0 -90 72zM715 79q8 39 52.5 78t83.5 39q36 0 51 -33t7 -71q-8 -36 -39 -60.5 t-67 -24.5q-104 0 -88 72z" />
<glyph unicode="&#x202f;" horiz-adv-x="364" />
<glyph unicode="&#x2039;" horiz-adv-x="695" d="M190 749q4 19 28 48q48 53 224 203q191 161 221 161q23 0 35 -17.5t8 -39.5q-6 -27 -90 -102l-116 -96q-65 -56 -142 -131q29 -21 123 -103q60 -46 164 -150q17 -20 12 -41q-5 -25 -30 -45.5t-51 -20.5q-27 0 -100 65q-49 44 -96 88q-60 41 -171 128q-25 24 -19 53z" />
<glyph unicode="&#x203a;" horiz-adv-x="689" d="M318 474q6 28 90 103q56 48 114 95q88 76 146 132q-48 32 -124 99q-60 46 -166 152q-18 22 -14 39q5 26 31 46.5t53 20.5q28 0 99 -65q47 -43 94 -87q58 -41 171 -128q25 -23 19 -52q-4 -22 -28 -51q-39 -48 -221 -201q-194 -162 -224 -162q-23 0 -34 18.5t-6 40.5z" />
<glyph unicode="&#x205f;" horiz-adv-x="455" />
<glyph unicode="&#x20ac;" horiz-adv-x="1401" d="M264 526q11 54 80 71q36 9 181 19q14 56 33 108q-65 -2 -149 -2q-58 0 -44 66q9 41 59 60q29 10 198 22q101 203 240 333q170 162 356 162q89 0 163 -71q79 -75 61 -161q-14 -66 -77 -66q-30 0 -49 44q-30 73 -36 82q-31 44 -92 44q-232 0 -426 -358q200 10 277 10 q55 0 41 -65q-8 -39 -59.5 -61t-324.5 -22q-29 -79 -41 -116q146 6 259 6q99 0 84 -73q-8 -37 -58 -55q-55 -18 -310 -18q-15 -171 50 -263q71 -101 223 -101q207 0 302 174q31 10 61 10q43 0 35 -37q-4 -21 -39 -72q-132 -196 -386 -196q-205 0 -305 131q-90 123 -73 333 q-48 -1 -137 -1q-58 0 -74 5q-33 12 -23 58z" />
<glyph unicode="&#x2122;" horiz-adv-x="1780" d="M458 1302q13 63 78 63q68 0 205.5 -4t205.5 -4q128 0 174 -12q57 -16 47 -67q-13 -61 -107 -61h-213q-12 -77 -26 -142q-8 -39 -26 -116q-17 -77 -25 -116q-19 -90 -79 -90q-75 0 -46 138q8 34 25 100.5t24 100.5q11 51 22 132h-136q-140 0 -123 78zM1073 790 q6 29 23 85.5t23 85.5q10 46 27.5 138t27.5 138q27 128 97 128q50 0 88 -141q24 -103 88 -301q59 106 118 214q79 134 141 194q33 31 64 31q85 0 74 -152q-2 -44 -39 -215q-14 -67 -20 -104q-19 -113 -14 -92q-12 -57 -72 -57q-68 0 -36 154q6 27 19.5 82.5t19.5 83.5 q9 42 16 81q-18 -29 -106 -194q-66 -121 -123 -183q-26 -29 -55 -29q-40 0 -66.5 19t-96.5 304q-4 -19 -10 -58q-8 -39 -12 -58q-21 -97 -47 -154q-29 -65 -79 -65q-64 0 -50 65z" />
<glyph unicode="&#xe000;" horiz-adv-x="825" d="M0 0v825h825v-825h-825z" />
</font>
</defs>
</svg>
